<svg width="384" height="384" viewBox="0 0 512 512" fill="none" xmlns="http://www.w3.org/2000/svg">
<circle cx="256" cy="256" r="256" fill="#EA752E"/>
<rect x="-5" y="5" width="129.811" height="58.2871" transform="matrix(-1 0 0 1 445.898 300.713)" stroke="white" stroke-width="10"/>
<rect x="-5" y="5" width="129.811" height="57.0891" transform="matrix(-1 0 0 1 388.045 244.406)" stroke="white" stroke-width="10"/>
<rect x="-5" y="5" width="129.811" height="58.2871" transform="matrix(-1 0 0 1 332.121 185.703)" stroke="white" stroke-width="10"/>
<rect x="-5" y="5" width="130.775" height="58.2871" transform="matrix(-1 0 0 1 273.304 127)" stroke="white" stroke-width="10"/>
<line x1="316.354" y1="364" x2="241.354" y2="364" stroke="white" stroke-width="10"/>
<line y1="-5" x2="53.996" y2="-5" transform="matrix(-1 0 0 1 142.35 137)" stroke="white" stroke-width="10"/>
<line x1="245.354" y1="366" x2="92.3538" y2="162" stroke="white" stroke-width="10"/>
<line y1="-5" x2="32.3465" y2="-5" transform="matrix(3.51807e-08 -1 -1 -5.43106e-08 88.3538 164.347)" stroke="white" stroke-width="10"/>
<rect x="34.1998" y="216.002" width="43.0238" height="244.69" transform="rotate(-36.8502 34.1998 216.002)" stroke="white" stroke-width="6"/>
<line x1="87.0652" y1="209.798" x2="67.4506" y2="224.499" stroke="white" stroke-width="6"/>
<line x1="145.199" y1="287.365" x2="125.584" y2="302.065" stroke="white" stroke-width="6"/>
<line x1="110.672" y1="250.585" x2="91.0572" y2="265.286" stroke="white" stroke-width="6"/>
<line x1="168.805" y1="328.152" x2="149.191" y2="342.852" stroke="white" stroke-width="6"/>
<line x1="198.874" y1="368.273" x2="179.26" y2="382.973" stroke="white" stroke-width="6"/>
<line x1="100.429" y1="227.63" x2="71.8989" y2="249.012" stroke="white" stroke-width="6"/>
<line x1="158.563" y1="305.197" x2="130.032" y2="326.579" stroke="white" stroke-width="6"/>
<line x1="130.498" y1="267.75" x2="101.968" y2="289.133" stroke="white" stroke-width="6"/>
<line x1="188.632" y1="345.317" x2="160.101" y2="366.7" stroke="white" stroke-width="6"/>
</svg>
