<svg width="332" height="296" viewBox="0 0 332 296" fill="none" xmlns="http://www.w3.org/2000/svg">
<g filter="url(#filter0_d)">
<path d="M257.043 257.959C254.711 255.995 253.295 252.893 253.667 249.874C254.038 246.854 256.338 244.079 259.322 243.437C262.305 242.796 265.706 244.571 266.612 247.476C267.111 241.875 267.686 236.04 270.673 231.271C273.378 226.952 278.063 223.862 283.141 223.309C288.219 222.756 293.565 224.844 296.732 228.839C299.898 232.833 300.674 238.641 298.456 243.227C296.822 246.605 293.812 249.12 290.658 251.165C280.467 257.719 268.244 260.385 256.238 258.671" fill="#F2F2F2" fill-opacity="0.3"/>
<path d="M211.835 202.04C211.777 201.578 211.82 201.109 211.963 200.666C212.105 200.222 212.343 199.816 212.66 199.474C212.978 199.133 213.366 198.865 213.798 198.689C214.23 198.513 214.695 198.435 215.161 198.458L220.801 188.128L222.07 192.563L218.206 202.03C218.115 202.809 217.74 203.527 217.154 204.049C216.568 204.571 215.81 204.859 215.025 204.861C214.24 204.862 213.481 204.575 212.893 204.056C212.306 203.536 211.929 202.819 211.835 202.04V202.04Z" fill="#A0616A"/>
<path d="M255.29 242.827L252.148 245.117L241.807 234.108L246.444 230.729L255.29 242.827Z" fill="#A0616A"/>
<path d="M248.219 252.446L258.093 245.249L255.308 241.44L249.249 245.857C248.237 246.594 247.561 247.703 247.367 248.939C247.174 250.174 247.481 251.436 248.219 252.446L248.219 252.446Z" fill="#2F2E41"/>
<path d="M238.67 254.949L234.78 254.948L232.929 239.968L238.67 239.969L238.67 254.949Z" fill="#A0616A"/>
<path d="M227.278 258.554L239.503 258.555L239.503 253.839L232.002 253.839C230.749 253.839 229.547 254.335 228.662 255.22C227.776 256.104 227.278 257.304 227.278 258.554Z" fill="#2F2E41"/>
<path d="M226.988 196.523C226.988 196.523 225.084 214.896 229.843 227.567L233.333 251.643H239.361L238.727 223.132L240.948 197.79C240.948 197.79 236.506 186.386 226.988 196.523Z" fill="#2F2E41"/>
<path d="M247.61 197.79L241.265 219.648L253.638 239.288L247.452 244.515L233.333 222.499L237.458 195.572L247.61 197.79Z" fill="#2F2E41"/>
<path d="M231.428 148.776C227.125 148.776 223.636 145.292 223.636 140.995C223.636 136.698 227.125 133.215 231.428 133.215C235.732 133.215 239.221 136.698 239.221 140.995C239.221 145.292 235.732 148.776 231.428 148.776Z" fill="#A0616A"/>
<path d="M237.933 151.698C237.933 151.698 233.174 148.531 227.781 155.5L226.353 199.374C226.353 199.374 230.478 193.672 239.044 199.057C247.61 204.442 249.514 198.424 249.514 198.424C249.514 198.424 255.542 153.124 237.933 151.698Z" fill="#CCCCCC"/>
<path d="M228.165 155.389C226.796 155.463 225.503 156.04 224.534 157.008C223.566 157.977 222.99 159.268 222.918 160.635L221.911 179.733L215.249 197.79L219.056 200.958L231.429 179.417L233.963 161.711C234.079 160.899 234.013 160.072 233.771 159.289C233.528 158.506 233.115 157.786 232.561 157.181C232.006 156.577 231.324 156.103 230.564 155.793C229.804 155.483 228.985 155.345 228.165 155.389Z" fill="#CCCCCC"/>
<path d="M237.154 146.831C235.88 148.186 233.514 147.459 233.348 145.608C233.335 145.464 233.336 145.32 233.351 145.176C233.437 144.356 233.911 143.612 233.797 142.746C233.772 142.531 233.691 142.325 233.564 142.15C232.549 140.792 230.166 142.757 229.208 141.528C228.62 140.775 229.311 139.588 228.86 138.746C228.265 137.635 226.503 138.183 225.397 137.574C224.168 136.897 224.241 135.014 225.051 133.868C226.038 132.47 227.769 131.725 229.478 131.617C231.187 131.51 232.885 131.971 234.48 132.592C236.293 133.298 238.091 134.273 239.207 135.864C240.564 137.8 240.694 140.403 240.016 142.666C239.603 144.043 238.194 145.725 237.154 146.831Z" fill="#2F2E41"/>
<path d="M284.214 231.103C277.001 239.849 272.536 249.181 271.002 258.717C270.941 259.096 272.037 259.093 272.098 258.717C273.291 251.364 276.238 244.124 280.865 237.178C280.852 236.404 287.166 230.124 284.214 231.103Z" fill="#C4C4C4"/>
</g>
<path d="M58.058 39.3667C57.9548 39.5112 57.8628 39.6639 57.7829 39.8233L42.2915 41.621L40.0384 38.4794L35 41.3689L39.4352 49L58.4143 43.8595C58.8972 44.3387 59.5101 44.6548 60.1714 44.7657C60.8326 44.8767 61.5109 44.7772 62.1161 44.4806C62.7213 44.184 63.2246 43.7043 63.5592 43.1053C63.8937 42.5062 64.0436 41.8163 63.989 41.1272C63.9344 40.4381 63.6777 39.7825 63.2532 39.2476C62.8288 38.7126 62.2566 38.3238 61.6127 38.1327C60.9689 37.9415 60.2839 37.9572 59.6489 38.1777C59.0139 38.3981 58.459 38.8128 58.058 39.3667Z" fill="#FFE1C4"/>
<path d="M35.2328 44.8715C35.3697 44.8117 35.4973 44.7326 35.6116 44.6366L42.4474 38.9147C42.6118 38.7772 42.7456 38.6073 42.8405 38.4158C42.9353 38.2242 42.9891 38.0152 42.9985 37.802C43.0079 37.5887 42.9726 37.3758 42.895 37.1768C42.8173 36.9777 42.6989 36.7969 42.5473 36.6456L36.3442 30.4565C36.0837 30.1944 35.7371 30.0341 35.3676 30.0048C34.9981 29.9756 34.6303 30.0793 34.3313 30.2972L29.6403 33.682C29.3475 33.8934 29.1382 34.1997 29.0485 34.5481C28.9588 34.8964 28.9943 35.265 29.1488 35.5902L33.207 44.1161C33.3798 44.4789 33.6878 44.7605 34.0659 44.9015C34.444 45.0425 34.8625 45.0318 35.2327 44.8715H35.2328Z" fill="#F50057"/>
<path d="M11 120.012L14.9599 121L21 107.459L15.1559 106L11 120.012Z" fill="#FFE1C4"/>
<path d="M17.802 121.506L10.113 119.414L8.84749 124.065L20.8854 127.34L20.9676 127.038C21.2814 125.885 21.1242 124.654 20.5305 123.616C19.9369 122.579 18.9554 121.82 17.802 121.506Z" fill="#2F2E41"/>
<path d="M43.0011 124L47.7436 124L50 108L43 108L43.0011 124Z" fill="#FFE1C4"/>
<path d="M50.6648 123H43V127H55V126.74C55 125.748 54.5433 124.797 53.7303 124.095C52.9172 123.394 51.8146 123 50.6648 123Z" fill="#2F2E41"/>
<path d="M31.7773 20.2351C28.6717 17.1295 28.6717 12.0943 31.7773 8.98873C34.8829 5.88312 39.9181 5.88312 43.0237 8.98873C46.1293 12.0943 46.1293 17.1295 43.0237 20.2351C39.9181 23.3408 34.8829 23.3407 31.7773 20.2351Z" fill="#FFE1C4"/>
<path d="M44.2432 112H49.7502C50.1266 111.999 50.4887 111.858 50.7631 111.605C51.0375 111.352 51.2037 111.006 51.2279 110.637C52.8688 85.0232 51.909 66.6497 48.2072 52.8152C48.191 52.7546 48.171 52.6952 48.1473 52.6371L47.8524 51.9131C47.7434 51.643 47.5541 51.4114 47.3091 51.2486C47.0641 51.0857 46.7748 50.9991 46.4789 51H35.1545C34.9411 50.9998 34.7302 51.0451 34.5363 51.1326C34.3424 51.2202 34.1702 51.348 34.0314 51.5071L32.4933 53.2693C32.4633 53.3037 32.4352 53.3387 32.4082 53.3756C25.4722 62.8728 19.2564 81.4401 12.0575 106.397C11.9512 106.759 11.9934 107.148 12.175 107.481C12.3567 107.814 12.6634 108.063 13.0299 108.177L18.9482 110.037C19.2879 110.142 19.6548 110.124 19.9821 109.985C20.3093 109.847 20.5752 109.598 20.7314 109.284L36.0892 78.0071C36.1966 77.7885 36.3728 77.6097 36.5918 77.4971C36.8107 77.3845 37.0608 77.3442 37.3049 77.3821C37.5491 77.42 37.7743 77.534 37.9473 77.7074C38.1203 77.8808 38.2318 78.1042 38.2653 78.3447L42.7777 110.744C42.8273 111.092 43.0027 111.41 43.2719 111.641C43.5411 111.871 43.886 111.999 44.2432 112Z" fill="#2F2E41"/>
<path d="M32.5037 53C32.5191 53 32.5344 52.9997 32.5499 52.9994L46.214 52.5926C46.5653 52.5834 46.9013 52.4553 47.1608 52.2319C47.4203 52.0084 47.5859 51.7044 47.6274 51.3754C49.3595 38.1559 44.609 34.6144 42.4862 33.7056C42.3088 33.6302 42.1551 33.5127 42.04 33.3648C41.9249 33.2168 41.8523 33.0433 41.8292 32.8611L41.6455 31.4755C41.6142 31.2308 41.5139 30.9985 41.3552 30.8027C38.0268 26.7375 33.482 25.4358 31.0691 25.0218C30.8734 24.9887 30.6726 24.9933 30.4789 25.0356C30.2852 25.0779 30.1026 25.1568 29.9422 25.2677C29.7819 25.3785 29.6471 25.5189 29.5461 25.6804C29.445 25.8418 29.3799 26.021 29.3545 26.2069L29.0793 28.1965C29.0513 28.3863 28.971 28.5658 28.8464 28.7172C21.905 37.2729 29.638 49.9056 31.2587 52.3509C31.3912 52.5495 31.5748 52.7132 31.7926 52.8267C32.0103 52.9402 32.2549 52.9998 32.5037 53Z" fill="#FFFAF8"/>
<path d="M34.1486 74.3415C33.7075 74.0443 33.3397 73.6578 33.071 73.2093C32.8022 72.7608 32.6391 72.2611 32.5931 71.7455C32.5471 71.2299 32.6194 70.7108 32.8048 70.2249C32.9902 69.739 33.2842 69.298 33.6661 68.9331L31 38L38.9382 39.0492L39.0893 69.1035C39.6848 69.7606 40.0088 70.6048 39.9998 71.4761C39.9908 72.3473 39.6495 73.1852 39.0405 73.8308C38.4315 74.4765 37.5971 74.8851 36.6955 74.9792C35.7939 75.0733 34.8877 74.8464 34.1486 74.3415Z" fill="#FFE1C4"/>
<path d="M29.8213 42C29.9716 42 30.1211 41.9797 30.2653 41.9398L38.88 39.5688C39.087 39.5118 39.2792 39.4152 39.4444 39.2852C39.6095 39.1552 39.7441 38.9945 39.8394 38.8133C39.9348 38.6321 39.989 38.4344 39.9985 38.2326C40.008 38.0308 39.9727 37.8294 39.8947 37.641L36.7067 29.9338C36.5737 29.6083 36.3201 29.3384 35.9921 29.1733C35.6641 29.0082 35.2837 28.959 34.9201 29.0346L29.2288 30.1924C28.8735 30.2648 28.5564 30.451 28.3322 30.7188C28.108 30.9866 27.9907 31.3193 28.0006 31.6594L28.2654 40.5795C28.2767 40.9591 28.4455 41.3195 28.7359 41.5847C29.0263 41.8498 29.4156 41.9988 29.8213 42V42Z" fill="#FFFAF8"/>
<path d="M27.7327 9.31154C28.3004 7.51422 28.7195 5.66937 28.9853 3.79727C29.0689 2.70734 28.8015 1.53459 28.0415 0.782575C26.6191 -0.624791 24.2024 0.0455212 22.7149 1.37745C20.5651 3.3024 19.4929 6.26065 19.0877 9.18754C18.6825 12.1144 18.8608 15.0908 18.7632 18.0464C18.6657 21.002 18.2609 24.041 16.8181 26.5857C15.3752 29.1304 12.6977 31.0836 9.87353 30.867C8.73359 30.8027 7.65117 30.3237 6.81408 29.513C6.40318 29.1048 6.092 28.5996 5.90662 28.0399C5.72124 27.4801 5.66707 26.8821 5.74866 26.296C4.30518 28.9953 5.0369 32.6537 7.18997 34.7757C9.34305 36.8977 12.6549 37.4976 15.4854 36.5916C18.316 35.6856 20.6456 33.4139 22.0371 30.685C23.4286 27.9561 23.9385 24.8037 23.8646 21.7129C23.8079 19.3394 23.4215 16.9466 23.8056 14.6065C24.1897 12.2664 25.592 9.89037 27.8034 9.33931L27.7327 9.31154Z" fill="#2F2E41"/>
<path d="M38.6712 12.9315C39.0646 14.1544 40.5692 14.9085 41.9228 14.7017C43.2764 14.4948 44.3894 13.4575 44.8007 12.2397C45.1725 10.996 45.0203 9.66707 44.3751 8.5242C44.0196 7.83916 43.5223 7.2261 42.9119 6.7201C42.3014 6.2141 41.5897 5.8251 40.8175 5.57535C40.041 5.33586 39.214 5.27356 38.4061 5.39369C37.5983 5.51381 36.8333 5.81284 36.1756 6.2656C36.1056 5.99088 35.9581 5.7385 35.7484 5.53443C35.5387 5.33036 35.2744 5.18198 34.9826 5.10457C34.3951 4.95723 33.7749 4.96574 33.1923 5.12916C31.5135 5.57438 30.0587 6.55924 29.0867 7.90861C28.1271 9.25383 27.4923 10.7767 27.226 12.3722C26.7679 14.7649 26.9369 17.3795 28.3809 19.4045C29.825 21.4296 32.7794 22.6254 35.1761 21.6599C35.3256 20.9489 34.9715 20.233 34.5619 19.6169C34.1523 19.0008 33.6669 18.4007 33.5095 17.6911C33.3522 16.9816 33.6538 16.1138 34.3913 15.8817C35.0205 15.6838 35.6913 16.0045 36.3542 16.0432C36.7306 16.0652 37.1066 15.9947 37.4445 15.8388C37.7824 15.6828 38.0703 15.4469 38.2793 15.1548C38.4883 14.8626 38.6111 14.5244 38.6353 14.1742C38.6596 13.8239 38.5844 13.4739 38.4174 13.1592L38.6712 12.9315Z" fill="#2F2E41"/>
<g filter="url(#filter1_d)">
<rect x="4.65289" y="127.414" width="72.1761" height="2.88705" fill="#C4C4C4"/>
<rect x="212.52" y="258.775" width="72.1761" height="2.88705" fill="#C4C4C4"/>
<line x1="75.3855" y1="151.454" x2="104.256" y2="151.454" stroke="white"/>
<line x1="102.812" y1="173.107" x2="131.683" y2="173.107" stroke="white"/>
<line x1="130.239" y1="194.759" x2="159.11" y2="194.759" stroke="white"/>
<line x1="157.666" y1="216.412" x2="186.537" y2="216.412" stroke="white"/>
<line x1="185.093" y1="238.065" x2="213.964" y2="238.065" stroke="white"/>
<line x1="158.166" y1="196.703" x2="158.166" y2="214.025" stroke="white"/>
<line x1="103.312" y1="153.397" x2="103.312" y2="170.72" stroke="white"/>
<line x1="130.739" y1="175.05" x2="130.739" y2="192.372" stroke="white"/>
<line x1="75.8855" y1="131.745" x2="75.8855" y2="149.067" stroke="white"/>
<line x1="185.593" y1="218.356" x2="185.593" y2="235.678" stroke="white"/>
<line x1="213.02" y1="240.009" x2="213.02" y2="257.331" stroke="white"/>
</g>
<defs>
<filter id="filter0_d" x="69" y="106.134" width="265" height="193" filterUnits="userSpaceOnUse" color-interpolation-filters="sRGB">
<feFlood flood-opacity="0" result="BackgroundImageFix"/>
<feColorMatrix in="SourceAlpha" type="matrix" values="0 0 0 0 0 0 0 0 0 0 0 0 0 0 0 0 0 0 127 0"/>
<feOffset dy="2"/>
<feGaussianBlur stdDeviation="1"/>
<feColorMatrix type="matrix" values="0 0 0 0 0 0 0 0 0 0 0 0 0 0 0 0 0 0 0.25 0"/>
<feBlend mode="normal" in2="BackgroundImageFix" result="effect1_dropShadow"/>
<feBlend mode="normal" in="SourceGraphic" in2="effect1_dropShadow" result="shape"/>
</filter>
<filter id="filter1_d" x="0.652893" y="127.414" width="288.043" height="142.248" filterUnits="userSpaceOnUse" color-interpolation-filters="sRGB">
<feFlood flood-opacity="0" result="BackgroundImageFix"/>
<feColorMatrix in="SourceAlpha" type="matrix" values="0 0 0 0 0 0 0 0 0 0 0 0 0 0 0 0 0 0 127 0"/>
<feOffset dy="4"/>
<feGaussianBlur stdDeviation="2"/>
<feColorMatrix type="matrix" values="0 0 0 0 0 0 0 0 0 0 0 0 0 0 0 0 0 0 0.25 0"/>
<feBlend mode="normal" in2="BackgroundImageFix" result="effect1_dropShadow"/>
<feBlend mode="normal" in="SourceGraphic" in2="effect1_dropShadow" result="shape"/>
</filter>
</defs>
</svg>
