<svg width="199" height="291" viewBox="0 0 199 291" fill="none" xmlns="http://www.w3.org/2000/svg">
<path d="M118 238L144 238" stroke="#E97125" stroke-width="2"/>
<path d="M70 196L96 196" stroke="#E97125" stroke-width="2"/>
<path d="M94 217L120 217" stroke="#E97125" stroke-width="2"/>
<path d="M46 175L72 175" stroke="#E97125" stroke-width="2"/>
<path d="M143 258L143 248.148L143 239" stroke="#E97125" stroke-width="2"/>
<path d="M95 216L95 206.148L95 197" stroke="#E97125" stroke-width="2"/>
<path d="M119 237L119 227.148L119 218" stroke="#E97125" stroke-width="2"/>
<path d="M71 195L71 185.148L71 176" stroke="#E97125" stroke-width="2"/>
<path d="M47 174L47 164.148L47 155" stroke="#E97125" stroke-width="2"/>
<path d="M0 156L48 156" stroke="#898A8D" stroke-width="2"/>
<path d="M142 259H189" stroke="#898A8D" stroke-width="2"/>
<path d="M58.9943 279C58.7088 277.393 57.3963 276.153 55.5384 276.153C53.3352 276.153 51.767 277.905 51.767 280.636C51.767 283.368 53.3352 285.119 55.5384 285.119C57.3963 285.119 58.7088 283.875 58.9943 282.273H58.1932C57.9503 283.47 56.9062 284.369 55.5384 284.369C53.8849 284.369 52.5384 283.061 52.5384 280.636C52.5384 278.22 53.8849 276.903 55.5384 276.903C56.9062 276.903 57.9503 277.807 58.1932 279H58.9943ZM68.021 280.636C68.021 277.905 66.4528 276.153 64.2454 276.153C62.0423 276.153 60.4741 277.909 60.4741 280.636C60.4741 283.364 62.038 285.119 64.2454 285.119C66.4528 285.119 68.021 283.368 68.021 280.636ZM67.2454 280.636C67.2496 282.984 65.967 284.369 64.2454 284.369C62.5195 284.369 61.2454 282.976 61.2454 280.636C61.2454 278.284 62.5323 276.903 64.2454 276.903C65.967 276.903 67.2454 278.288 67.2454 280.636ZM69.9482 276.273V285H70.6982V277.956H70.7663L73.7109 285H74.4354L77.38 277.956H77.4482V285H78.1982V276.273H77.2777L74.1115 283.875H74.0348L70.8686 276.273H69.9482ZM80.5185 285H81.3153V281.663H83.348C85.1932 281.663 86.1477 280.491 86.1477 278.966C86.1477 277.44 85.1932 276.273 83.3352 276.273H80.5185V285ZM81.3153 280.947V276.989H83.3139C84.6946 276.989 85.3636 277.82 85.3636 278.966C85.3636 280.108 84.6946 280.947 83.3267 280.947H81.3153ZM88.0185 285H88.8153V281.472H90.848C90.9631 281.472 91.0739 281.467 91.1804 281.459L93.0938 285H94.0142L91.9986 281.305C93.0852 280.947 93.6477 280.053 93.6477 278.885C93.6477 277.359 92.6889 276.273 90.8352 276.273H88.0185V285ZM88.8153 280.743V276.989H90.8139C92.1946 276.989 92.8636 277.743 92.8636 278.885C92.8636 280.027 92.1946 280.743 90.8267 280.743H88.8153ZM96.3857 276.273H95.5888V285H96.3857V276.273ZM98.706 276.273V285H99.456V277.956H99.5241L102.469 285H103.193L106.138 277.956H106.206V285H106.956V276.273H106.036L102.869 283.875H102.793L99.6264 276.273H98.706ZM109.276 285H114.424V284.284H110.073V280.99H114.07V280.274H110.073V276.989H114.339V276.273H109.276V285ZM123.198 276.273H122.414V283.589H122.346L117.173 276.273H116.401V285H117.198V277.692H117.266L122.423 285H123.198V276.273ZM124.99 276.989H127.756V285H128.553V276.989H131.318V276.273H124.99V276.989ZM139.904 280.636C139.904 277.905 138.336 276.153 136.128 276.153C133.925 276.153 132.357 277.909 132.357 280.636C132.357 283.364 133.921 285.119 136.128 285.119C138.336 285.119 139.904 283.368 139.904 280.636ZM139.128 280.636C139.132 282.984 137.85 284.369 136.128 284.369C134.402 284.369 133.128 282.976 133.128 280.636C133.128 278.284 134.415 276.903 136.128 276.903C137.85 276.903 139.128 278.288 139.128 280.636Z" fill="#898A8D"/>
<path d="M143.159 229H148.307V228.284H143.956V224.99H147.953V224.274H143.956V220.989H148.222V220.273H143.159V229ZM155.023 222.455H155.794C155.734 221.129 154.588 220.149 152.964 220.149C151.354 220.149 150.114 221.116 150.114 222.523C150.114 223.643 150.906 224.347 152.274 224.751L153.318 225.058C154.401 225.374 155.142 225.778 155.142 226.669C155.142 227.717 154.192 228.42 152.888 228.42C151.712 228.42 150.791 227.854 150.706 226.818H149.888C149.982 228.199 151.107 229.149 152.888 229.149C154.78 229.149 155.913 228.08 155.913 226.682C155.913 225.233 154.652 224.653 153.544 224.342L152.624 224.078C151.776 223.839 150.885 223.409 150.885 222.489C150.885 221.551 151.724 220.865 152.943 220.865C154.098 220.865 154.925 221.483 155.023 222.455ZM157.831 229H158.628V225.663H160.661C162.506 225.663 163.46 224.491 163.46 222.966C163.46 221.44 162.506 220.273 160.648 220.273H157.831V229ZM158.628 224.947V220.989H160.626C162.007 220.989 162.676 221.82 162.676 222.966C162.676 224.108 162.007 224.947 160.639 224.947H158.628ZM165.331 229H170.479V228.284H166.128V224.99H170.125V224.274H166.128V220.989H170.393V220.273H165.331V229ZM172.456 229H177.412V228.284H173.253V220.273H172.456V229ZM179.206 229H180.003V224.99H184.955V229H185.751V220.273H184.955V224.274H180.003V220.273H179.206V229ZM195.22 224.636C195.22 221.905 193.652 220.153 191.445 220.153C189.241 220.153 187.673 221.909 187.673 224.636C187.673 227.364 189.237 229.119 191.445 229.119C193.652 229.119 195.22 227.368 195.22 224.636ZM194.445 224.636C194.449 226.984 193.166 228.369 191.445 228.369C189.719 228.369 188.445 226.976 188.445 224.636C188.445 222.284 189.732 220.903 191.445 220.903C193.166 220.903 194.445 222.288 194.445 224.636Z" fill="#898A8D"/>
<path d="M97.1591 191H97.956V187.663H99.9886C101.834 187.663 102.788 186.491 102.788 184.966C102.788 183.44 101.834 182.273 99.9759 182.273H97.1591V191ZM97.956 186.947V182.989H99.9545C101.335 182.989 102.004 183.82 102.004 184.966C102.004 186.108 101.335 186.947 99.9673 186.947H97.956ZM105.456 182.273H104.659V191H105.456V182.273ZM112.515 184.455H113.286C113.227 183.129 112.08 182.149 110.457 182.149C108.846 182.149 107.606 183.116 107.606 184.523C107.606 185.643 108.398 186.347 109.766 186.751L110.81 187.058C111.893 187.374 112.634 187.778 112.634 188.669C112.634 189.717 111.684 190.42 110.38 190.42C109.204 190.42 108.283 189.854 108.198 188.818H107.38C107.474 190.199 108.599 191.149 110.38 191.149C112.272 191.149 113.406 190.08 113.406 188.682C113.406 187.233 112.144 186.653 111.036 186.342L110.116 186.078C109.268 185.839 108.377 185.409 108.377 184.489C108.377 183.551 109.217 182.865 110.435 182.865C111.59 182.865 112.417 183.483 112.515 184.455ZM122.478 186.636C122.478 183.905 120.91 182.153 118.702 182.153C116.499 182.153 114.931 183.909 114.931 186.636C114.931 189.364 116.495 191.119 118.702 191.119C120.91 191.119 122.478 189.368 122.478 186.636ZM121.702 186.636C121.707 188.984 120.424 190.369 118.702 190.369C116.977 190.369 115.702 188.976 115.702 186.636C115.702 184.284 116.989 182.903 118.702 182.903C120.424 182.903 121.702 184.288 121.702 186.636Z" fill="#898A8D"/>
<mask maskUnits="userSpaceOnUse" x="0" y="0" width="0" height="0" fill="black">
<rect fill="white" width="0" height="0"/>
</mask>
<path d="M96.1464 201.146C95.9512 201.342 95.9512 201.658 96.1464 201.854L99.3284 205.036C99.5237 205.231 99.8403 205.231 100.036 205.036C100.231 204.84 100.231 204.524 100.036 204.328L97.2071 201.5L100.036 198.672C100.231 198.476 100.231 198.16 100.036 197.964C99.8403 197.769 99.5237 197.769 99.3284 197.964L96.1464 201.146ZM119.854 201.854C120.049 201.658 120.049 201.342 119.854 201.146L116.672 197.964C116.476 197.769 116.16 197.769 115.964 197.964C115.769 198.16 115.769 198.476 115.964 198.672L118.793 201.5L115.964 204.328C115.769 204.524 115.769 204.84 115.964 205.036C116.16 205.231 116.476 205.231 116.672 205.036L119.854 201.854ZM96.5 202H119.5V201H96.5V202Z" fill="#898A8D" mask="url(#)"/>
<mask maskUnits="userSpaceOnUse" x="0" y="0" width="0" height="0" fill="black">
<rect fill="white" width="0" height="0"/>
</mask>
<path d="M131.854 216.146C131.658 215.951 131.342 215.951 131.146 216.146L127.964 219.328C127.769 219.524 127.769 219.84 127.964 220.036C128.16 220.231 128.476 220.231 128.672 220.036L131.5 217.207L134.328 220.036C134.524 220.231 134.84 220.231 135.036 220.036C135.231 219.84 135.231 219.524 135.036 219.328L131.854 216.146ZM131.146 236.854C131.342 237.049 131.658 237.049 131.854 236.854L135.036 233.672C135.231 233.476 135.231 233.16 135.036 232.964C134.84 232.769 134.524 232.769 134.328 232.964L131.5 235.793L128.672 232.964C128.476 232.769 128.16 232.769 127.964 232.964C127.769 233.16 127.769 233.476 127.964 233.672L131.146 236.854ZM131 216.5L131 236.5L132 236.5L132 216.5L131 216.5Z" fill="#898A8D" mask="url(#)"/>
<mask maskUnits="userSpaceOnUse" x="0" y="0" width="0" height="0" fill="black">
<rect fill="white" width="0" height="0"/>
</mask>
<path d="M46.1464 268.146C45.9512 268.342 45.9512 268.658 46.1464 268.854L49.3284 272.036C49.5237 272.231 49.8403 272.231 50.0355 272.036C50.2308 271.84 50.2308 271.524 50.0355 271.328L47.2071 268.5L50.0355 265.672C50.2308 265.476 50.2308 265.16 50.0355 264.964C49.8403 264.769 49.5237 264.769 49.3284 264.964L46.1464 268.146ZM143.854 268.854C144.049 268.658 144.049 268.342 143.854 268.146L140.672 264.964C140.476 264.769 140.16 264.769 139.964 264.964C139.769 265.16 139.769 265.476 139.964 265.672L142.793 268.5L139.964 271.328C139.769 271.524 139.769 271.84 139.964 272.036C140.16 272.231 140.476 272.231 140.672 272.036L143.854 268.854ZM46.5 269L143.5 269L143.5 268L46.5 268L46.5 269Z" fill="#898A8D" mask="url(#)"/>
<line x1="46.25" y1="177.25" x2="46.25" y2="263.75" stroke="#B7B7B8" stroke-width="0.5" stroke-linecap="round" stroke-dasharray="2 2"/>
<path d="M32.6694 151.604H28.2758L26.1847 134.657H32.6694V151.604Z" fill="#A0616A"/>
<path d="M19.8025 155.684H33.6107V150.349H25.0635C24.3726 150.349 23.6885 150.485 23.0502 150.749C22.4119 151.013 21.8319 151.401 21.3434 151.89C20.8549 152.378 20.4674 152.958 20.203 153.596C19.9386 154.235 19.8025 154.919 19.8025 155.61V155.684Z" fill="#2F2E41"/>
<path d="M31.1249 125.344L34.1556 128.526L47.8677 118.351L43.395 113.656L31.1249 125.344Z" fill="#A0616A"/>
<path d="M37.2799 129.986L31.3846 123.797L27.5218 127.477L37.0459 137.475L37.0994 137.424C38.1097 136.461 38.6963 135.137 38.7302 133.742C38.764 132.347 38.2424 130.996 37.2799 129.986Z" fill="#2F2E41"/>
<path d="M0.543427 78.9163C0.265203 78.469 0.0884647 77.966 0.0256386 77.443C-0.0371857 76.9199 0.0154324 76.3894 0.179806 75.8889C0.344177 75.3883 0.616301 74.9299 0.976999 74.5459C1.3377 74.1619 1.7782 73.8617 2.26748 73.6664L19.5174 29.7031L26.2412 33.729L7.07895 75.905C7.35261 76.7487 7.30728 77.6635 6.95153 78.476C6.59578 79.2886 5.95432 79.9424 5.14873 80.3135C4.34314 80.6847 3.42938 80.7475 2.5806 80.49C1.73181 80.2325 1.00697 79.6726 0.543427 78.9163Z" fill="#A0616A"/>
<path d="M66.0181 82.0675C65.4926 82.0299 64.9818 81.8775 64.5215 81.6211C64.0613 81.3647 63.6629 81.0105 63.3543 80.5835C63.0458 80.1565 62.8346 79.667 62.7357 79.1495C62.6368 78.632 62.6526 78.0992 62.7819 77.5885L37.334 37.8049L44.5416 34.7279L67.4198 75.0094C68.2634 75.2835 68.9771 75.8575 69.4257 76.6227C69.8744 77.3879 70.0267 78.291 69.8539 79.161C69.6812 80.031 69.1953 80.8074 68.4883 81.3431C67.7813 81.8788 66.9024 82.1365 66.0181 82.0675Z" fill="#A0616A"/>
<path d="M19.6873 74.5139L24.1919 141.46L34.9564 140.51L37.1726 91.1194L43.1882 112.332L56.1689 113.282L51.0312 71.3479L19.6873 74.5139Z" fill="#2F2E41"/>
<path d="M45.0877 109.166L43.1881 112.332L29.8907 121.514L39.3888 126.579C39.3888 126.579 57.7519 116.448 56.1689 113.282L45.0877 109.166Z" fill="#2F2E41"/>
<path d="M10.2612 47.4279L14.0085 36.8676C14.8421 34.5182 16.1335 32.3575 17.8077 30.5104C19.482 28.6634 21.5059 27.1668 23.7624 26.1071C28.8343 24.2386 34.3505 23.9367 39.596 25.2404C40.0269 25.3475 40.4815 25.4603 40.9597 25.5789C44.5959 26.4605 48.0028 28.1063 50.9537 30.4066C53.2628 32.2269 55.3402 34.5318 55.5249 37.0109C55.5262 37.0163 55.5282 37.021 55.5295 37.0263C56.169 39.8294 56.4856 54.3933 56.4856 54.3933H50.8442L51.7365 74.0228L51.6644 73.8807C51.6644 73.8807 19.1262 80.0383 19.1262 76.8722V56.6096L18.4592 49.2725L10.2612 47.4279Z" fill="#E6E6E6"/>
<path d="M40.6324 22.4975C35.6524 22.4975 31.6153 18.4604 31.6153 13.4804C31.6153 8.50045 35.6524 4.46338 40.6324 4.46338C45.6123 4.46338 49.6494 8.50045 49.6494 13.4804C49.6494 18.4604 45.6123 22.4975 40.6324 22.4975Z" fill="#A0616A"/>
<path d="M41.4016 9.74112L48.9842 9.71704C49.8651 9.71424 50.8268 9.68311 51.4979 9.11243C52.5086 8.25288 52.3392 6.63108 51.798 5.41969C50.2908 2.04639 46.5493 -0.0958986 42.856 0.00330387C39.1626 0.102506 35.6657 2.2886 33.6758 5.40169C31.686 8.51477 31.1486 12.4465 31.8979 16.0644C32.7643 14.2248 34.098 12.6446 35.766 11.4816C37.4339 10.3186 39.3777 9.61336 41.4034 9.4364L41.4016 9.74112Z" fill="#2F2E41"/>
</svg>
