<svg width="218" height="277" viewBox="0 0 218 277" fill="none" xmlns="http://www.w3.org/2000/svg">
<path d="M64.9992 156L60.2562 156L58 137L65 137L64.9992 156Z" fill="#B7875B"/>
<path d="M52 161.101L65.7215 161.101L65.7218 154.897L57.3018 154.897C55.8957 154.897 54.5472 155.55 53.553 156.714C52.5587 157.877 52.0001 159.455 52 161.101Z" fill="#2F2E41"/>
<path d="M97 150.882L92.985 153L84 136.125L89.9262 133L97 150.882Z" fill="#B7875B"/>
<path d="M86.5188 161.101L99 154.43L96.7974 148.787L89.1385 152.881C87.8596 153.564 86.865 154.814 86.3738 156.356C85.8825 157.898 85.9346 159.605 86.5188 161.101L86.5188 161.101Z" fill="#2F2E41"/>
<path d="M83.68 90.1329C84.0907 89.7629 84.4287 89.2896 84.6701 88.7463C84.9116 88.203 85.0505 87.603 85.0772 86.9885C85.1039 86.3739 85.0177 85.7599 84.8247 85.1896C84.6317 84.6192 84.3366 84.1065 83.9601 83.6874L89 70L82.5973 71.2988L78.7929 84.0975C78.2467 84.9011 77.9658 85.9167 78.0033 86.9517C78.0409 87.9868 78.3944 88.9694 78.9968 89.7133C79.5991 90.4572 80.4086 90.9109 81.2717 90.9882C82.1349 91.0655 82.9918 90.7612 83.68 90.1329Z" fill="#B7875B"/>
<path d="M65.7609 149.334L69.944 106.427C69.9777 106.082 70.115 105.762 70.3313 105.525C70.5476 105.288 70.8287 105.149 71.1243 105.133C71.4199 105.118 71.7106 105.226 71.9442 105.439C72.1779 105.653 72.3392 105.957 72.3993 106.297L74.473 118.031C74.5023 118.197 74.5506 118.358 74.6168 118.509L86.7556 146.23C86.9344 146.638 87.234 146.955 87.598 147.122C87.9621 147.288 88.3654 147.293 88.732 147.134L92.9528 145.308C93.152 145.222 93.3345 145.09 93.4898 144.92C93.6452 144.75 93.7702 144.546 93.8577 144.319C93.9452 144.092 93.9933 143.847 93.9994 143.598C94.0054 143.349 93.9692 143.101 93.8928 142.868L84.0114 112.772C83.959 112.613 83.9309 112.444 83.9282 112.274L83.4234 80.8487C83.4159 80.388 83.2646 79.9466 82.9983 79.6083C82.7319 79.27 82.3691 79.0584 81.9787 79.0135L55.7558 76.0089C55.5239 75.9823 55.2898 76.0155 55.0699 76.1062C54.85 76.197 54.6497 76.343 54.4828 76.5341C54.316 76.7253 54.1867 76.9569 54.1041 77.2128C54.0214 77.4687 53.9873 77.7428 54.0042 78.0158L58.4095 149.257C58.4402 149.73 58.6215 150.172 58.9173 150.495C59.2131 150.818 59.6017 150.998 60.0057 151H64.1709C64.5638 151 64.9431 150.83 65.2363 150.523C65.5296 150.216 65.7163 149.793 65.7609 149.334Z" fill="#2F2E41"/>
<path d="M69.3139 24.768C63.661 24.768 59.0785 20.1854 59.0785 14.5325C59.0785 8.87967 63.661 4.29712 69.3139 4.29712C74.9668 4.29712 79.5493 8.87967 79.5493 14.5325C79.5493 20.1854 74.9668 24.768 69.3139 24.768Z" fill="#B7875B"/>
<path d="M59.0008 28.231C59.2393 28.0958 59.476 27.9659 59.711 27.8412H59.7111C62.5716 26.3155 65.7235 25.7216 68.8421 26.1209C71.9606 26.5201 74.9329 27.898 77.4527 30.1126C82.0925 34.2098 84.3288 40.3784 83.5884 47.037C82.0275 61.0711 83.8146 80.1083 84.0001 82.0044C69.6793 89.8119 57.1153 79.9958 56.0001 79.0837L59.0008 28.231Z" fill="#E97125"/>
<path d="M85.1997 80.9763C85.4585 80.9282 85.703 80.8055 85.9111 80.6193C86.1193 80.4331 86.2846 80.1892 86.3921 79.9096L93.6424 61.116C93.9141 60.4129 94.034 59.6425 93.9917 58.8725C93.9494 58.1025 93.7461 57.3564 93.3998 56.6998L84.4963 39.7984C84.2161 39.1896 83.7847 38.6945 83.2591 38.3784C82.7335 38.0623 82.1384 37.94 81.5522 38.0276C80.9659 38.1152 80.4162 38.4086 79.9754 38.8692C79.5346 39.3298 79.2235 39.9358 79.0832 40.6074C78.924 41.3726 78.9947 42.1785 79.2835 42.8898L85.8697 59.0707L81.541 76.2109C81.4645 76.5173 81.4565 76.8416 81.5181 77.1526C81.5796 77.4636 81.7084 77.7509 81.8922 77.9869L83.7822 80.3991C83.9301 80.5885 84.1101 80.7397 84.3107 80.8431C84.5113 80.9466 84.7281 81 84.9473 81C85.0318 80.9999 85.1162 80.9919 85.1997 80.9763Z" fill="#E97125"/>
<path opacity="0.2" d="M63.7382 77.25L65 46.0528L64.6727 46L59 79H62.2498C62.6322 79.0003 63 78.8188 63.2771 78.493C63.5542 78.1672 63.7193 77.7222 63.7382 77.25Z" fill="black"/>
<path d="M59.2728 87.5588C59.6135 87.1048 59.8643 86.5697 60.0075 85.9911C60.1506 85.4126 60.1828 84.8046 60.1016 84.2101C60.0204 83.6156 59.8279 83.0489 59.5375 82.5501C59.2472 82.0513 58.8662 81.6324 58.4212 81.3229L61 67L54.9078 69.7993L53.393 82.9714C52.9945 83.8732 52.8949 84.9133 53.1132 85.8947C53.3314 86.876 53.8523 87.7303 54.577 88.2957C55.3018 88.8612 56.1802 89.0985 57.0456 88.9626C57.9111 88.8268 58.7035 88.3273 59.2728 87.5588Z" fill="#B7875B"/>
<path d="M60.3076 77.418L64.9956 37.7272L65 37.6897L64.0938 32.3958C63.8668 31.0695 63.267 29.8938 62.4067 29.0885C61.5464 28.2833 60.4846 27.9037 59.4199 28.0208C58.3552 28.1379 57.3606 28.7437 56.6221 29.7248C55.8837 30.7059 55.452 31.9951 55.4078 33.3512L54.0011 76.5863C53.9869 77.0557 54.113 77.5146 54.3539 77.871C54.5949 78.2274 54.9329 78.4551 55.3004 78.5084L58.7003 78.9883C58.7551 78.996 58.8102 78.9999 58.8653 79C59.2152 79.0002 59.5535 78.8405 59.8183 78.55C60.0831 78.2595 60.2568 77.8577 60.3076 77.418Z" fill="#E97125"/>
<path d="M73.5208 23.8281C74.913 23.8162 76.2734 23.4103 77.4445 22.6574C78.6156 21.9045 79.5496 20.8353 80.1383 19.5737C81.0871 17.5667 81.6142 15.9679 81.7053 14.8213C81.95 11.7406 80.2093 6.89949 77.9042 4.24973C75.3752 1.34276 71.3724 0.937216 67.5014 0.545102C66.4438 0.437868 65.3502 0.32715 64.315 0.166215C63.4269 0.0282759 62.3215 -0.143486 61.3819 0.205284C61.1103 0.304798 60.862 0.458616 60.6519 0.657336C60.4418 0.856055 60.2745 1.09552 60.16 1.36108C60.1231 1.45438 60.0675 1.53913 59.9966 1.61014C59.9257 1.68114 59.8411 1.73688 59.7478 1.77394C59.6673 1.80479 59.5813 1.81861 59.4951 1.81451C59.409 1.81041 59.3246 1.78849 59.2474 1.75013C59.0903 1.67021 58.9165 1.62855 58.7402 1.62851C58.5639 1.62848 58.3901 1.67007 58.2329 1.74993C58.0941 1.81974 57.9737 1.92143 57.8817 2.04666C57.7897 2.17189 57.7287 2.31711 57.7035 2.47046C57.6871 2.57571 57.6545 2.67779 57.6068 2.77305C57.5257 2.92116 57.4142 3.05041 57.2795 3.1523C57.1449 3.25419 56.9902 3.3264 56.8256 3.36417C56.5744 3.42022 56.3524 3.56614 56.2012 3.77446C56.0501 3.98278 55.9803 4.23915 56.005 4.49533C56.0673 5.02113 56.0939 5.58843 56.1196 6.13727C56.2163 8.20222 56.3158 10.337 58.3917 10.3026C58.9226 10.2805 59.4482 10.1877 59.9546 10.0267C60.7065 9.81787 61.3004 9.65204 62.1005 10.151C63.3306 10.9177 63.5314 12.5205 63.7085 13.9348L63.7397 14.182C63.9467 15.7995 64.8015 17.746 66.5298 17.9088C67.0784 17.9267 67.625 17.832 68.1356 17.6304C68.6609 17.3979 69.2437 17.328 69.809 17.4296C70.7582 17.7004 71.2151 18.834 71.1758 19.814C71.1505 20.2153 71.0992 20.6145 71.0222 21.0091C70.8824 21.6341 70.8376 22.2766 70.8894 22.9149C70.9387 23.3031 71.3848 23.5591 72.2932 23.7201C72.6984 23.7919 73.1092 23.8281 73.5208 23.8281Z" fill="#2F2E41"/>
<path d="M67.9943 265C67.7088 263.393 66.3963 262.153 64.5384 262.153C62.3352 262.153 60.767 263.905 60.767 266.636C60.767 269.368 62.3352 271.119 64.5384 271.119C66.3963 271.119 67.7088 269.875 67.9943 268.273H67.1932C66.9503 269.47 65.9062 270.369 64.5384 270.369C62.8849 270.369 61.5384 269.061 61.5384 266.636C61.5384 264.22 62.8849 262.903 64.5384 262.903C65.9062 262.903 66.9503 263.807 67.1932 265H67.9943ZM77.021 266.636C77.021 263.905 75.4528 262.153 73.2454 262.153C71.0423 262.153 69.4741 263.909 69.4741 266.636C69.4741 269.364 71.038 271.119 73.2454 271.119C75.4528 271.119 77.021 269.368 77.021 266.636ZM76.2454 266.636C76.2496 268.984 74.967 270.369 73.2454 270.369C71.5195 270.369 70.2454 268.976 70.2454 266.636C70.2454 264.284 71.5323 262.903 73.2454 262.903C74.967 262.903 76.2454 264.288 76.2454 266.636ZM78.9482 262.273V271H79.6982V263.956H79.7663L82.7109 271H83.4354L86.38 263.956H86.4482V271H87.1982V262.273H86.2777L83.1115 269.875H83.0348L79.8686 262.273H78.9482ZM89.5185 271H90.3153V267.663H92.348C94.1932 267.663 95.1477 266.491 95.1477 264.966C95.1477 263.44 94.1932 262.273 92.3352 262.273H89.5185V271ZM90.3153 266.947V262.989H92.3139C93.6946 262.989 94.3636 263.82 94.3636 264.966C94.3636 266.108 93.6946 266.947 92.3267 266.947H90.3153ZM97.0185 271H97.8153V267.472H99.848C99.9631 267.472 100.074 267.467 100.18 267.459L102.094 271H103.014L100.999 267.305C102.085 266.947 102.648 266.053 102.648 264.885C102.648 263.359 101.689 262.273 99.8352 262.273H97.0185V271ZM97.8153 266.743V262.989H99.8139C101.195 262.989 101.864 263.743 101.864 264.885C101.864 266.027 101.195 266.743 99.8267 266.743H97.8153ZM105.386 262.273H104.589V271H105.386V262.273ZM107.706 262.273V271H108.456V263.956H108.524L111.469 271H112.193L115.138 263.956H115.206V271H115.956V262.273H115.036L111.869 269.875H111.793L108.626 262.273H107.706ZM118.276 271H123.424V270.284H119.073V266.99H123.07V266.274H119.073V262.989H123.339V262.273H118.276V271ZM132.198 262.273H131.414V269.589H131.346L126.173 262.273H125.401V271H126.198V263.692H126.266L131.423 271H132.198V262.273ZM133.99 262.989H136.756V271H137.553V262.989H140.318V262.273H133.99V262.989ZM148.904 266.636C148.904 263.905 147.336 262.153 145.128 262.153C142.925 262.153 141.357 263.909 141.357 266.636C141.357 269.364 142.921 271.119 145.128 271.119C147.336 271.119 148.904 269.368 148.904 266.636ZM148.128 266.636C148.132 268.984 146.85 270.369 145.128 270.369C143.402 270.369 142.128 268.976 142.128 266.636C142.128 264.284 143.415 262.903 145.128 262.903C146.85 262.903 148.128 264.288 148.128 266.636Z" fill="#898A8D"/>
<path d="M162.159 213H167.307V212.284H162.956V208.99H166.953V208.274H162.956V204.989H167.222V204.273H162.159V213ZM174.023 206.455H174.794C174.734 205.129 173.588 204.149 171.964 204.149C170.354 204.149 169.114 205.116 169.114 206.523C169.114 207.643 169.906 208.347 171.274 208.751L172.318 209.058C173.401 209.374 174.142 209.778 174.142 210.669C174.142 211.717 173.192 212.42 171.888 212.42C170.712 212.42 169.791 211.854 169.706 210.818H168.888C168.982 212.199 170.107 213.149 171.888 213.149C173.78 213.149 174.913 212.08 174.913 210.682C174.913 209.233 173.652 208.653 172.544 208.342L171.624 208.078C170.776 207.839 169.885 207.409 169.885 206.489C169.885 205.551 170.724 204.865 171.943 204.865C173.098 204.865 173.925 205.483 174.023 206.455ZM176.831 213H177.628V209.663H179.661C181.506 209.663 182.46 208.491 182.46 206.966C182.46 205.44 181.506 204.273 179.648 204.273H176.831V213ZM177.628 208.947V204.989H179.626C181.007 204.989 181.676 205.82 181.676 206.966C181.676 208.108 181.007 208.947 179.639 208.947H177.628ZM184.331 213H189.479V212.284H185.128V208.99H189.125V208.274H185.128V204.989H189.393V204.273H184.331V213ZM191.456 213H196.412V212.284H192.253V204.273H191.456V213ZM198.206 213H199.003V208.99H203.955V213H204.751V204.273H203.955V208.274H199.003V204.273H198.206V213ZM214.22 208.636C214.22 205.905 212.652 204.153 210.445 204.153C208.241 204.153 206.673 205.909 206.673 208.636C206.673 211.364 208.237 213.119 210.445 213.119C212.652 213.119 214.22 211.368 214.22 208.636ZM213.445 208.636C213.449 210.984 212.166 212.369 210.445 212.369C208.719 212.369 207.445 210.976 207.445 208.636C207.445 206.284 208.732 204.903 210.445 204.903C212.166 204.903 213.445 206.288 213.445 208.636Z" fill="#898A8D"/>
<path d="M109.159 181H109.956V177.663H111.989C113.834 177.663 114.788 176.491 114.788 174.966C114.788 173.44 113.834 172.273 111.976 172.273H109.159V181ZM109.956 176.947V172.989H111.955C113.335 172.989 114.004 173.82 114.004 174.966C114.004 176.108 113.335 176.947 111.967 176.947H109.956ZM117.456 172.273H116.659V181H117.456V172.273ZM124.515 174.455H125.286C125.227 173.129 124.08 172.149 122.457 172.149C120.846 172.149 119.606 173.116 119.606 174.523C119.606 175.643 120.398 176.347 121.766 176.751L122.81 177.058C123.893 177.374 124.634 177.778 124.634 178.669C124.634 179.717 123.684 180.42 122.38 180.42C121.204 180.42 120.283 179.854 120.198 178.818H119.38C119.474 180.199 120.599 181.149 122.38 181.149C124.272 181.149 125.406 180.08 125.406 178.682C125.406 177.233 124.144 176.653 123.036 176.342L122.116 176.078C121.268 175.839 120.377 175.409 120.377 174.489C120.377 173.551 121.217 172.865 122.435 172.865C123.59 172.865 124.417 173.483 124.515 174.455ZM134.478 176.636C134.478 173.905 132.91 172.153 130.702 172.153C128.499 172.153 126.931 173.909 126.931 176.636C126.931 179.364 128.495 181.119 130.702 181.119C132.91 181.119 134.478 179.368 134.478 176.636ZM133.702 176.636C133.707 178.984 132.424 180.369 130.702 180.369C128.977 180.369 127.702 178.976 127.702 176.636C127.702 174.284 128.989 172.903 130.702 172.903C132.424 172.903 133.702 174.288 133.702 176.636Z" fill="#898A8D"/>
<path d="M107.146 189.146C106.951 189.342 106.951 189.658 107.146 189.854L110.328 193.036C110.524 193.231 110.84 193.231 111.036 193.036C111.231 192.84 111.231 192.524 111.036 192.328L108.207 189.5L111.036 186.672C111.231 186.476 111.231 186.16 111.036 185.964C110.84 185.769 110.524 185.769 110.328 185.964L107.146 189.146ZM135.854 189.854C136.049 189.658 136.049 189.342 135.854 189.146L132.672 185.964C132.476 185.769 132.16 185.769 131.964 185.964C131.769 186.16 131.769 186.476 131.964 186.672L134.793 189.5L131.964 192.328C131.769 192.524 131.769 192.84 131.964 193.036C132.16 193.231 132.476 193.231 132.672 193.036L135.854 189.854ZM107.5 190H135.5V189H107.5V190Z" fill="#898A8D"/>
<mask maskUnits="userSpaceOnUse" x="0" y="0" width="0" height="0" fill="black">
<rect fill="white" width="0" height="0"/>
</mask>
<path d="M150.854 200.146C150.658 199.951 150.342 199.951 150.146 200.146L146.964 203.328C146.769 203.524 146.769 203.84 146.964 204.036C147.16 204.231 147.476 204.231 147.672 204.036L150.5 201.207L153.328 204.036C153.524 204.231 153.84 204.231 154.036 204.036C154.231 203.84 154.231 203.524 154.036 203.328L150.854 200.146ZM150.146 219.854C150.342 220.049 150.658 220.049 150.854 219.854L154.036 216.672C154.231 216.476 154.231 216.16 154.036 215.964C153.84 215.769 153.524 215.769 153.328 215.964L150.5 218.793L147.672 215.964C147.476 215.769 147.16 215.769 146.964 215.964C146.769 216.16 146.769 216.476 146.964 216.672L150.146 219.854ZM150 200.5L150 219.5L151 219.5L151 200.5L150 200.5Z" fill="#898A8D" mask="url(#)"/>
<mask maskUnits="userSpaceOnUse" x="0" y="0" width="0" height="0" fill="black">
<rect fill="white" width="0" height="0"/>
</mask>
<path d="M47.1464 255.146C46.9512 255.342 46.9512 255.658 47.1464 255.854L50.3284 259.036C50.5237 259.231 50.8403 259.231 51.0355 259.036C51.2308 258.84 51.2308 258.524 51.0355 258.328L48.2071 255.5L51.0355 252.672C51.2308 252.476 51.2308 252.16 51.0355 251.964C50.8403 251.769 50.5237 251.769 50.3284 251.964L47.1464 255.146ZM163.854 255.854C164.049 255.658 164.049 255.342 163.854 255.146L160.672 251.964C160.476 251.769 160.16 251.769 159.964 251.964C159.769 252.16 159.769 252.476 159.964 252.672L162.793 255.5L159.964 258.328C159.769 258.524 159.769 258.84 159.964 259.036C160.16 259.231 160.476 259.231 160.672 259.036L163.854 255.854ZM47.5 256L163.5 256L163.5 255L47.5 255L47.5 256Z" fill="#898A8D" mask="url(#)"/>
<line x1="47.25" y1="164.25" x2="47.25" y2="250.75" stroke="#B7B7B8" stroke-width="0.5" stroke-linecap="round" stroke-dasharray="2 2"/>
<path d="M48 160L48 149.63L48 140" stroke="#E97125" stroke-width="2"/>
<path d="M106 200L106 189.63L106 180" stroke="#E97125" stroke-width="2"/>
<path d="M77 180L77 169.63L77 160" stroke="#E97125" stroke-width="2"/>
<path d="M135 220L135 209.63L135 200" stroke="#E97125" stroke-width="2"/>
<path d="M164 240L164 229.63L164 220" stroke="#E97125" stroke-width="2"/>
<path d="M47 161L78 161" stroke="#E97125" stroke-width="2"/>
<path d="M105 201L136 201" stroke="#E97125" stroke-width="2"/>
<path d="M76 181L107 181" stroke="#E97125" stroke-width="2"/>
<path d="M134 221L165 221" stroke="#E97125" stroke-width="2"/>
<path d="M0 141H49" stroke="#898A8D" stroke-width="2"/>
<path d="M163 241H212" stroke="#898A8D" stroke-width="2"/>
</svg>
