<svg width="226" height="205" viewBox="0 0 226 205" fill="none" xmlns="http://www.w3.org/2000/svg">
<path d="M127 160L153 160" stroke="#E97125" stroke-width="2"/>
<path d="M78.9999 130L105 130" stroke="#E97125" stroke-width="2"/>
<path d="M31 100L57 100" stroke="#E97125" stroke-width="2"/>
<path d="M103 145L129 145" stroke="#E97125" stroke-width="2"/>
<path d="M55 115L81 115" stroke="#E97125" stroke-width="2"/>
<path d="M152 174L152 166.222L152 159" stroke="#E97125" stroke-width="2"/>
<path d="M104 144L104 136.222L104 129" stroke="#E97125" stroke-width="2"/>
<path d="M56 114L56 106.222L56 99" stroke="#E97125" stroke-width="2"/>
<path d="M128 159L128 151.222L128 144" stroke="#E97125" stroke-width="2"/>
<path d="M79.9999 129L79.9999 121.222L79.9999 114" stroke="#E97125" stroke-width="2"/>
<path d="M32 99L32 91.2222L32 84" stroke="#E97125" stroke-width="2"/>
<path d="M0 85L33 85" stroke="#898A8D" stroke-width="2"/>
<path d="M151 175H223" stroke="#898A8D" stroke-width="2"/>
<path d="M54.9943 193C54.7088 191.393 53.3963 190.153 51.5384 190.153C49.3352 190.153 47.767 191.905 47.767 194.636C47.767 197.368 49.3352 199.119 51.5384 199.119C53.3963 199.119 54.7088 197.875 54.9943 196.273H54.1932C53.9503 197.47 52.9062 198.369 51.5384 198.369C49.8849 198.369 48.5384 197.061 48.5384 194.636C48.5384 192.22 49.8849 190.903 51.5384 190.903C52.9062 190.903 53.9503 191.807 54.1932 193H54.9943ZM64.021 194.636C64.021 191.905 62.4528 190.153 60.2454 190.153C58.0423 190.153 56.4741 191.909 56.4741 194.636C56.4741 197.364 58.038 199.119 60.2454 199.119C62.4528 199.119 64.021 197.368 64.021 194.636ZM63.2454 194.636C63.2496 196.984 61.967 198.369 60.2454 198.369C58.5195 198.369 57.2454 196.976 57.2454 194.636C57.2454 192.284 58.5323 190.903 60.2454 190.903C61.967 190.903 63.2454 192.288 63.2454 194.636ZM65.9482 190.273V199H66.6982V191.956H66.7663L69.7109 199H70.4354L73.38 191.956H73.4482V199H74.1982V190.273H73.2777L70.1115 197.875H70.0348L66.8686 190.273H65.9482ZM76.5185 199H77.3153V195.663H79.348C81.1932 195.663 82.1477 194.491 82.1477 192.966C82.1477 191.44 81.1932 190.273 79.3352 190.273H76.5185V199ZM77.3153 194.947V190.989H79.3139C80.6946 190.989 81.3636 191.82 81.3636 192.966C81.3636 194.108 80.6946 194.947 79.3267 194.947H77.3153ZM84.0185 199H84.8153V195.472H86.848C86.9631 195.472 87.0739 195.467 87.1804 195.459L89.0938 199H90.0142L87.9986 195.305C89.0852 194.947 89.6477 194.053 89.6477 192.885C89.6477 191.359 88.6889 190.273 86.8352 190.273H84.0185V199ZM84.8153 194.743V190.989H86.8139C88.1946 190.989 88.8636 191.743 88.8636 192.885C88.8636 194.027 88.1946 194.743 86.8267 194.743H84.8153ZM92.3857 190.273H91.5888V199H92.3857V190.273ZM94.706 190.273V199H95.456V191.956H95.5241L98.4688 199H99.1932L102.138 191.956H102.206V199H102.956V190.273H102.036L98.8693 197.875H98.7926L95.6264 190.273H94.706ZM105.276 199H110.424V198.284H106.073V194.99H110.07V194.274H106.073V190.989H110.339V190.273H105.276V199ZM119.198 190.273H118.414V197.589H118.346L113.173 190.273H112.401V199H113.198V191.692H113.266L118.423 199H119.198V190.273ZM120.99 190.989H123.756V199H124.553V190.989H127.318V190.273H120.99V190.989ZM135.904 194.636C135.904 191.905 134.336 190.153 132.128 190.153C129.925 190.153 128.357 191.909 128.357 194.636C128.357 197.364 129.921 199.119 132.128 199.119C134.336 199.119 135.904 197.368 135.904 194.636ZM135.128 194.636C135.132 196.984 133.85 198.369 132.128 198.369C130.402 198.369 129.128 196.976 129.128 194.636C129.128 192.284 130.415 190.903 132.128 190.903C133.85 190.903 135.128 192.288 135.128 194.636Z" fill="#898A8D"/>
<path d="M101.16 124H106.308V123.284H101.957V119.99H105.954V119.274H101.957V115.989H106.223V115.273H101.16V124ZM113.024 117.455H113.795C113.736 116.129 112.589 115.149 110.966 115.149C109.355 115.149 108.115 116.116 108.115 117.523C108.115 118.643 108.907 119.347 110.275 119.751L111.319 120.058C112.402 120.374 113.143 120.778 113.143 121.669C113.143 122.717 112.193 123.42 110.889 123.42C109.713 123.42 108.792 122.854 108.707 121.818H107.889C107.983 123.199 109.108 124.149 110.889 124.149C112.781 124.149 113.915 123.08 113.915 121.682C113.915 120.233 112.653 119.653 111.545 119.342L110.625 119.078C109.777 118.839 108.886 118.409 108.886 117.489C108.886 116.551 109.726 115.865 110.944 115.865C112.099 115.865 112.926 116.483 113.024 117.455ZM115.832 124H116.629V120.663H118.662C120.507 120.663 121.461 119.491 121.461 117.966C121.461 116.44 120.507 115.273 118.649 115.273H115.832V124ZM116.629 119.947V115.989H118.628C120.008 115.989 120.677 116.82 120.677 117.966C120.677 119.108 120.008 119.947 118.64 119.947H116.629ZM123.332 124H128.48V123.284H124.129V119.99H128.126V119.274H124.129V115.989H128.395V115.273H123.332V124ZM130.457 124H135.413V123.284H131.254V115.273H130.457V124ZM137.207 124H138.004V119.99H142.956V124H143.753V115.273H142.956V119.274H138.004V115.273H137.207V124ZM153.221 119.636C153.221 116.905 151.653 115.153 149.446 115.153C147.243 115.153 145.675 116.909 145.675 119.636C145.675 122.364 147.238 124.119 149.446 124.119C151.653 124.119 153.221 122.368 153.221 119.636ZM152.446 119.636C152.45 121.984 151.167 123.369 149.446 123.369C147.72 123.369 146.446 121.976 146.446 119.636C146.446 117.284 147.733 115.903 149.446 115.903C151.167 115.903 152.446 117.288 152.446 119.636Z" fill="#898A8D"/>
<path d="M58.1603 96H58.9572V92.6634H60.9899C62.835 92.6634 63.7896 91.4915 63.7896 89.9659C63.7896 88.4403 62.835 87.2727 60.9771 87.2727H58.1603V96ZM58.9572 91.9474V87.9886H60.9558C62.3364 87.9886 63.0055 88.8196 63.0055 89.9659C63.0055 91.108 62.3364 91.9474 60.9686 91.9474H58.9572ZM66.4572 87.2727H65.6603V96H66.4572V87.2727ZM73.5161 89.4545H74.2874C74.2278 88.1293 73.0815 87.1491 71.4579 87.1491C69.8471 87.1491 68.607 88.1165 68.607 89.5227C68.607 90.6435 69.3997 91.3466 70.7676 91.7514L71.8116 92.0582C72.894 92.3736 73.6355 92.7784 73.6355 93.669C73.6355 94.7173 72.6852 95.4205 71.3812 95.4205C70.2051 95.4205 69.2846 94.8537 69.1994 93.8182H68.3812C68.4749 95.1989 69.5999 96.1491 71.3812 96.1491C73.2732 96.1491 74.4068 95.0795 74.4068 93.6818C74.4068 92.233 73.1454 91.6534 72.0374 91.3423L71.117 91.0781C70.269 90.8395 69.3784 90.4091 69.3784 89.4886C69.3784 88.5511 70.2178 87.8651 71.4366 87.8651C72.5914 87.8651 73.4181 88.483 73.5161 89.4545ZM83.4792 91.6364C83.4792 88.9048 81.911 87.1534 79.7036 87.1534C77.5005 87.1534 75.9323 88.9091 75.9323 91.6364C75.9323 94.3636 77.4962 96.1193 79.7036 96.1193C81.911 96.1193 83.4792 94.3679 83.4792 91.6364ZM82.7036 91.6364C82.7079 93.9844 81.4252 95.3693 79.7036 95.3693C77.9778 95.3693 76.7036 93.9759 76.7036 91.6364C76.7036 89.2841 77.9906 87.9034 79.7036 87.9034C81.4252 87.9034 82.7036 89.2884 82.7036 91.6364Z" fill="#898A8D"/>
<mask maskUnits="userSpaceOnUse" x="0" y="0" width="0" height="0" fill="black">
<rect fill="white" width="0" height="0"/>
</mask>
<path d="M57.1477 105.146C56.9524 105.342 56.9524 105.658 57.1477 105.854L60.3296 109.036C60.5249 109.231 60.8415 109.231 61.0368 109.036C61.232 108.84 61.232 108.524 61.0368 108.328L58.2083 105.5L61.0368 102.672C61.232 102.476 61.232 102.16 61.0368 101.964C60.8415 101.769 60.5249 101.769 60.3296 101.964L57.1477 105.146ZM80.8548 105.854C81.05 105.658 81.05 105.342 80.8548 105.146L77.6728 101.964C77.4775 101.769 77.1609 101.769 76.9657 101.964C76.7704 102.16 76.7704 102.476 76.9657 102.672L79.7941 105.5L76.9657 108.328C76.7704 108.524 76.7704 108.84 76.9657 109.036C77.1609 109.231 77.4775 109.231 77.6728 109.036L80.8548 105.854ZM57.5012 106H80.5012V105H57.5012V106Z" fill="#898A8D" mask="url(#)"/>
<mask maskUnits="userSpaceOnUse" x="0" y="0" width="0" height="0" fill="black">
<rect fill="white" width="0" height="0"/>
</mask>
<path d="M92.8548 114.146C92.6595 113.951 92.3429 113.951 92.1477 114.146L88.9657 117.328C88.7704 117.524 88.7704 117.84 88.9657 118.036C89.1609 118.231 89.4775 118.231 89.6728 118.036L92.5012 115.207L95.3296 118.036C95.5249 118.231 95.8415 118.231 96.0368 118.036C96.232 117.84 96.232 117.524 96.0368 117.328L92.8548 114.146ZM92.1477 128.854C92.3429 129.049 92.6595 129.049 92.8548 128.854L96.0368 125.672C96.232 125.476 96.232 125.16 96.0368 124.964C95.8415 124.769 95.5249 124.769 95.3296 124.964L92.5012 127.793L89.6728 124.964C89.4775 124.769 89.1609 124.769 88.9657 124.964C88.7704 125.16 88.7704 125.476 88.9657 125.672L92.1477 128.854ZM92.0012 114.5L92.0012 128.5L93.0012 128.5L93.0012 114.5L92.0012 114.5Z" fill="#898A8D" mask="url(#)"/>
<mask maskUnits="userSpaceOnUse" x="0" y="0" width="0" height="0" fill="black">
<rect fill="white" width="0" height="0"/>
</mask>
<path d="M31.1464 184.146C30.9512 184.342 30.9512 184.658 31.1464 184.854L34.3284 188.036C34.5237 188.231 34.8403 188.231 35.0355 188.036C35.2308 187.84 35.2308 187.524 35.0355 187.328L32.2071 184.5L35.0355 181.672C35.2308 181.476 35.2308 181.16 35.0355 180.964C34.8403 180.769 34.5237 180.769 34.3284 180.964L31.1464 184.146ZM152.854 184.854C153.049 184.658 153.049 184.342 152.854 184.146L149.672 180.964C149.476 180.769 149.16 180.769 148.964 180.964C148.769 181.16 148.769 181.476 148.964 181.672L151.793 184.5L148.964 187.328C148.769 187.524 148.769 187.84 148.964 188.036C149.16 188.231 149.476 188.231 149.672 188.036L152.854 184.854ZM31.5 185L152.5 185L152.5 184L31.5 184L31.5 185Z" fill="#898A8D" mask="url(#)"/>
<line x1="31.25" y1="102.25" x2="31.25" y2="184.75" stroke="#B7B7B8" stroke-width="0.5" stroke-linecap="round" stroke-dasharray="2 2"/>
<path d="M175.629 35.6729H167.191V44.1108H175.629V35.6729Z" fill="#E6E6E6"/>
<path d="M189.223 35.6729H180.785V44.1108H189.223V35.6729Z" fill="#E6E6E6"/>
<path d="M202.818 35.6729H194.38V44.1108H202.818V35.6729Z" fill="#E6E6E6"/>
<path d="M175.863 54.8925H167.426V63.3304H175.863V54.8925Z" fill="#E6E6E6"/>
<path d="M189.458 54.8925H181.02V63.3304H189.458V54.8925Z" fill="#E6E6E6"/>
<path d="M203.052 54.8925H194.615V63.3304H203.052V54.8925Z" fill="#E6E6E6"/>
<path d="M176.098 74.1122H167.66V82.5501H176.098V74.1122Z" fill="#E6E6E6"/>
<path d="M189.692 74.1122H181.254V82.5501H189.692V74.1122Z" fill="#E6E6E6"/>
<path d="M203.287 74.1122H194.849V82.5501H203.287V74.1122Z" fill="#E6E6E6"/>
<path d="M176.332 93.3318H167.895V101.77H176.332V93.3318Z" fill="#E6E6E6"/>
<path d="M189.927 93.3318H181.489V101.77H189.927V93.3318Z" fill="#E6E6E6"/>
<path d="M203.521 93.3318H195.083V101.77H203.521V93.3318Z" fill="#E6E6E6"/>
<path d="M176.332 93.3318H167.895V101.77H176.332V93.3318Z" fill="#E6E6E6"/>
<path d="M189.927 93.3318H181.489V101.77H189.927V93.3318Z" fill="#E6E6E6"/>
<path d="M203.521 93.3318H195.083V101.77H203.521V93.3318Z" fill="#E6E6E6"/>
<path d="M220.99 169.226L218.683 169.497C216.861 170.596 214.723 171.009 212.354 170.925C212.023 170.915 211.701 170.819 211.419 170.646C211.137 170.473 210.905 170.23 210.746 169.94C210.608 169.685 210.531 169.402 210.52 169.113C210.51 168.824 210.566 168.536 210.685 168.272C210.803 168.008 210.981 167.775 211.205 167.591C211.428 167.407 211.691 167.277 211.973 167.211L213.726 166.803L217.956 162.667L220.507 158.049L224.214 158.474L224.985 164.339C225.083 165.513 224.721 166.679 223.976 167.59C223.23 168.502 222.16 169.089 220.99 169.226Z" fill="#FFB8B8"/>
<path d="M185.063 166.258L182.802 166.79C181.117 168.09 179.039 168.744 176.676 168.93C176.347 168.958 176.016 168.899 175.716 168.76C175.416 168.62 175.158 168.405 174.967 168.135C174.801 167.897 174.692 167.625 174.648 167.339C174.605 167.053 174.628 166.76 174.716 166.485C174.803 166.209 174.954 165.957 175.155 165.749C175.356 165.541 175.602 165.382 175.875 165.284L177.57 164.679L181.301 160.087L183.31 155.209H187.04L188.475 160.948C188.706 162.103 188.479 163.303 187.843 164.293C187.206 165.284 186.209 165.989 185.063 166.258Z" fill="#FFB8B8"/>
<path d="M183.209 155.533L187.428 156.182L194.081 122.594L205.602 102.96L219.557 160.077L224.749 161.05C224.167 128.886 227.009 88.3918 220.53 83.4882L192.296 86.7335L179.964 119.835L183.209 155.533Z" fill="#2F2E41"/>
<path d="M203.655 33.5109C209.031 33.5109 213.39 29.152 213.39 23.7751C213.39 18.3981 209.031 14.0392 203.655 14.0392C198.278 14.0392 193.919 18.3981 193.919 23.7751C193.919 29.152 198.278 33.5109 203.655 33.5109Z" fill="#FFB8B8"/>
<path d="M217.285 38.7034L205.602 40.6505L202.681 30.2655L211.119 27.6695L217.285 38.7034Z" fill="#FFB8B8"/>
<path d="M222.153 84.7863L190.998 87.707C193.496 79.0222 195.784 70.3679 193.919 61.7448C191.55 54.0465 193.836 49.4685 200.085 45.843L204.304 36.4317L215.662 35.1335C218.67 39.9698 219.901 45.7023 219.142 51.347C217.524 63.6216 217.961 75.0118 222.153 84.7863Z" fill="#E97125"/>
<path d="M203.436 12.2765C200.186 13.0189 196.488 14.0707 196.281 15.0483C192.938 15.8906 190.416 17.9081 189.9 20.9837C189.857 21.2496 189.873 21.5216 189.947 21.7807C190.02 22.0398 190.149 22.2796 190.326 22.4832C190.502 22.6869 190.721 22.8495 190.966 22.9595C191.212 23.0695 191.479 23.1242 191.748 23.1199C193.566 23.0965 196.295 22.9224 198.097 22.1698C203.331 25.5424 204.209 34.3143 201.924 40.2852L205.521 39.9555L209.242 29.0614L210.193 39.5273L218.401 38.4419L217.344 25.0961C217.019 21.9506 215.949 18.928 214.221 16.2791C214.042 16.0131 213.846 15.7589 213.634 15.5179C212.385 14.1071 210.778 13.0608 208.982 12.4901C207.186 11.9194 205.27 11.8456 203.436 12.2765Z" fill="#2F2E41"/>
<path d="M182.819 172.573C182.801 172.732 182.817 172.893 182.865 173.045C182.914 173.198 182.993 173.338 183.099 173.458C183.205 173.577 183.335 173.674 183.481 173.74C183.626 173.806 183.784 173.841 183.943 173.843L187.594 173.881C187.791 173.867 187.975 173.779 188.109 173.635C188.244 173.491 188.319 173.301 188.319 173.104C188.319 172.948 188.272 172.796 188.185 172.667C188.098 172.539 187.974 172.439 187.829 172.381L186.752 171.95L185.186 169.757H183.932C183.317 170.578 182.933 171.548 182.819 172.567L182.819 172.573H182.819Z" fill="#FFB8B8"/>
<path d="M174.08 172.573C174.098 172.732 174.082 172.893 174.034 173.045C173.986 173.198 173.906 173.338 173.8 173.458C173.694 173.577 173.564 173.674 173.419 173.74C173.273 173.806 173.116 173.841 172.956 173.843L169.305 173.881C169.108 173.867 168.924 173.779 168.79 173.635C168.655 173.491 168.581 173.301 168.581 173.104C168.581 172.948 168.627 172.796 168.714 172.667C168.802 172.539 168.925 172.439 169.07 172.381L170.147 171.95L171.714 169.757H172.967C173.582 170.578 173.966 171.548 174.08 172.567L174.08 172.573Z" fill="#FFB8B8"/>
<path d="M171.4 169.757H173.28L179.859 141.247L183.306 170.07H185.499L188.475 132.944L173.28 132.787L171.4 169.757Z" fill="#3F3D56"/>
<path d="M162.941 117.436H165.448V111.483L166.018 110.342C166.132 110.114 166.191 109.861 166.189 109.605C166.187 109.349 166.125 109.097 166.008 108.87C165.89 108.643 165.721 108.447 165.513 108.297C165.305 108.148 165.065 108.05 164.812 108.011C164.581 107.975 164.344 107.99 164.119 108.055C163.894 108.119 163.685 108.231 163.508 108.384C163.33 108.536 163.187 108.725 163.09 108.938C162.992 109.151 162.941 109.382 162.941 109.616V117.436Z" fill="#FFB8B8"/>
<path d="M177.823 102.71C181.024 102.71 183.619 100.115 183.619 96.9143C183.619 93.7132 181.024 91.1182 177.823 91.1182C174.622 91.1182 172.027 93.7132 172.027 96.9143C172.027 100.115 174.622 102.71 177.823 102.71Z" fill="#FFB8B8"/>
<path d="M175.473 106.783H181.426V99.8907H175.473V106.783Z" fill="#FFB8B8"/>
<path d="M172.653 133.727C177.922 136.979 183.493 136.661 189.258 134.041L188.005 104.904L181.426 104.59L174.533 105.53L171.087 108.35L172.653 133.727Z" fill="#E97125"/>
<path d="M166.387 123.388L173.28 118.062L171.087 108.35L167.014 115.869L165.761 114.616L162.001 117.436L166.387 123.388Z" fill="#E97125"/>
<path d="M196.983 105.404L194.791 106.619L191.905 101.412L190.854 100.691C190.643 100.547 190.469 100.354 190.346 100.13C190.224 99.9049 190.156 99.6545 190.149 99.3988C190.141 99.143 190.195 98.8892 190.304 98.6578C190.413 98.4265 190.576 98.2243 190.778 98.0677C190.963 97.9244 191.177 97.8228 191.405 97.7699C191.633 97.717 191.87 97.714 192.1 97.7612C192.329 97.8084 192.545 97.9047 192.734 98.0434C192.923 98.182 193.079 98.3599 193.193 98.5647L194.098 100.197L196.983 105.404Z" fill="#FFB8B8"/>
<path d="M184.716 114.146L193.034 109.73L197.404 107.41L198.031 103.65L195.211 100.831L191.765 103.024L192.078 105.53L188.005 104.904L184.716 114.146Z" fill="#E97125"/>
<path d="M179.076 101.614C182.883 101.614 185.969 98.5278 185.969 94.7211C185.969 90.9144 182.883 87.8285 179.076 87.8285C175.269 87.8285 172.183 90.9144 172.183 94.7211C172.183 98.5278 175.269 101.614 179.076 101.614Z" fill="#2F2E41"/>
<path d="M182.836 90.0217C184.566 90.0217 185.969 88.619 185.969 86.8886C185.969 85.1583 184.566 83.7556 182.836 83.7556C181.105 83.7556 179.703 85.1583 179.703 86.8886C179.703 88.619 181.105 90.0217 182.836 90.0217Z" fill="#2F2E41"/>
<path d="M182.684 89.5079C183.305 89.8322 184.017 89.9388 184.706 89.8108C185.395 89.6827 186.021 89.3274 186.484 88.8017C186.947 88.2759 187.22 87.6101 187.26 86.9106C187.3 86.2111 187.105 85.5184 186.705 84.9431C187.067 85.2156 187.366 85.5636 187.581 85.9629C187.795 86.3622 187.921 86.8033 187.948 87.2558C187.975 87.7083 187.904 88.1613 187.739 88.5836C187.575 89.0059 187.32 89.3874 186.993 89.7017C186.667 90.016 186.276 90.2556 185.847 90.404C185.419 90.5524 184.964 90.606 184.513 90.5611C184.061 90.5163 183.625 90.374 183.235 90.1441C182.844 89.9142 182.508 89.6023 182.25 89.2298C182.386 89.3343 182.532 89.4273 182.684 89.5079Z" fill="#2F2E41"/>
<path d="M202.032 94.5222L202.247 102.056C202.277 103.095 201.912 104.106 201.226 104.886C200.54 105.667 199.583 106.158 198.55 106.261C197.887 106.328 197.219 106.232 196.602 105.983C195.985 105.733 195.438 105.338 195.008 104.83C194.577 104.323 194.277 103.718 194.132 103.069C193.987 102.419 194.002 101.744 194.175 101.102L195.866 94.8467L200.734 68.2354L200.409 52.6581L210.794 52.3336L208.847 69.8581L202.032 94.5222Z" fill="#FFB8B8"/>
<path d="M211.443 53.9561C207.681 52.523 203.523 52.523 199.76 53.9561L200.409 40.975C200.409 39.5979 200.956 38.2772 201.93 37.3034C202.904 36.3296 204.225 35.7826 205.602 35.7826C206.979 35.7826 208.3 36.3296 209.273 37.3034C210.247 38.2772 210.794 39.5979 210.794 40.975L211.443 53.9561Z" fill="#E97125"/>
<path d="M20.9002 16.6178C20.9002 16.6178 27.8193 25.1146 27.5261 22.7405C27.3428 21.2494 28.2891 19.4284 29.0255 18.2772C29.4603 17.5924 29.8202 17.1443 29.8202 17.1443C29.8202 17.1443 25.5984 9.40549 25.3635 10.4601C25.2886 10.7933 24.8004 11.558 24.1723 12.431C22.8478 14.2603 20.9002 16.6178 20.9002 16.6178Z" fill="#FFC1C8"/>
<path d="M16.4168 84.1291C16.4307 84.3747 16.4613 84.6191 16.5085 84.8605C16.5085 84.8605 22.986 85.0921 26.3581 84.5923C27.2894 84.454 27.8159 84.1558 28.0775 83.7992C28.1942 83.6308 28.2666 83.4356 28.2879 83.2317C28.3091 83.0278 28.2786 82.8219 28.1991 82.633C28.1618 82.5244 28.1144 82.4195 28.0575 82.3198C27.8059 81.8799 27.4194 81.5684 27.2078 81.61C26.6213 81.7283 25.615 80.5255 25.615 80.5255C25.695 79.7907 24.5405 79.5258 24.3605 79.6458C24.3284 79.6705 24.2905 79.6865 24.2504 79.6922C24.2103 79.6979 24.1694 79.6932 24.1317 79.6784C24.0939 79.6637 24.0607 79.6394 24.0351 79.608C24.0095 79.5766 23.9925 79.5391 23.9857 79.4992C23.974 79.4442 23.9707 79.1793 23.9707 78.8694C23.9707 78.3529 23.9857 77.7032 23.9857 77.7032L17.4748 78.4946L17.2165 79.7391C16.98 80.8487 16.6501 82.3731 16.5085 82.8946C16.41 83.2982 16.3791 83.7153 16.4168 84.1291Z" fill="#474463"/>
<path opacity="0.1" d="M16.4169 84.1291C16.4308 84.3747 16.4614 84.6191 16.5085 84.8605C16.5085 84.8605 22.9861 85.0921 26.3582 84.5923C27.2895 84.454 27.8159 84.1558 28.0775 83.7992C27.2128 83.7476 26.0883 83.7193 25.3919 83.8892C24.3989 84.1358 18.4595 84.1358 16.4169 84.1291Z" fill="black"/>
<path d="M28.0641 82.3164C28.057 82.3766 28.0665 82.4375 28.0914 82.4927C28.1164 82.5479 28.1559 82.5952 28.2057 82.6297C29.0254 83.2628 32.9589 82.5747 32.9589 82.5747C32.9589 82.5747 40.9959 82.0749 42.1971 81.2552C42.3056 81.1839 42.3962 81.0887 42.462 80.9769C42.9619 80.074 41.1525 78.5579 40.9959 78.5579C40.8393 78.5579 38.6785 78.263 38.5335 78.2346C37.5339 78.0331 36.5343 77.4133 36.3677 77.5899C36.2011 77.7665 35.368 77.355 34.9615 77.2967C34.8133 77.275 34.7449 77.0651 34.72 76.7969C34.6965 76.4339 34.7088 76.0695 34.7566 75.7089L28.3373 77.4366L28.2807 78.4596L28.0958 81.8649L28.0724 82.2831C28.0684 82.2939 28.0656 82.3051 28.0641 82.3164Z" fill="#474463"/>
<path d="M30.9331 23.5869C30.9331 23.5869 35.7996 23.9967 36.7376 24.2899C37.6756 24.5831 41.7207 24.4065 42.0689 24.2899C42.4171 24.1733 49.3412 25.756 46.174 27.3388C43.0069 28.9215 41.0093 27.3388 41.0093 27.3388C41.0093 27.3388 36.9042 27.1039 35.8446 27.7503C34.785 28.3967 30.9198 28.0435 30.9198 28.0435L30.9331 23.5869Z" fill="#FFC1C8"/>
<path d="M24.0456 10.8033C24.0453 12.3343 24.499 13.8309 25.3493 15.1041C26.1996 16.3772 27.4084 17.3696 28.8228 17.9557C30.2371 18.5418 31.7935 18.6953 33.2951 18.3968C34.7967 18.0984 36.1761 17.3613 37.2588 16.2788C38.3415 15.1964 39.0788 13.8172 39.3776 12.3156C39.6764 10.8141 39.5232 9.25766 38.9374 7.84318C38.3516 6.42871 37.3595 5.21972 36.0866 4.36912C34.8136 3.51852 33.317 3.06451 31.7861 3.06451C30.7687 3.06076 29.7606 3.25836 28.8199 3.64593C27.8792 4.03349 27.0245 4.60336 26.305 5.32269C25.5855 6.04203 25.0155 6.89662 24.6277 7.83722C24.2399 8.77783 24.0421 9.78587 24.0456 10.8033Z" fill="#FFC1C8"/>
<path d="M18.3845 56.4812C18.736 57.4192 18.9126 57.5958 18.5594 58.0639C18.2062 58.5321 18.3845 60.9961 18.9443 61.2294C19.5041 61.4626 21.6099 62.8704 21.6099 62.8704C21.6099 62.8704 20.4437 64.3949 20.4087 65.0363C20.3781 65.4461 20.2196 65.836 19.9556 66.1509C19.9556 66.1509 18.1496 70.0211 17.7897 71.2523C17.4298 72.4835 17.1 74.4178 17.1 74.4178C17.1 74.4178 17.7314 76.1771 17.2949 77.1751C16.8584 78.173 17.2949 79.6375 17.2949 79.6375C17.2949 79.6375 23.5942 78.9927 24.2923 78.1647C24.9903 77.3367 24.5255 75.474 24.5255 75.474C24.6695 74.644 24.9678 73.8483 25.4052 73.1283C26.1099 72.0137 25.2386 70.8424 25.4052 70.7825C25.5718 70.7225 26.1099 70.0794 26.6397 69.0248C27.1695 67.9702 27.4994 68.3784 27.4994 68.3784C27.4994 68.3784 26.813 74.3012 27.4994 74.8293C28.1858 75.3574 28.2791 75.1225 28.1025 75.8289C27.9657 76.5069 27.8678 77.1922 27.8093 77.8815C27.8093 77.8815 29.9202 78.5262 30.9748 77.8815C32.0294 77.2367 33.6171 77.1184 35.0116 76.1221C36.4061 75.1258 34.3802 73.4248 34.0286 73.1899C33.6771 72.955 34.1452 69.5546 34.1452 69.5546L33.5521 65.2745C34.0719 63.985 34.708 61.7031 35.0012 61C35.2944 60.297 33.3739 56.4682 33.5521 56C33.7304 55.5319 32.7391 50.9033 32.7391 50.9033C32.8357 51.4414 32.5159 50.7467 32.7391 50.9033C32.6366 50.2682 32.1111 48.4458 32.0927 47.8028C32.0927 47.8028 18.6661 46.8648 16.4969 48.1543C15.5206 48.7341 15.5889 49.802 15.9971 50.8833C16.4969 52.2028 17.5232 53.5489 17.7814 54.0371C18.2662 54.9367 18.033 55.5432 18.3845 56.4812Z" fill="#575988"/>
<path d="M22.8411 15.4366C22.8411 15.4366 21.6749 14.0288 21.4333 14.5569C21.1917 15.085 19.8156 16.1396 19.8156 16.1396C19.8156 16.1396 19.4207 17.3708 18.726 17.5474C18.0312 17.724 12.8132 24.7597 12.8132 24.7597L14.6908 28.57L16.2153 37.8348C16.2153 37.8348 16.1486 39.3009 16.5635 39.8341C16.9783 40.3672 18.5627 40.2439 17.828 40.8887C17.0933 41.5334 16.0387 42.1199 15.4522 45.0538C14.8658 47.9877 14.1627 49.6854 14.1627 49.6854C14.1627 49.6854 19.674 51.0932 20.2604 51.7379C20.8468 52.3827 22.8411 48.1026 22.8411 48.1026C22.8411 48.1026 22.7228 51.3198 25.3618 49.9753C28.0008 48.6308 32.5158 49.0406 32.5158 49.0406V45.5752C32.5158 45.5752 31.6361 44.2258 32.1043 43.2878C32.5724 42.3498 31.7844 40.5905 31.7844 40.5905C31.7844 40.5905 32.046 38.7728 32.5158 37.7182C32.9856 36.6636 32.809 31.6788 32.809 31.6788C32.809 31.6788 33.1656 28.4533 32.8407 26.8106C32.565 25.3868 32.0781 24.0121 31.3962 22.7322C30.7515 21.476 30.3433 20.3031 30.5182 19.8332C30.6932 19.3634 28.9705 18.3471 28.9705 18.3471L28.0158 19.8916L27.7726 20.8145C27.7726 20.8145 22.7228 17.1959 22.8411 15.4366Z" fill="#CCCCCC"/>
<path d="M13.5012 23.5C13.5012 23.5 11.1188 26.8106 10.7673 27.3388C10.4157 27.8669 9.23786 30.6125 10.7623 31.4455C12.2867 32.2786 18.2595 33.5631 18.8526 33.1199C19.4457 32.6767 23.0177 33.6197 23.0177 33.6197C23.0177 33.6197 28.9921 35.0858 27.7026 32.6817C26.4131 30.2776 23.3626 30.6825 23.3626 30.6825C23.3626 30.6825 17.0277 29.9915 16.5012 29.5C12.9959 28.3173 15.6016 28.1725 16.5012 26C17.4009 23.8275 13.5012 23.5 13.5012 23.5Z" fill="#FFC1C8"/>
<path d="M37.3374 11.538C37.7522 11.688 38.2037 12.0295 38.1221 12.4627C38.0758 12.6219 38.0031 12.7723 37.9072 12.9075C37.4207 13.7755 37.8322 15.0217 38.7402 15.4249C38.8825 15.499 39.0451 15.5248 39.2033 15.4982C39.3288 15.4592 39.4431 15.3907 39.5365 15.2983C40.0249 14.8618 40.3616 14.2812 40.4978 13.6406C40.6411 12.9741 40.5528 12.2677 40.6261 11.583C40.6994 10.8983 40.9344 10.2235 41.016 9.53377C41.0738 9.19286 41.0375 8.84264 40.911 8.52081C40.8011 8.30847 40.6596 8.1141 40.4912 7.94437C40.023 7.42289 39.5349 6.88976 39.3 6.22834C38.9284 5.17541 39.1983 3.83424 38.3853 3.06287C38.0088 2.70967 37.4823 2.57805 37.0158 2.3548C36.5766 2.12161 36.156 1.8548 35.758 1.55676C34.2502 0.520486 32.4175 -0.275884 30.6249 0.0906446C29.9087 0.264058 29.2228 0.544914 28.5906 0.923665C27.4165 1.57093 26.3015 2.32021 25.2586 3.16282C24.8076 3.4964 24.4137 3.90095 24.0923 4.36071C23.8529 4.75435 23.6806 5.18506 23.5825 5.63523C23.3431 6.6174 23.3102 7.63856 23.4859 8.6341C23.6525 9.6104 24.0307 10.5584 24.0457 11.5497C24.0457 11.8829 24.019 12.2428 24.1906 12.5293C24.4655 12.9858 25.1469 13.0291 25.6134 12.7759C26.0799 12.5226 26.3848 12.0528 26.6864 11.6097C26.9879 11.1665 27.3345 10.7233 27.8309 10.5351C28.459 10.2968 29.1754 10.5351 29.7219 10.9266C30.2684 11.3181 30.7032 11.8396 31.2213 12.2594C31.7395 12.6793 32.3876 13.0191 33.054 12.9158C33.4788 12.8509 33.8553 12.6126 34.2202 12.381C34.72 12.0645 35.2565 11.5747 35.8029 11.3647C36.3494 11.1548 36.8176 11.538 37.3374 11.538Z" fill="#794F6A"/>
</svg>
