<svg width="227" height="273" viewBox="0 0 227 273" fill="none" xmlns="http://www.w3.org/2000/svg">
<path d="M133 221L164 221" stroke="#E97125" stroke-width="2"/>
<path d="M75 187L106 187" stroke="#E97125" stroke-width="2"/>
<path d="M104 204L135 204" stroke="#E97125" stroke-width="2"/>
<path d="M46 170L77 170" stroke="#E97125" stroke-width="2"/>
<path d="M163 220V228.815V237" stroke="#E97125" stroke-width="2"/>
<path d="M105 186V194.815V203" stroke="#E97125" stroke-width="2"/>
<path d="M47 152V160.815V169" stroke="#E97125" stroke-width="2"/>
<path d="M134 203V211.815V220" stroke="#E97125" stroke-width="2"/>
<path d="M76 169V177.815V186" stroke="#E97125" stroke-width="2"/>
<path d="M66.9943 259C66.7088 257.393 65.3963 256.153 63.5384 256.153C61.3352 256.153 59.767 257.905 59.767 260.636C59.767 263.368 61.3352 265.119 63.5384 265.119C65.3963 265.119 66.7088 263.875 66.9943 262.273H66.1932C65.9503 263.47 64.9062 264.369 63.5384 264.369C61.8849 264.369 60.5384 263.061 60.5384 260.636C60.5384 258.22 61.8849 256.903 63.5384 256.903C64.9062 256.903 65.9503 257.807 66.1932 259H66.9943ZM76.021 260.636C76.021 257.905 74.4528 256.153 72.2454 256.153C70.0423 256.153 68.4741 257.909 68.4741 260.636C68.4741 263.364 70.038 265.119 72.2454 265.119C74.4528 265.119 76.021 263.368 76.021 260.636ZM75.2454 260.636C75.2496 262.984 73.967 264.369 72.2454 264.369C70.5195 264.369 69.2454 262.976 69.2454 260.636C69.2454 258.284 70.5323 256.903 72.2454 256.903C73.967 256.903 75.2454 258.288 75.2454 260.636ZM77.9482 256.273V265H78.6982V257.956H78.7663L81.7109 265H82.4354L85.38 257.956H85.4482V265H86.1982V256.273H85.2777L82.1115 263.875H82.0348L78.8686 256.273H77.9482ZM88.5185 265H89.3153V261.663H91.348C93.1932 261.663 94.1477 260.491 94.1477 258.966C94.1477 257.44 93.1932 256.273 91.3352 256.273H88.5185V265ZM89.3153 260.947V256.989H91.3139C92.6946 256.989 93.3636 257.82 93.3636 258.966C93.3636 260.108 92.6946 260.947 91.3267 260.947H89.3153ZM96.0185 265H96.8153V261.472H98.848C98.9631 261.472 99.0739 261.467 99.1804 261.459L101.094 265H102.014L99.9986 261.305C101.085 260.947 101.648 260.053 101.648 258.885C101.648 257.359 100.689 256.273 98.8352 256.273H96.0185V265ZM96.8153 260.743V256.989H98.8139C100.195 256.989 100.864 257.743 100.864 258.885C100.864 260.027 100.195 260.743 98.8267 260.743H96.8153ZM104.386 256.273H103.589V265H104.386V256.273ZM106.706 256.273V265H107.456V257.956H107.524L110.469 265H111.193L114.138 257.956H114.206V265H114.956V256.273H114.036L110.869 263.875H110.793L107.626 256.273H106.706ZM117.276 265H122.424V264.284H118.073V260.99H122.07V260.274H118.073V256.989H122.339V256.273H117.276V265ZM131.198 256.273H130.414V263.589H130.346L125.173 256.273H124.401V265H125.198V257.692H125.266L130.423 265H131.198V256.273ZM132.99 256.989H135.756V265H136.553V256.989H139.318V256.273H132.99V256.989ZM147.904 260.636C147.904 257.905 146.336 256.153 144.128 256.153C141.925 256.153 140.357 257.909 140.357 260.636C140.357 263.364 141.921 265.119 144.128 265.119C146.336 265.119 147.904 263.368 147.904 260.636ZM147.128 260.636C147.132 262.984 145.85 264.369 144.128 264.369C142.402 264.369 141.128 262.976 141.128 260.636C141.128 258.284 142.415 256.903 144.128 256.903C145.85 256.903 147.128 258.288 147.128 260.636Z" fill="#898A8D"/>
<path d="M155.159 215H160.307V214.284H155.956V210.99H159.953V210.274H155.956V206.989H160.222V206.273H155.159V215ZM167.023 208.455H167.794C167.734 207.129 166.588 206.149 164.964 206.149C163.354 206.149 162.114 207.116 162.114 208.523C162.114 209.643 162.906 210.347 164.274 210.751L165.318 211.058C166.401 211.374 167.142 211.778 167.142 212.669C167.142 213.717 166.192 214.42 164.888 214.42C163.712 214.42 162.791 213.854 162.706 212.818H161.888C161.982 214.199 163.107 215.149 164.888 215.149C166.78 215.149 167.913 214.08 167.913 212.682C167.913 211.233 166.652 210.653 165.544 210.342L164.624 210.078C163.776 209.839 162.885 209.409 162.885 208.489C162.885 207.551 163.724 206.865 164.943 206.865C166.098 206.865 166.925 207.483 167.023 208.455ZM169.831 215H170.628V211.663H172.661C174.506 211.663 175.46 210.491 175.46 208.966C175.46 207.44 174.506 206.273 172.648 206.273H169.831V215ZM170.628 210.947V206.989H172.626C174.007 206.989 174.676 207.82 174.676 208.966C174.676 210.108 174.007 210.947 172.639 210.947H170.628ZM177.331 215H182.479V214.284H178.128V210.99H182.125V210.274H178.128V206.989H182.393V206.273H177.331V215ZM184.456 215H189.412V214.284H185.253V206.273H184.456V215ZM191.206 215H192.003V210.99H196.955V215H197.751V206.273H196.955V210.274H192.003V206.273H191.206V215ZM207.22 210.636C207.22 207.905 205.652 206.153 203.445 206.153C201.241 206.153 199.673 207.909 199.673 210.636C199.673 213.364 201.237 215.119 203.445 215.119C205.652 215.119 207.22 213.368 207.22 210.636ZM206.445 210.636C206.449 212.984 205.166 214.369 203.445 214.369C201.719 214.369 200.445 212.976 200.445 210.636C200.445 208.284 201.732 206.903 203.445 206.903C205.166 206.903 206.445 208.288 206.445 210.636Z" fill="#898A8D"/>
<path d="M107.159 182H107.956V178.663H109.989C111.834 178.663 112.788 177.491 112.788 175.966C112.788 174.44 111.834 173.273 109.976 173.273H107.159V182ZM107.956 177.947V173.989H109.955C111.335 173.989 112.004 174.82 112.004 175.966C112.004 177.108 111.335 177.947 109.967 177.947H107.956ZM115.456 173.273H114.659V182H115.456V173.273ZM122.515 175.455H123.286C123.227 174.129 122.08 173.149 120.457 173.149C118.846 173.149 117.606 174.116 117.606 175.523C117.606 176.643 118.398 177.347 119.766 177.751L120.81 178.058C121.893 178.374 122.634 178.778 122.634 179.669C122.634 180.717 121.684 181.42 120.38 181.42C119.204 181.42 118.283 180.854 118.198 179.818H117.38C117.474 181.199 118.599 182.149 120.38 182.149C122.272 182.149 123.406 181.08 123.406 179.682C123.406 178.233 122.144 177.653 121.036 177.342L120.116 177.078C119.268 176.839 118.377 176.409 118.377 175.489C118.377 174.551 119.217 173.865 120.435 173.865C121.59 173.865 122.417 174.483 122.515 175.455ZM132.478 177.636C132.478 174.905 130.91 173.153 128.702 173.153C126.499 173.153 124.931 174.909 124.931 177.636C124.931 180.364 126.495 182.119 128.702 182.119C130.91 182.119 132.478 180.368 132.478 177.636ZM131.702 177.636C131.707 179.984 130.424 181.369 128.702 181.369C126.977 181.369 125.702 179.976 125.702 177.636C125.702 175.284 126.989 173.903 128.702 173.903C130.424 173.903 131.702 175.288 131.702 177.636Z" fill="#898A8D"/>
<mask maskUnits="userSpaceOnUse" x="0" y="0" width="0" height="0" fill="black">
<rect fill="white" width="0" height="0"/>
</mask>
<path d="M106.146 190.146C105.951 190.342 105.951 190.658 106.146 190.854L109.328 194.036C109.524 194.231 109.84 194.231 110.036 194.036C110.231 193.84 110.231 193.524 110.036 193.328L107.207 190.5L110.036 187.672C110.231 187.476 110.231 187.16 110.036 186.964C109.84 186.769 109.524 186.769 109.328 186.964L106.146 190.146ZM134.854 190.854C135.049 190.658 135.049 190.342 134.854 190.146L131.672 186.964C131.476 186.769 131.16 186.769 130.964 186.964C130.769 187.16 130.769 187.476 130.964 187.672L133.793 190.5L130.964 193.328C130.769 193.524 130.769 193.84 130.964 194.036C131.16 194.231 131.476 194.231 131.672 194.036L134.854 190.854ZM106.5 191H134.5V190H106.5V191Z" fill="#898A8D" mask="url(#)"/>
<mask maskUnits="userSpaceOnUse" x="0" y="0" width="0" height="0" fill="black">
<rect fill="white" width="0" height="0"/>
</mask>
<path d="M146.854 203.146C146.658 202.951 146.342 202.951 146.146 203.146L142.964 206.328C142.769 206.524 142.769 206.84 142.964 207.036C143.16 207.231 143.476 207.231 143.672 207.036L146.5 204.207L149.328 207.036C149.524 207.231 149.84 207.231 150.036 207.036C150.231 206.84 150.231 206.524 150.036 206.328L146.854 203.146ZM146.146 219.854C146.342 220.049 146.658 220.049 146.854 219.854L150.036 216.672C150.231 216.476 150.231 216.16 150.036 215.964C149.84 215.769 149.524 215.769 149.328 215.964L146.5 218.793L143.672 215.964C143.476 215.769 143.16 215.769 142.964 215.964C142.769 216.16 142.769 216.476 142.964 216.672L146.146 219.854ZM146 203.5L146 219.5L147 219.5L147 203.5L146 203.5Z" fill="#898A8D" mask="url(#)"/>
<path d="M45.6464 247.646C45.4512 247.842 45.4512 248.158 45.6464 248.354L48.8284 251.536C49.0237 251.731 49.3403 251.731 49.5355 251.536C49.7308 251.34 49.7308 251.024 49.5355 250.828L46.7071 248L49.5355 245.172C49.7308 244.976 49.7308 244.66 49.5355 244.464C49.3403 244.269 49.0237 244.269 48.8284 244.464L45.6464 247.646ZM162.354 248.354C162.549 248.158 162.549 247.842 162.354 247.646L159.172 244.464C158.976 244.269 158.66 244.269 158.464 244.464C158.269 244.66 158.269 244.976 158.464 245.172L161.293 248L158.464 250.828C158.269 251.024 158.269 251.34 158.464 251.536C158.66 251.731 158.976 251.731 159.172 251.536L162.354 248.354ZM46 248.5H162V247.5H46V248.5Z" fill="#898A8D"/>
<line x1="46.25" y1="173.25" x2="46.25" y2="237.75" stroke="#B7B7B8" stroke-width="0.5" stroke-linecap="round" stroke-dasharray="2 2"/>
<path d="M162 238L210 238" stroke="#898A8D" stroke-width="2"/>
<path d="M0 152L48 152" stroke="#898A8D" stroke-width="2"/>
<path d="M29.4154 120.416L18.0873 137.213L28.6341 147.76L30.0013 145.026L27.6576 139.557C27.6576 139.557 28.0482 134.479 29.4154 133.112C30.7825 131.744 36.8372 123.541 36.8372 123.541L29.4154 120.416Z" fill="#FFB8B8"/>
<path d="M40.3504 82.3894C40.3504 82.3894 38.6569 84.8869 42.1984 95.6478C42.1984 95.6478 25.6795 121.627 28.2971 123.349C30.9147 125.07 37.9982 128.881 39.8459 127.733C41.6936 126.585 55.1321 87.6981 55.1321 87.6981L40.3504 82.3894Z" fill="#2F2E41"/>
<path d="M20.138 134.186L16.72 137.604C14.9622 139.362 13.7903 141.901 17.1106 144.049C20.4309 146.197 31.9543 154.205 35.8606 151.666C39.7668 149.127 31.1731 146.783 31.1731 146.783C31.1731 146.783 29.7521 141.515 28.9978 142.684C28.2434 143.854 28.2434 146.197 28.2434 146.197L20.138 134.186Z" fill="#2F2E41"/>
<path d="M51 145.923C51 145.923 57.2857 158.53 57.2857 160.026C57.2857 161.521 56.8929 165.795 56.8929 165.795L68.875 169L73 166.863L71.625 163.017C71.625 163.017 64.1607 160.239 62.5893 154.897C61.0179 149.556 59.25 144 59.25 144L51 145.923Z" fill="#FFB8B8"/>
<path d="M48.9195 24.1054C44.389 24.1054 40.7164 20.4328 40.7164 15.9023C40.7164 11.3719 44.389 7.69922 48.9195 7.69922C53.4499 7.69922 57.1226 11.3719 57.1226 15.9023C57.1226 20.4328 53.4499 24.1054 48.9195 24.1054Z" fill="#FFB8B8"/>
<path d="M51.0679 22.9336L47.1516 34.1865L38.568 30.3554C38.568 30.3554 44.4273 21.3711 44.4273 20.1992L51.0679 22.9336Z" fill="#FFB8B8"/>
<path d="M51.8214 63.0001H41.4655C41.4655 63.0001 34.0405 75.6459 38.3392 88.9457C38.9975 90.9824 39.6509 93.8353 40.3032 97.2083C41.8032 104.965 43.2966 115.473 44.8271 125.128C46.9769 138.691 49.1996 150.572 51.6161 150.788C56.501 151.224 66 151.151 66 148.971C66 146.791 59.6372 83.713 59.6372 83.713L58.2695 81.0966L58.0109 69.7001C57.9701 67.9017 57.2992 66.1928 56.142 64.9401C54.9848 63.6875 53.4336 62.991 51.8214 63.0001L51.8214 63.0001Z" fill="#2F2E41"/>
<path d="M56.8351 160C56.8351 160 54.49 164.025 55.1018 166.915C55.7136 169.805 56.7332 169.392 61.2195 169.805C65.7058 170.217 81 170.217 81 167.328C81 164.438 69.0692 160.685 69.0189 161.839C68.9685 162.993 68.5607 165.264 69.7842 165.676C71.0078 166.089 69.8862 165.78 69.8862 165.78L56.8351 160Z" fill="#2F2E41"/>
<path d="M55.9781 86.3311C55.9781 86.3311 58.3272 100.031 63.5126 95.3108C68.698 90.5904 60.0603 84.0273 60.0603 84.0273L55.9781 86.3311Z" fill="#FFB8B8"/>
<path d="M39.7563 69.078C39.484 69.2008 39.1833 69.2472 38.8866 69.2121C38.5899 69.1769 38.3084 69.0617 38.0723 68.8787C37.7295 68.6096 37.5012 68.2208 37.4333 67.7904C36.6141 63.0672 35.6165 49.9734 35.042 43.3523C34.3211 35.0442 37.9222 28.6093 37.9524 28.5702L40.0745 25.6522C40.295 25.3473 40.6121 25.126 40.9743 25.0244C41.3365 24.9227 41.7225 24.9467 42.0693 25.0923C42.0693 25.0923 48.6946 31.9661 48.719 32.2315C48.8229 33.3711 49.6114 35.8966 53.7214 40.0066C58.2183 44.5035 58.2433 48.4284 58.1438 49.5242C58.1372 49.5963 58.1339 49.6683 58.1337 49.7402C58.1422 50.2318 58.0754 50.7219 57.9357 51.1933C56.0521 57.1316 57.5271 64.241 59.8959 71.6621C59.9856 71.9974 59.969 72.3523 59.8481 72.6777C59.7272 73.0031 59.5082 73.2829 59.2212 73.4783C58.5295 73.949 59.3591 73.2506 59.1123 73.553C57.4798 75.5534 55.1305 72.7654 52.4433 69.7233C51.5071 68.6635 50.4461 67.4624 49.1956 66.2119C47.4764 64.4926 44.1912 68.416 42.6638 68.416C41.6587 68.4281 40.6676 68.6538 39.7563 69.078Z" fill="#E97125"/>
<path d="M37.7837 32.2343C37.7837 32.2343 33.9109 36.2965 36.8428 40.6971C39.7748 45.0977 39.828 48.5734 39.828 48.5734C39.828 48.5734 43.9688 80.5494 51.3704 78.1665L55.8517 87.2994L61.8269 84.3759L57.3153 76.3814C57.3153 76.3814 60.1766 75.888 59.1207 74.017C58.3791 72.7028 53.5617 58.0893 50.7598 49.5068C49.5724 45.8697 48.747 43.3157 48.747 43.3157C48.747 43.3157 44.867 30.4795 37.7837 32.2343Z" fill="#E97125"/>
<path opacity="0.2" d="M38.6656 48.617L42.7803 64.0905L39.6509 47.4069L38.6656 48.617Z" fill="black"/>
<path d="M57.8693 12.2677C57.8693 12.2677 59.2484 1.53493 47.9959 5.05445C47.9959 5.05445 39.9593 3.57985 37.3237 13.6324L34.6551 24.17L35.9557 23.4621L36.562 24.7875L38.6695 25.3212L39.5714 23.5312L40.0076 25.7049L57.2693 27.4258C57.2693 27.4258 49.5382 22.8536 49.4156 14.6592L50.8882 16.2154L57.8693 12.2677Z" fill="#2F2E41"/>
<path opacity="0.2" d="M45.0325 119.244L41.1833 93.5964L44.3138 121.284L45.0325 119.244Z" fill="black"/>
<path d="M38.7419 9.50002C36.3448 9.50002 34.4015 7.55672 34.4015 5.15955C34.4015 2.76238 36.3448 0.819092 38.7419 0.819092C41.1391 0.819092 43.0824 2.76238 43.0824 5.15955C43.0824 7.55672 41.1391 9.50002 38.7419 9.50002Z" fill="#2F2E41"/>
<path d="M43.2144 4.09698C43.1431 2.99574 42.6547 1.9631 41.8486 1.20938C41.0426 0.455661 39.9795 0.0375499 38.876 0.0402029C38.9656 0.0288309 39.0544 0.0150086 39.1458 0.00913267C39.7149 -0.0278396 40.2856 0.047683 40.8255 0.231381C41.3653 0.415078 41.8637 0.70335 42.2921 1.07973C42.7204 1.4561 43.0705 1.91321 43.3221 2.42492C43.5738 2.93663 43.7222 3.49291 43.7588 4.06198C43.7953 4.63105 43.7194 5.20175 43.5354 5.74147C43.3513 6.28119 43.0627 6.77936 42.686 7.20749C42.3094 7.63563 41.852 7.98535 41.3401 8.23667C40.8283 8.48798 40.2719 8.63597 39.7028 8.67217C39.6114 8.67805 39.5215 8.6757 39.4312 8.67591C40.526 8.53723 41.5267 7.98643 42.2296 7.13569C42.9325 6.28496 43.2847 5.19828 43.2144 4.09698Z" fill="#2F2E41"/>
<path d="M49.593 18.4522C48.8439 18.4522 48.2366 17.602 48.2366 16.5532C48.2366 15.5045 48.8439 14.6543 49.593 14.6543C50.3421 14.6543 50.9494 15.5045 50.9494 16.5532C50.9494 17.602 50.3421 18.4522 49.593 18.4522Z" fill="#FFB8B8"/>
<path opacity="0.2" d="M52.3058 52.0907L58.3217 72.0237L50.9494 50.087L52.3058 52.0907Z" fill="black"/>
</svg>
