<svg width="201" height="290" viewBox="0 0 201 290" fill="none" xmlns="http://www.w3.org/2000/svg">
<line x1="1" y1="116.211" x2="41.3021" y2="116.211" stroke="#898A8D" stroke-width="2"/>
<line x1="39.2871" y1="146.438" x2="79.5892" y2="146.438" stroke="#FFAB07" stroke-width="2"/>
<line x1="77.574" y1="176.665" x2="117.876" y2="176.665" stroke="#FFAB07" stroke-width="2"/>
<line x1="115.861" y1="206.891" x2="156.163" y2="206.891" stroke="#FFAB07" stroke-width="2"/>
<line x1="154.148" y1="237.118" x2="194.45" y2="237.118" stroke="#898A8D" stroke-width="2"/>
<line x1="116.861" y1="179.68" x2="116.861" y2="203.861" stroke="#FFAB07" stroke-width="2"/>
<line x1="40.2871" y1="119.227" x2="40.2871" y2="143.408" stroke="#FFAB07" stroke-width="2"/>
<line x1="78.574" y1="149.453" x2="78.574" y2="173.634" stroke="#FFAB07" stroke-width="2"/>
<line x1="155.148" y1="209.906" x2="155.148" y2="234.088" stroke="#FFAB07" stroke-width="2"/>
<path d="M33.8969 17.9133C35.1305 18.0421 36.3686 17.7141 37.376 16.9915C38.3725 16.2698 39.2198 15.3623 39.8711 14.3191C41.018 12.5918 41.845 10.6729 42.3128 8.65368C42.6995 9.11774 43.2056 9.46778 43.7766 9.66616C44.3476 9.86453 44.9619 9.90374 45.5536 9.77956C47.4841 9.3468 48.6418 7.09775 48.2652 5.15826C47.8887 3.21877 46.2952 1.68111 44.4767 0.902703C42.6583 0.124299 40.6317 -0.00428155 38.6532 0.000106384C37.3486 0.00300717 36.019 0.0637497 34.7935 0.510542C33.568 0.957335 32.4453 1.84782 32.01 3.07584C31.737 3.84573 31.7459 4.69789 31.4356 5.45353C30.8722 6.82535 29.4109 7.57448 28.0394 8.14288C26.668 8.71128 25.177 9.2885 24.3683 10.532C23.455 11.9362 23.7186 13.8959 24.725 15.2351C25.7314 16.5743 27.3479 17.3508 28.9928 17.6755C30.6378 18.0002 32.3325 17.9199 34.0073 17.8383" fill="#2F2E41"/>
<path d="M18.9242 106.168L13.5192 103.827L16.452 97.7997L20.8169 100.35L18.9242 106.168Z" fill="#EAB584"/>
<path d="M38.9189 75.2625L33.6986 85.8651L24.4863 104.578L14.9882 100.02L25.4732 75.5087L25.5028 72.4232L25.5966 62.8219L38.9189 75.2625Z" fill="#2F2E41"/>
<path d="M53.7215 101.375L48.1705 103.346L46.1968 96.9408L51.131 95.8324L53.7215 101.375Z" fill="#EAB584"/>
<path d="M52.4879 45.5778L35.7117 40.7741L40.6459 37.4484L53.5981 41.5131L59.4548 42.9166C59.8686 43.0158 60.2554 43.2048 60.5876 43.4703C60.9199 43.7358 61.1894 44.0712 61.3771 44.4526C61.5647 44.8339 61.6658 45.2519 61.6731 45.6768C61.6805 46.1016 61.594 46.5229 61.4197 46.9105C61.2561 47.2744 61.0188 47.6006 60.7227 47.8684C60.4267 48.1362 60.0784 48.34 59.6996 48.4668C59.3209 48.5937 58.9199 48.6408 58.5221 48.6054C58.1242 48.5699 57.7379 48.4526 57.3877 48.2608L52.4879 45.5778Z" fill="#EAB584"/>
<path d="M41.756 37.5716L34.9716 41.5131C34.3729 36.5839 37.3244 27.8094 41.0159 18.2334C42.0969 19.0151 42.9453 20.0749 43.4707 21.3C43.996 22.5251 44.1787 23.8696 43.9992 25.1902L41.756 37.5716Z" fill="#F0F0F0"/>
<path d="M12.5211 47.4254L12.3784 52.4813C12.366 52.9215 12.2539 53.353 12.0506 53.7437C11.8473 54.1344 11.558 54.4741 11.2044 54.7372C10.8509 55.0003 10.4422 55.18 10.0092 55.2629C9.57613 55.3458 9.1299 55.3296 8.70397 55.2157C8.29377 55.106 7.91247 54.9083 7.58666 54.6363C7.26084 54.3643 6.99835 54.0247 6.81749 53.641C6.63663 53.2574 6.54176 52.839 6.53947 52.4149C6.53718 51.9909 6.62754 51.5715 6.80426 51.1859L8.69706 47.0559L14.6181 33.0141L18.6888 34.4922L12.5211 47.4254Z" fill="#EAB584"/>
<path d="M40.0908 13.2449C43.0202 13.2449 45.395 10.8736 45.395 7.94849C45.395 5.02335 43.0202 2.65206 40.0908 2.65206C37.1613 2.65206 34.7865 5.02335 34.7865 7.94849C34.7865 10.8736 37.1613 13.2449 40.0908 13.2449Z" fill="#EAB584"/>
<path d="M39.9058 19.0957L33.7381 16.1396L36.8218 9.24186L42.0029 10.2272L39.9058 19.0957Z" fill="#EAB584"/>
<path d="M35.9584 44.0997L23.3762 41.0204L25.9028 17.8943C26.0186 16.8344 26.5465 15.8622 27.373 15.187C28.1994 14.5118 29.2583 14.1876 30.3217 14.2841L34.4781 14.6614L40.1524 17.248L42.2495 19.4651L41.6096 22.1975C42.2061 27.8252 41.7463 32.7086 38.4696 35.6065L35.9584 44.0997Z" fill="#F0F0F0"/>
<path d="M19.9223 35.3545L13.3845 33.63L22.1496 19.1342C23.0696 17.6128 24.4043 16.3842 25.9976 15.5922C27.591 14.8001 29.3773 14.4773 31.1476 14.6614L27.817 25.6238C24.7376 27.9441 22.1505 31.2792 19.9223 35.3545Z" fill="#F0F0F0"/>
<path opacity="0.2" d="M38.9189 75.2624L33.6985 85.8652C30.7467 81.3201 27.8984 76.8058 25.5029 72.4233L25.5966 62.822L38.9189 75.2624Z" fill="black"/>
<path d="M53.9682 96.4482L43.9765 99.4043C31.8097 79.6812 14.3878 58.4261 21.1558 44.2229L23.6229 38.4338L36.4518 42.3753L37.192 57.6487L45.0867 69.966L53.9682 96.4482Z" fill="#2F2E41"/>
<path d="M58.8708 109.859L49.9911 109.772C49.1465 109.766 48.3383 109.427 47.743 108.829C47.1477 108.231 46.8136 107.421 46.8136 106.578V102.158C46.813 101.998 46.8501 101.84 46.9219 101.697C46.9937 101.554 47.0982 101.43 47.227 101.335C47.3557 101.24 47.5051 101.176 47.6631 101.149C47.821 101.122 47.9831 101.133 48.1361 101.18C49.74 101.694 51.0532 101.523 52.0435 100.592C52.6371 100.034 52.7064 99.9222 53.4131 100.328L57.4221 104.701L59.048 104.806C59.6576 104.845 60.2324 105.103 60.6666 105.532C61.1008 105.961 61.3651 106.532 61.4108 107.14C61.437 107.489 61.3906 107.839 61.2746 108.168C61.1587 108.498 60.9756 108.8 60.737 109.055C60.4984 109.31 60.2094 109.514 59.8882 109.652C59.567 109.79 59.2206 109.861 58.8708 109.859Z" fill="#2F2E41"/>
<path d="M16.8261 115.803L10.6089 109.472C10.0156 108.872 9.68411 108.061 9.68688 107.218C9.68964 106.375 10.0264 105.566 10.6237 104.97L13.7538 101.845C13.8666 101.731 14.0046 101.646 14.1566 101.595C14.3087 101.545 14.4705 101.531 14.6289 101.554C14.7874 101.578 14.938 101.639 15.0687 101.731C15.1994 101.824 15.3064 101.946 15.381 102.087C16.1516 103.583 17.2012 104.389 18.5605 104.43C19.3754 104.455 19.5038 104.424 19.716 105.21L19.4543 111.133L20.5298 112.355C20.9331 112.813 21.1569 113.401 21.1601 114.011C21.1633 114.621 20.9456 115.212 20.5471 115.674C20.319 115.939 20.0384 116.154 19.7231 116.305C19.4077 116.456 19.0644 116.54 18.7149 116.552C18.3653 116.565 18.017 116.504 17.6919 116.375C17.3668 116.246 17.072 116.051 16.8261 115.803Z" fill="#2F2E41"/>
<path d="M39.8768 6.71264C40.6031 7.86643 41.6824 8.75585 42.9547 9.24909C43.8559 9.59559 44.9993 9.68168 45.6756 8.9935C46.1656 8.49499 46.2632 7.72776 46.1937 7.03277C45.9767 4.86344 44.3439 2.97438 42.318 2.16156C40.292 1.34874 37.9532 1.52642 35.9314 2.34934C34.0238 3.12576 32.2121 4.71639 32.1095 6.77079C32.0569 7.82362 32.4387 8.98292 31.8727 9.87273C31.4464 10.5429 30.6231 10.8152 29.8856 11.112C29.1481 11.4088 28.3567 11.8771 28.2053 12.6565C28.1685 12.9246 28.1953 13.1976 28.2835 13.4535C28.3717 13.7094 28.5188 13.941 28.7131 14.1297C29.1052 14.5036 29.5692 14.7941 30.0771 14.9836C31.2797 15.495 32.6036 15.8138 33.8957 15.6161C35.1877 15.4184 36.4371 14.6327 36.9428 13.4292C37.3322 12.5023 37.2524 11.4564 37.2074 10.4522C37.1625 9.44813 37.1761 8.37872 37.713 7.52853C38.25 6.67833 39.4965 6.20236 40.2989 6.80926" fill="#2F2E41"/>
<path d="M102 159H84" stroke="#979797" stroke-linecap="round"/>
<path d="M117 159H99" stroke="#979797" stroke-linecap="round"/>
<path d="M98 159H80" stroke="#979797" stroke-linecap="round"/>
<path d="M86 153L80 159L86 165" stroke="#979797" stroke-linecap="round"/>
<path d="M99 159H117" stroke="#979797" stroke-linecap="round"/>
<path d="M111 165L117 159L111 153" stroke="#979797" stroke-linecap="round"/>
<path d="M131 193.75L131 180.25" stroke="#979797" stroke-linecap="round"/>
<path d="M131 205L131 191.5" stroke="#979797" stroke-linecap="round"/>
<path d="M131 190.75L131 177.25" stroke="#979797" stroke-linecap="round"/>
<path d="M137 181.75L131 177.25L125 181.75" stroke="#979797" stroke-linecap="round"/>
<path d="M131 191.5L131 205" stroke="#979797" stroke-linecap="round"/>
<path d="M125 200.5L131 205L137 200.5" stroke="#979797" stroke-linecap="round"/>
<path d="M65.5 258H46" stroke="#979797" stroke-linecap="round"/>
<path d="M86.5 258H67" stroke="#979797" stroke-linecap="round"/>
<path d="M107.5 258H88" stroke="#979797" stroke-linecap="round"/>
<path d="M197.5 258H13" stroke="#979797" stroke-linecap="round"/>
<path d="M22.75 258H3.25" stroke="#979797" stroke-linecap="round"/>
<path d="M9.75 252L3.25 258L9.75 264" stroke="#979797" stroke-linecap="round"/>
<path d="M192 264L198.5 258L192 252" stroke="#979797" stroke-linecap="round"/>
<path d="M66.9943 271C66.7088 269.393 65.3963 268.153 63.5384 268.153C61.3352 268.153 59.767 269.905 59.767 272.636C59.767 275.368 61.3352 277.119 63.5384 277.119C65.3963 277.119 66.7088 275.875 66.9943 274.273H66.1932C65.9503 275.47 64.9062 276.369 63.5384 276.369C61.8849 276.369 60.5384 275.061 60.5384 272.636C60.5384 270.22 61.8849 268.903 63.5384 268.903C64.9062 268.903 65.9503 269.807 66.1932 271H66.9943ZM76.021 272.636C76.021 269.905 74.4528 268.153 72.2454 268.153C70.0423 268.153 68.4741 269.909 68.4741 272.636C68.4741 275.364 70.038 277.119 72.2454 277.119C74.4528 277.119 76.021 275.368 76.021 272.636ZM75.2454 272.636C75.2496 274.984 73.967 276.369 72.2454 276.369C70.5195 276.369 69.2454 274.976 69.2454 272.636C69.2454 270.284 70.5323 268.903 72.2454 268.903C73.967 268.903 75.2454 270.288 75.2454 272.636ZM77.9482 268.273V277H78.6982V269.956H78.7663L81.7109 277H82.4354L85.38 269.956H85.4482V277H86.1982V268.273H85.2777L82.1115 275.875H82.0348L78.8686 268.273H77.9482ZM88.5185 277H89.3153V273.663H91.348C93.1932 273.663 94.1477 272.491 94.1477 270.966C94.1477 269.44 93.1932 268.273 91.3352 268.273H88.5185V277ZM89.3153 272.947V268.989H91.3139C92.6946 268.989 93.3636 269.82 93.3636 270.966C93.3636 272.108 92.6946 272.947 91.3267 272.947H89.3153ZM96.0185 277H96.8153V273.472H98.848C98.9631 273.472 99.0739 273.467 99.1804 273.459L101.094 277H102.014L99.9986 273.305C101.085 272.947 101.648 272.053 101.648 270.885C101.648 269.359 100.689 268.273 98.8352 268.273H96.0185V277ZM96.8153 272.743V268.989H98.8139C100.195 268.989 100.864 269.743 100.864 270.885C100.864 272.027 100.195 272.743 98.8267 272.743H96.8153ZM104.386 268.273H103.589V277H104.386V268.273ZM106.706 268.273V277H107.456V269.956H107.524L110.469 277H111.193L114.138 269.956H114.206V277H114.956V268.273H114.036L110.869 275.875H110.793L107.626 268.273H106.706ZM117.276 277H122.424V276.284H118.073V272.99H122.07V272.274H118.073V268.989H122.339V268.273H117.276V277ZM131.198 268.273H130.414V275.589H130.346L125.173 268.273H124.401V277H125.198V269.692H125.266L130.423 277H131.198V268.273ZM132.99 268.989H135.756V277H136.553V268.989H139.318V268.273H132.99V268.989ZM147.904 272.636C147.904 269.905 146.336 268.153 144.128 268.153C141.925 268.153 140.357 269.909 140.357 272.636C140.357 275.364 141.921 277.119 144.128 277.119C146.336 277.119 147.904 275.368 147.904 272.636ZM147.128 272.636C147.132 274.984 145.85 276.369 144.128 276.369C142.402 276.369 141.128 274.976 141.128 272.636C141.128 270.284 142.415 268.903 144.128 268.903C145.85 268.903 147.128 270.288 147.128 272.636Z" fill="black"/>
<path d="M145.159 194H150.307V193.284H145.956V189.99H149.953V189.274H145.956V185.989H150.222V185.273H145.159V194ZM157.023 187.455H157.794C157.734 186.129 156.588 185.149 154.964 185.149C153.354 185.149 152.114 186.116 152.114 187.523C152.114 188.643 152.906 189.347 154.274 189.751L155.318 190.058C156.401 190.374 157.142 190.778 157.142 191.669C157.142 192.717 156.192 193.42 154.888 193.42C153.712 193.42 152.791 192.854 152.706 191.818H151.888C151.982 193.199 153.107 194.149 154.888 194.149C156.78 194.149 157.913 193.08 157.913 191.682C157.913 190.233 156.652 189.653 155.544 189.342L154.624 189.078C153.776 188.839 152.885 188.409 152.885 187.489C152.885 186.551 153.724 185.865 154.943 185.865C156.098 185.865 156.925 186.483 157.023 187.455ZM159.831 194H160.628V190.663H162.661C164.506 190.663 165.46 189.491 165.46 187.966C165.46 186.44 164.506 185.273 162.648 185.273H159.831V194ZM160.628 189.947V185.989H162.626C164.007 185.989 164.676 186.82 164.676 187.966C164.676 189.108 164.007 189.947 162.639 189.947H160.628ZM167.331 194H172.479V193.284H168.128V189.99H172.125V189.274H168.128V185.989H172.393V185.273H167.331V194ZM174.456 194H179.412V193.284H175.253V185.273H174.456V194ZM181.206 194H182.003V189.99H186.955V194H187.751V185.273H186.955V189.274H182.003V185.273H181.206V194ZM197.22 189.636C197.22 186.905 195.652 185.153 193.445 185.153C191.241 185.153 189.673 186.909 189.673 189.636C189.673 192.364 191.237 194.119 193.445 194.119C195.652 194.119 197.22 192.368 197.22 189.636ZM196.445 189.636C196.449 191.984 195.166 193.369 193.445 193.369C191.719 193.369 190.445 191.976 190.445 189.636C190.445 187.284 191.732 185.903 193.445 185.903C195.166 185.903 196.445 187.288 196.445 189.636Z" fill="black"/>
<path d="M87.1591 145H87.956V141.663H89.9886C91.8338 141.663 92.7884 140.491 92.7884 138.966C92.7884 137.44 91.8338 136.273 89.9759 136.273H87.1591V145ZM87.956 140.947V136.989H89.9545C91.3352 136.989 92.0043 137.82 92.0043 138.966C92.0043 140.108 91.3352 140.947 89.9673 140.947H87.956ZM95.456 136.273H94.6591V145H95.456V136.273ZM102.515 138.455H103.286C103.227 137.129 102.08 136.149 100.457 136.149C98.8459 136.149 97.6058 137.116 97.6058 138.523C97.6058 139.643 98.3984 140.347 99.7663 140.751L100.81 141.058C101.893 141.374 102.634 141.778 102.634 142.669C102.634 143.717 101.684 144.42 100.38 144.42C99.2038 144.42 98.2834 143.854 98.1982 142.818H97.38C97.4737 144.199 98.5987 145.149 100.38 145.149C102.272 145.149 103.406 144.08 103.406 142.682C103.406 141.233 102.144 140.653 101.036 140.342L100.116 140.078C99.2678 139.839 98.3771 139.409 98.3771 138.489C98.3771 137.551 99.2166 136.865 100.435 136.865C101.59 136.865 102.417 137.483 102.515 138.455ZM112.478 140.636C112.478 137.905 110.91 136.153 108.702 136.153C106.499 136.153 104.931 137.909 104.931 140.636C104.931 143.364 106.495 145.119 108.702 145.119C110.91 145.119 112.478 143.368 112.478 140.636ZM111.702 140.636C111.707 142.984 110.424 144.369 108.702 144.369C106.977 144.369 105.702 142.976 105.702 140.636C105.702 138.284 106.989 136.903 108.702 136.903C110.424 136.903 111.702 138.288 111.702 140.636Z" fill="black"/>
</svg>
