<svg width="210" height="260" viewBox="0 0 210 260" fill="none" xmlns="http://www.w3.org/2000/svg">
<path d="M128 210L157 210" stroke="#E97125" stroke-width="2"/>
<path d="M74 172L103 172" stroke="#E97125" stroke-width="2"/>
<path d="M101 191L130 191" stroke="#E97125" stroke-width="2"/>
<path d="M47 153L76 153" stroke="#E97125" stroke-width="2"/>
<path d="M156 209L156 218.852L156 228" stroke="#E97125" stroke-width="2"/>
<path d="M102 171L102 180.852L102 190" stroke="#E97125" stroke-width="2"/>
<path d="M129 190L129 199.852L129 209" stroke="#E97125" stroke-width="2"/>
<path d="M75 152L75 161.852L75 171" stroke="#E97125" stroke-width="2"/>
<path d="M48 133L48 142.852L48 152" stroke="#E97125" stroke-width="2"/>
<path d="M1 134L49 134" stroke="#898A8D" stroke-width="2"/>
<path d="M155 229H202" stroke="#898A8D" stroke-width="2"/>
<path d="M64.9943 249C64.7088 247.393 63.3963 246.153 61.5384 246.153C59.3352 246.153 57.767 247.905 57.767 250.636C57.767 253.368 59.3352 255.119 61.5384 255.119C63.3963 255.119 64.7088 253.875 64.9943 252.273H64.1932C63.9503 253.47 62.9062 254.369 61.5384 254.369C59.8849 254.369 58.5384 253.061 58.5384 250.636C58.5384 248.22 59.8849 246.903 61.5384 246.903C62.9062 246.903 63.9503 247.807 64.1932 249H64.9943ZM74.021 250.636C74.021 247.905 72.4528 246.153 70.2454 246.153C68.0423 246.153 66.4741 247.909 66.4741 250.636C66.4741 253.364 68.038 255.119 70.2454 255.119C72.4528 255.119 74.021 253.368 74.021 250.636ZM73.2454 250.636C73.2496 252.984 71.967 254.369 70.2454 254.369C68.5195 254.369 67.2454 252.976 67.2454 250.636C67.2454 248.284 68.5323 246.903 70.2454 246.903C71.967 246.903 73.2454 248.288 73.2454 250.636ZM75.9482 246.273V255H76.6982V247.956H76.7663L79.7109 255H80.4354L83.38 247.956H83.4482V255H84.1982V246.273H83.2777L80.1115 253.875H80.0348L76.8686 246.273H75.9482ZM86.5185 255H87.3153V251.663H89.348C91.1932 251.663 92.1477 250.491 92.1477 248.966C92.1477 247.44 91.1932 246.273 89.3352 246.273H86.5185V255ZM87.3153 250.947V246.989H89.3139C90.6946 246.989 91.3636 247.82 91.3636 248.966C91.3636 250.108 90.6946 250.947 89.3267 250.947H87.3153ZM94.0185 255H94.8153V251.472H96.848C96.9631 251.472 97.0739 251.467 97.1804 251.459L99.0938 255H100.014L97.9986 251.305C99.0852 250.947 99.6477 250.053 99.6477 248.885C99.6477 247.359 98.6889 246.273 96.8352 246.273H94.0185V255ZM94.8153 250.743V246.989H96.8139C98.1946 246.989 98.8636 247.743 98.8636 248.885C98.8636 250.027 98.1946 250.743 96.8267 250.743H94.8153ZM102.386 246.273H101.589V255H102.386V246.273ZM104.706 246.273V255H105.456V247.956H105.524L108.469 255H109.193L112.138 247.956H112.206V255H112.956V246.273H112.036L108.869 253.875H108.793L105.626 246.273H104.706ZM115.276 255H120.424V254.284H116.073V250.99H120.07V250.274H116.073V246.989H120.339V246.273H115.276V255ZM129.198 246.273H128.414V253.589H128.346L123.173 246.273H122.401V255H123.198V247.692H123.266L128.423 255H129.198V246.273ZM130.99 246.989H133.756V255H134.553V246.989H137.318V246.273H130.99V246.989ZM145.904 250.636C145.904 247.905 144.336 246.153 142.128 246.153C139.925 246.153 138.357 247.909 138.357 250.636C138.357 253.364 139.921 255.119 142.128 255.119C144.336 255.119 145.904 253.368 145.904 250.636ZM145.128 250.636C145.132 252.984 143.85 254.369 142.128 254.369C140.402 254.369 139.128 252.976 139.128 250.636C139.128 248.284 140.415 246.903 142.128 246.903C143.85 246.903 145.128 248.288 145.128 250.636Z" fill="#898A8D"/>
<path d="M154.159 203H159.307V202.284H154.956V198.99H158.953V198.274H154.956V194.989H159.222V194.273H154.159V203ZM166.023 196.455H166.794C166.734 195.129 165.588 194.149 163.964 194.149C162.354 194.149 161.114 195.116 161.114 196.523C161.114 197.643 161.906 198.347 163.274 198.751L164.318 199.058C165.401 199.374 166.142 199.778 166.142 200.669C166.142 201.717 165.192 202.42 163.888 202.42C162.712 202.42 161.791 201.854 161.706 200.818H160.888C160.982 202.199 162.107 203.149 163.888 203.149C165.78 203.149 166.913 202.08 166.913 200.682C166.913 199.233 165.652 198.653 164.544 198.342L163.624 198.078C162.776 197.839 161.885 197.409 161.885 196.489C161.885 195.551 162.724 194.865 163.943 194.865C165.098 194.865 165.925 195.483 166.023 196.455ZM168.831 203H169.628V199.663H171.661C173.506 199.663 174.46 198.491 174.46 196.966C174.46 195.44 173.506 194.273 171.648 194.273H168.831V203ZM169.628 198.947V194.989H171.626C173.007 194.989 173.676 195.82 173.676 196.966C173.676 198.108 173.007 198.947 171.639 198.947H169.628ZM176.331 203H181.479V202.284H177.128V198.99H181.125V198.274H177.128V194.989H181.393V194.273H176.331V203ZM183.456 203H188.412V202.284H184.253V194.273H183.456V203ZM190.206 203H191.003V198.99H195.955V203H196.751V194.273H195.955V198.274H191.003V194.273H190.206V203ZM206.22 198.636C206.22 195.905 204.652 194.153 202.445 194.153C200.241 194.153 198.673 195.909 198.673 198.636C198.673 201.364 200.237 203.119 202.445 203.119C204.652 203.119 206.22 201.368 206.22 198.636ZM205.445 198.636C205.449 200.984 204.166 202.369 202.445 202.369C200.719 202.369 199.445 200.976 199.445 198.636C199.445 196.284 200.732 194.903 202.445 194.903C204.166 194.903 205.445 196.288 205.445 198.636Z" fill="#898A8D"/>
<path d="M104.068 169H104.865V165.663H106.898C108.743 165.663 109.698 164.491 109.698 162.966C109.698 161.44 108.743 160.273 106.885 160.273H104.068V169ZM104.865 164.947V160.989H106.864C108.244 160.989 108.913 161.82 108.913 162.966C108.913 164.108 108.244 164.947 106.877 164.947H104.865ZM112.365 160.273H111.568V169H112.365V160.273ZM119.424 162.455H120.195C120.136 161.129 118.989 160.149 117.366 160.149C115.755 160.149 114.515 161.116 114.515 162.523C114.515 163.643 115.308 164.347 116.676 164.751L117.72 165.058C118.802 165.374 119.543 165.778 119.543 166.669C119.543 167.717 118.593 168.42 117.289 168.42C116.113 168.42 115.193 167.854 115.107 166.818H114.289C114.383 168.199 115.508 169.149 117.289 169.149C119.181 169.149 120.315 168.08 120.315 166.682C120.315 165.233 119.053 164.653 117.945 164.342L117.025 164.078C116.177 163.839 115.286 163.409 115.286 162.489C115.286 161.551 116.126 160.865 117.345 160.865C118.499 160.865 119.326 161.483 119.424 162.455ZM129.387 164.636C129.387 161.905 127.819 160.153 125.612 160.153C123.408 160.153 121.84 161.909 121.84 164.636C121.84 167.364 123.404 169.119 125.612 169.119C127.819 169.119 129.387 167.368 129.387 164.636ZM128.612 164.636C128.616 166.984 127.333 168.369 125.612 168.369C123.886 168.369 122.612 166.976 122.612 164.636C122.612 162.284 123.899 160.903 125.612 160.903C127.333 160.903 128.612 162.288 128.612 164.636Z" fill="#898A8D"/>
<mask maskUnits="userSpaceOnUse" x="0" y="0" width="0" height="0" fill="black">
<rect fill="white" width="0" height="0"/>
</mask>
<path d="M103.146 178.146C102.951 178.342 102.951 178.658 103.146 178.854L106.328 182.036C106.524 182.231 106.84 182.231 107.036 182.036C107.231 181.84 107.231 181.524 107.036 181.328L104.207 178.5L107.036 175.672C107.231 175.476 107.231 175.16 107.036 174.964C106.84 174.769 106.524 174.769 106.328 174.964L103.146 178.146ZM129.854 178.854C130.049 178.658 130.049 178.342 129.854 178.146L126.672 174.964C126.476 174.769 126.16 174.769 125.964 174.964C125.769 175.16 125.769 175.476 125.964 175.672L128.793 178.5L125.964 181.328C125.769 181.524 125.769 181.84 125.964 182.036C126.16 182.231 126.476 182.231 126.672 182.036L129.854 178.854ZM103.5 179H129.5V178H103.5V179Z" fill="#898A8D" mask="url(#)"/>
<mask maskUnits="userSpaceOnUse" x="0" y="0" width="0" height="0" fill="black">
<rect fill="white" width="0" height="0"/>
</mask>
<path d="M143.854 190.146C143.658 189.951 143.342 189.951 143.146 190.146L139.964 193.328C139.769 193.524 139.769 193.84 139.964 194.036C140.16 194.231 140.476 194.231 140.672 194.036L143.5 191.207L146.328 194.036C146.524 194.231 146.84 194.231 147.036 194.036C147.231 193.84 147.231 193.524 147.036 193.328L143.854 190.146ZM143.146 208.854C143.342 209.049 143.658 209.049 143.854 208.854L147.036 205.672C147.231 205.476 147.231 205.16 147.036 204.964C146.84 204.769 146.524 204.769 146.328 204.964L143.5 207.793L140.672 204.964C140.476 204.769 140.16 204.769 139.964 204.964C139.769 205.16 139.769 205.476 139.964 205.672L143.146 208.854ZM143 190.5L143 208.5L144 208.5L144 190.5L143 190.5Z" fill="#898A8D" mask="url(#)"/>
<mask maskUnits="userSpaceOnUse" x="0" y="0" width="0" height="0" fill="black">
<rect fill="white" width="0" height="0"/>
</mask>
<path d="M47.1464 240.146C46.9512 240.342 46.9512 240.658 47.1464 240.854L50.3284 244.036C50.5237 244.231 50.8403 244.231 51.0355 244.036C51.2308 243.84 51.2308 243.524 51.0355 243.328L48.2071 240.5L51.0355 237.672C51.2308 237.476 51.2308 237.16 51.0355 236.964C50.8403 236.769 50.5237 236.769 50.3284 236.964L47.1464 240.146ZM156.854 240.854C157.049 240.658 157.049 240.342 156.854 240.146L153.672 236.964C153.476 236.769 153.16 236.769 152.964 236.964C152.769 237.16 152.769 237.476 152.964 237.672L155.793 240.5L152.964 243.328C152.769 243.524 152.769 243.84 152.964 244.036C153.16 244.231 153.476 244.231 153.672 244.036L156.854 240.854ZM47.5 241L156.5 241L156.5 240L47.5 240L47.5 241Z" fill="#898A8D" mask="url(#)"/>
<line x1="47.25" y1="156.25" x2="47.25" y2="234.75" stroke="#B7B7B8" stroke-width="0.5" stroke-linecap="round" stroke-dasharray="2 2"/>
<path d="M37.0495 23.8934C35.404 24.0653 33.7526 23.6278 32.4089 22.664C31.0797 21.7013 29.9496 20.4908 29.0809 19.0994C27.5511 16.7954 26.448 14.2359 25.824 11.5426C25.3082 12.1616 24.6332 12.6285 23.8716 12.8931C23.1099 13.1577 22.2905 13.21 21.5013 13.0444C18.9264 12.4671 17.3822 9.46726 17.8844 6.88029C18.3867 4.29332 20.5121 2.24233 22.9377 1.20406C25.3632 0.165795 28.0663 -0.0057109 30.7054 0.000141899C32.4455 0.00401109 34.2189 0.0850319 35.8535 0.680982C37.4881 1.27693 38.9856 2.46469 39.5663 4.10267C39.9304 5.12959 39.9185 6.26623 40.3325 7.27413C41.084 9.10392 43.0331 10.1031 44.8624 10.8613C46.6917 11.6194 48.6804 12.3894 49.7591 14.048C50.9773 15.9209 50.6257 18.5349 49.2833 20.3212C47.9409 22.1074 45.7849 23.1432 43.5907 23.5763C41.3966 24.0094 39.1362 23.9023 36.9022 23.7934" fill="#2F2E41"/>
<path d="M60.8529 138L69 134.644L64.5794 126L58 129.658L60.8529 138Z" fill="#EAB584"/>
<path d="M42 88.4709L43.515 113.369L57.6555 133L67 129.155L51.9797 95.4468L51.9372 91.2036L51.8029 78L42 88.4709Z" fill="#2F2E41"/>
<path d="M32 121.115L39.3771 124L42 114.623L35.4427 113L32 121.115Z" fill="#EAB584"/>
<path d="M12.2522 60.7935L34.629 54.3861L28.0476 49.9502L10.7714 55.3719L2.95955 57.2439C2.40761 57.3762 1.89167 57.6284 1.44849 57.9825C1.00531 58.3366 0.64579 58.7839 0.395523 59.2926C0.145256 59.8013 0.0104027 60.3589 0.000576019 60.9256C-0.00924683 61.4923 0.10619 62.0541 0.338676 62.5712C0.556919 63.0566 0.873428 63.4916 1.26828 63.8488C1.66312 64.2061 2.12777 64.4778 2.63295 64.647C3.13813 64.8162 3.6729 64.8791 4.20363 64.8318C4.73436 64.7845 5.24955 64.628 5.71674 64.3722L12.2522 60.7935Z" fill="#EAB584"/>
<path d="M26.5667 50.1144L35.6161 55.3718C36.4147 48.797 32.4779 37.0933 27.5539 24.3204C26.112 25.363 24.9804 26.7767 24.2797 28.4108C23.5789 30.0449 23.3353 31.8382 23.5747 33.5997L26.5667 50.1144Z" fill="#F0F0F0"/>
<path d="M65.5615 63.2578L65.7518 70.0016C65.7683 70.5887 65.9178 71.1643 66.189 71.6855C66.4602 72.2066 66.8461 72.6596 67.3177 73.0105C67.7893 73.3615 68.3343 73.6012 68.9119 73.7118C69.4896 73.8223 70.0848 73.8008 70.6529 73.6489C71.2 73.5025 71.7086 73.2388 72.1432 72.876C72.5778 72.5133 72.9279 72.0602 73.1691 71.5485C73.4104 71.0368 73.5369 70.4787 73.54 69.9131C73.543 69.3475 73.4225 68.788 73.1868 68.2737L70.6621 62.7649L62.7644 44.0355L57.3347 46.0071L65.5615 63.2578Z" fill="#EAB584"/>
<path d="M28.788 17.6667C24.8806 17.6667 21.713 14.5037 21.713 10.6021C21.713 6.7004 24.8806 3.53748 28.788 3.53748C32.6954 3.53748 35.863 6.7004 35.863 10.6021C35.863 14.5037 32.6954 17.6667 28.788 17.6667Z" fill="#EAB584"/>
<path d="M29.0347 25.4706L37.2614 21.5276L33.1482 12.3271L26.2375 13.6415L29.0347 25.4706Z" fill="#EAB584"/>
<path d="M34.2998 58.8219L51.0824 54.7146L47.7124 23.8682C47.5579 22.4544 46.8537 21.1576 45.7514 20.257C44.649 19.3564 43.2367 18.9239 41.8182 19.0527L36.2742 19.556L28.7056 23.0061L25.9085 25.9634L26.762 29.6079C25.9664 37.1144 26.5796 43.628 30.9503 47.4934L34.2998 58.8219Z" fill="#F0F0F0"/>
<path d="M55.6894 47.1572L64.4098 44.8571L52.7186 25.522C51.4915 23.4926 49.7112 21.8539 47.5859 20.7974C45.4606 19.741 43.078 19.3104 40.7167 19.556L45.1592 34.178C49.2666 37.2729 52.7174 41.7215 55.6894 47.1572Z" fill="#F0F0F0"/>
<path opacity="0.2" d="M32.8101 95.7791L40.2942 110.876C44.5261 104.404 48.6094 97.9766 52.0437 91.7366L51.9093 78.0657L32.8101 95.7791Z" fill="black"/>
<path d="M33.984 114L41.5 116.5C49 85.5 64.195 73.9531 54.9279 57.6465L51.5499 51L33.9841 55.5252L38 69.5L32 92L33.984 114Z" fill="#2F2E41"/>
<path d="M24.4881 133L36.6485 132.875C37.8052 132.867 38.9119 132.382 39.7272 131.525C40.5424 130.668 41 129.509 41 128.3V121.969C41.0009 121.74 40.9501 121.514 40.8517 121.309C40.7534 121.104 40.6103 120.926 40.4339 120.79C40.2576 120.654 40.053 120.563 39.8367 120.524C39.6204 120.486 39.3984 120.501 39.1889 120.569C36.9924 121.305 35.1941 121.06 33.8379 119.727C33.0249 118.927 32.93 118.767 31.9623 119.348L26.4721 125.612L24.2455 125.762C23.4107 125.818 22.6234 126.187 22.0288 126.802C21.4342 127.417 21.0723 128.235 21.0097 129.106C20.9739 129.605 21.0374 130.106 21.1962 130.578C21.355 131.05 21.6057 131.483 21.9325 131.849C22.2593 132.214 22.6551 132.506 23.0949 132.704C23.5347 132.902 24.0091 133.003 24.4881 133Z" fill="#2F2E41"/>
<path d="M64.0441 150.95L72.7142 142.092C73.5416 141.252 74.0038 140.119 74 138.939C73.9961 137.759 73.5265 136.629 72.6936 135.794L68.3285 131.422C68.1712 131.263 67.9787 131.143 67.7667 131.073C67.5546 131.002 67.329 130.983 67.108 131.016C66.8871 131.049 66.677 131.133 66.4948 131.263C66.3126 131.392 66.1633 131.563 66.0592 131.761C64.9846 133.853 63.521 134.981 61.6253 135.039C60.4889 135.073 60.3098 135.031 60.0139 136.13L60.3788 144.416L58.879 146.126C58.3167 146.767 58.0045 147.59 58 148.443C57.9956 149.296 58.2992 150.123 58.8548 150.769C59.173 151.14 59.5643 151.44 60.004 151.652C60.4438 151.863 60.9225 151.981 61.41 151.998C61.8975 152.015 62.3833 151.93 62.8366 151.75C63.2899 151.57 63.7011 151.297 64.0441 150.95Z" fill="#2F2E41"/>
<path d="M29.0734 8.95354C28.1045 10.4925 26.6649 11.6789 24.9678 12.3368C23.7659 12.7989 22.2407 12.9138 21.3386 11.9958C20.6851 11.3309 20.5548 10.3075 20.6476 9.38054C20.937 6.48701 23.115 3.9673 25.8172 2.88313C28.5194 1.79896 31.639 2.03596 34.3358 3.1336C36.8803 4.16922 39.2968 6.29086 39.4336 9.03111C39.5038 10.4354 38.9946 11.9817 39.7495 13.1686C40.3181 14.0625 41.4163 14.4257 42.4 14.8216C43.3836 15.2174 44.4393 15.8421 44.6412 16.8817C44.6903 17.2393 44.6546 17.6034 44.5369 17.9447C44.4193 18.2861 44.223 18.595 43.9639 18.8467C43.4409 19.3454 42.822 19.7329 42.1446 19.9857C40.5404 20.6678 38.7746 21.093 37.0512 20.8293C35.3278 20.5656 33.6613 19.5177 32.9868 17.9123C32.4675 16.676 32.5739 15.2809 32.6338 13.9416C32.6938 12.6022 32.6756 11.1758 31.9594 10.0418C31.2433 8.90778 29.5805 8.27291 28.5103 9.08241" fill="#2F2E41"/>
</svg>
