<svg width="213" height="281" viewBox="0 0 213 281" fill="none" xmlns="http://www.w3.org/2000/svg">
<path d="M127 231L156 231" stroke="#E97125" stroke-width="2"/>
<path d="M73 193L102 193" stroke="#E97125" stroke-width="2"/>
<path d="M100 212L129 212" stroke="#E97125" stroke-width="2"/>
<path d="M46 174L75 174" stroke="#E97125" stroke-width="2"/>
<path d="M155 231L155 240.333L155 249" stroke="#E97125" stroke-width="2"/>
<path d="M101 193L101 202.333L101 211" stroke="#E97125" stroke-width="2"/>
<path d="M47 155L47 164.333L47 173" stroke="#E97125" stroke-width="2"/>
<path d="M128 212L128 221.333L128 230" stroke="#E97125" stroke-width="2"/>
<path d="M74 174L74 183.333L74 192" stroke="#E97125" stroke-width="2"/>
<path d="M0 155L48 155" stroke="#898A8D" stroke-width="2"/>
<path d="M154 250H201" stroke="#898A8D" stroke-width="2"/>
<path d="M63.9943 270C63.7088 268.393 62.3963 267.153 60.5384 267.153C58.3352 267.153 56.767 268.905 56.767 271.636C56.767 274.368 58.3352 276.119 60.5384 276.119C62.3963 276.119 63.7088 274.875 63.9943 273.273H63.1932C62.9503 274.47 61.9062 275.369 60.5384 275.369C58.8849 275.369 57.5384 274.061 57.5384 271.636C57.5384 269.22 58.8849 267.903 60.5384 267.903C61.9062 267.903 62.9503 268.807 63.1932 270H63.9943ZM73.021 271.636C73.021 268.905 71.4528 267.153 69.2454 267.153C67.0423 267.153 65.4741 268.909 65.4741 271.636C65.4741 274.364 67.038 276.119 69.2454 276.119C71.4528 276.119 73.021 274.368 73.021 271.636ZM72.2454 271.636C72.2496 273.984 70.967 275.369 69.2454 275.369C67.5195 275.369 66.2454 273.976 66.2454 271.636C66.2454 269.284 67.5323 267.903 69.2454 267.903C70.967 267.903 72.2454 269.288 72.2454 271.636ZM74.9482 267.273V276H75.6982V268.956H75.7663L78.7109 276H79.4354L82.38 268.956H82.4482V276H83.1982V267.273H82.2777L79.1115 274.875H79.0348L75.8686 267.273H74.9482ZM85.5185 276H86.3153V272.663H88.348C90.1932 272.663 91.1477 271.491 91.1477 269.966C91.1477 268.44 90.1932 267.273 88.3352 267.273H85.5185V276ZM86.3153 271.947V267.989H88.3139C89.6946 267.989 90.3636 268.82 90.3636 269.966C90.3636 271.108 89.6946 271.947 88.3267 271.947H86.3153ZM93.0185 276H93.8153V272.472H95.848C95.9631 272.472 96.0739 272.467 96.1804 272.459L98.0938 276H99.0142L96.9986 272.305C98.0852 271.947 98.6477 271.053 98.6477 269.885C98.6477 268.359 97.6889 267.273 95.8352 267.273H93.0185V276ZM93.8153 271.743V267.989H95.8139C97.1946 267.989 97.8636 268.743 97.8636 269.885C97.8636 271.027 97.1946 271.743 95.8267 271.743H93.8153ZM101.386 267.273H100.589V276H101.386V267.273ZM103.706 267.273V276H104.456V268.956H104.524L107.469 276H108.193L111.138 268.956H111.206V276H111.956V267.273H111.036L107.869 274.875H107.793L104.626 267.273H103.706ZM114.276 276H119.424V275.284H115.073V271.99H119.07V271.274H115.073V267.989H119.339V267.273H114.276V276ZM128.198 267.273H127.414V274.589H127.346L122.173 267.273H121.401V276H122.198V268.692H122.266L127.423 276H128.198V267.273ZM129.99 267.989H132.756V276H133.553V267.989H136.318V267.273H129.99V267.989ZM144.904 271.636C144.904 268.905 143.336 267.153 141.128 267.153C138.925 267.153 137.357 268.909 137.357 271.636C137.357 274.364 138.921 276.119 141.128 276.119C143.336 276.119 144.904 274.368 144.904 271.636ZM144.128 271.636C144.132 273.984 142.85 275.369 141.128 275.369C139.402 275.369 138.128 273.976 138.128 271.636C138.128 269.284 139.415 267.903 141.128 267.903C142.85 267.903 144.128 269.288 144.128 271.636Z" fill="#898A8D"/>
<path d="M157.159 224H162.307V223.284H157.956V219.99H161.953V219.274H157.956V215.989H162.222V215.273H157.159V224ZM169.023 217.455H169.794C169.734 216.129 168.588 215.149 166.964 215.149C165.354 215.149 164.114 216.116 164.114 217.523C164.114 218.643 164.906 219.347 166.274 219.751L167.318 220.058C168.401 220.374 169.142 220.778 169.142 221.669C169.142 222.717 168.192 223.42 166.888 223.42C165.712 223.42 164.791 222.854 164.706 221.818H163.888C163.982 223.199 165.107 224.149 166.888 224.149C168.78 224.149 169.913 223.08 169.913 221.682C169.913 220.233 168.652 219.653 167.544 219.342L166.624 219.078C165.776 218.839 164.885 218.409 164.885 217.489C164.885 216.551 165.724 215.865 166.943 215.865C168.098 215.865 168.925 216.483 169.023 217.455ZM171.831 224H172.628V220.663H174.661C176.506 220.663 177.46 219.491 177.46 217.966C177.46 216.44 176.506 215.273 174.648 215.273H171.831V224ZM172.628 219.947V215.989H174.626C176.007 215.989 176.676 216.82 176.676 217.966C176.676 219.108 176.007 219.947 174.639 219.947H172.628ZM179.331 224H184.479V223.284H180.128V219.99H184.125V219.274H180.128V215.989H184.393V215.273H179.331V224ZM186.456 224H191.412V223.284H187.253V215.273H186.456V224ZM193.206 224H194.003V219.99H198.955V224H199.751V215.273H198.955V219.274H194.003V215.273H193.206V224ZM209.22 219.636C209.22 216.905 207.652 215.153 205.445 215.153C203.241 215.153 201.673 216.909 201.673 219.636C201.673 222.364 203.237 224.119 205.445 224.119C207.652 224.119 209.22 222.368 209.22 219.636ZM208.445 219.636C208.449 221.984 207.166 223.369 205.445 223.369C203.719 223.369 202.445 221.976 202.445 219.636C202.445 217.284 203.732 215.903 205.445 215.903C207.166 215.903 208.445 217.288 208.445 219.636Z" fill="#898A8D"/>
<path d="M103.068 190H103.865V186.663H105.898C107.743 186.663 108.698 185.491 108.698 183.966C108.698 182.44 107.743 181.273 105.885 181.273H103.068V190ZM103.865 185.947V181.989H105.864C107.244 181.989 107.913 182.82 107.913 183.966C107.913 185.108 107.244 185.947 105.877 185.947H103.865ZM111.365 181.273H110.568V190H111.365V181.273ZM118.424 183.455H119.195C119.136 182.129 117.989 181.149 116.366 181.149C114.755 181.149 113.515 182.116 113.515 183.523C113.515 184.643 114.308 185.347 115.676 185.751L116.72 186.058C117.802 186.374 118.543 186.778 118.543 187.669C118.543 188.717 117.593 189.42 116.289 189.42C115.113 189.42 114.193 188.854 114.107 187.818H113.289C113.383 189.199 114.508 190.149 116.289 190.149C118.181 190.149 119.315 189.08 119.315 187.682C119.315 186.233 118.053 185.653 116.945 185.342L116.025 185.078C115.177 184.839 114.286 184.409 114.286 183.489C114.286 182.551 115.126 181.865 116.345 181.865C117.499 181.865 118.326 182.483 118.424 183.455ZM128.387 185.636C128.387 182.905 126.819 181.153 124.612 181.153C122.408 181.153 120.84 182.909 120.84 185.636C120.84 188.364 122.404 190.119 124.612 190.119C126.819 190.119 128.387 188.368 128.387 185.636ZM127.612 185.636C127.616 187.984 126.333 189.369 124.612 189.369C122.886 189.369 121.612 187.976 121.612 185.636C121.612 183.284 122.899 181.903 124.612 181.903C126.333 181.903 127.612 183.288 127.612 185.636Z" fill="#898A8D"/>
<mask maskUnits="userSpaceOnUse" x="0" y="0" width="0" height="0" fill="black">
<rect fill="white" width="0" height="0"/>
</mask>
<path d="M102.146 199.146C101.951 199.342 101.951 199.658 102.146 199.854L105.328 203.036C105.524 203.231 105.84 203.231 106.036 203.036C106.231 202.84 106.231 202.524 106.036 202.328L103.207 199.5L106.036 196.672C106.231 196.476 106.231 196.16 106.036 195.964C105.84 195.769 105.524 195.769 105.328 195.964L102.146 199.146ZM128.854 199.854C129.049 199.658 129.049 199.342 128.854 199.146L125.672 195.964C125.476 195.769 125.16 195.769 124.964 195.964C124.769 196.16 124.769 196.476 124.964 196.672L127.793 199.5L124.964 202.328C124.769 202.524 124.769 202.84 124.964 203.036C125.16 203.231 125.476 203.231 125.672 203.036L128.854 199.854ZM102.5 200H128.5V199H102.5V200Z" fill="#898A8D" mask="url(#)"/>
<mask maskUnits="userSpaceOnUse" x="0" y="0" width="0" height="0" fill="black">
<rect fill="white" width="0" height="0"/>
</mask>
<path d="M145.854 211.146C145.658 210.951 145.342 210.951 145.146 211.146L141.964 214.328C141.769 214.524 141.769 214.84 141.964 215.036C142.16 215.231 142.476 215.231 142.672 215.036L145.5 212.207L148.328 215.036C148.524 215.231 148.84 215.231 149.036 215.036C149.231 214.84 149.231 214.524 149.036 214.328L145.854 211.146ZM145.146 229.854C145.342 230.049 145.658 230.049 145.854 229.854L149.036 226.672C149.231 226.476 149.231 226.16 149.036 225.964C148.84 225.769 148.524 225.769 148.328 225.964L145.5 228.793L142.672 225.964C142.476 225.769 142.16 225.769 141.964 225.964C141.769 226.16 141.769 226.476 141.964 226.672L145.146 229.854ZM145 211.5L145 229.5L146 229.5L146 211.5L145 211.5Z" fill="#898A8D" mask="url(#)"/>
<mask maskUnits="userSpaceOnUse" x="0" y="0" width="0" height="0" fill="black">
<rect fill="white" width="0" height="0"/>
</mask>
<path d="M46.1464 261.146C45.9512 261.342 45.9512 261.658 46.1464 261.854L49.3284 265.036C49.5237 265.231 49.8403 265.231 50.0355 265.036C50.2308 264.84 50.2308 264.524 50.0355 264.328L47.2071 261.5L50.0355 258.672C50.2308 258.476 50.2308 258.16 50.0355 257.964C49.8403 257.769 49.5237 257.769 49.3284 257.964L46.1464 261.146ZM155.854 261.854C156.049 261.658 156.049 261.342 155.854 261.146L152.672 257.964C152.476 257.769 152.16 257.769 151.964 257.964C151.769 258.16 151.769 258.476 151.964 258.672L154.793 261.5L151.964 264.328C151.769 264.524 151.769 264.84 151.964 265.036C152.16 265.231 152.476 265.231 152.672 265.036L155.854 261.854ZM46.5 262L155.5 262L155.5 261L46.5 261L46.5 262Z" fill="#898A8D" mask="url(#)"/>
<line x1="46.25" y1="177.25" x2="46.25" y2="255.75" stroke="#B7B7B8" stroke-width="0.5" stroke-linecap="round" stroke-dasharray="2 2"/>
<path d="M68.5818 69.9062L72.379 75.0843C72.8937 75.786 73.6412 76.2818 74.4879 76.4828C75.3347 76.6839 76.2253 76.5771 77.0005 76.1816C77.5712 75.8904 78.0556 75.4548 78.4054 74.918C78.7552 74.3812 78.9583 73.7621 78.9942 73.1224C79.0302 72.4827 78.8978 71.8448 78.6103 71.2722C78.3229 70.6996 77.8904 70.2124 77.3559 69.8591L72.5135 66.6583L58.667 52.8117L57.1285 47.8542H46.7008L52.1711 59.6495L68.5818 69.9062Z" fill="#EAB584"/>
<path d="M16.9442 143.28L21.7306 145.502L29.004 131.682C33.4943 124.803 36.4252 116.559 38.4833 107.552L30.9617 108.065C26.4839 114.456 23.1656 120.864 22.0963 127.305L16.9442 143.28Z" fill="#EAB584"/>
<path d="M29.4235 109.775H38.9962V93.1928L31.3037 91.8254L29.4235 109.775Z" fill="#2F2E41"/>
<path d="M43.7887 49.0661C48.4529 48.177 53.2245 47.9972 57.9424 48.5329L55.1756 34.7346C54.9104 33.412 54.2377 32.2057 53.2519 31.285C52.2661 30.3643 51.0167 29.7754 49.6792 29.6011C48.7091 29.4746 47.723 29.5702 46.7952 29.8807C45.8675 30.1911 45.0225 30.7083 44.3239 31.3932C43.6253 32.0781 43.0915 32.9127 42.7628 33.8341C42.434 34.7555 42.3189 35.7396 42.4262 36.7119L43.7887 49.0661Z" fill="#D8D8D8"/>
<path d="M50.547 20.7595C46.1097 20.7595 42.5126 17.1624 42.5126 12.7251C42.5126 8.28781 46.1097 4.69067 50.547 4.69067C54.9843 4.69067 58.5814 8.28781 58.5814 12.7251C58.5814 17.1624 54.9843 20.7595 50.547 20.7595Z" fill="#EAB584"/>
<path d="M38.1536 22.0415L48.7522 29.5631L51.5728 16.1439L43.6238 12.9814C43.3018 16.4995 41.4015 19.4941 38.1536 22.0415Z" fill="#EAB584"/>
<path d="M42.5127 11.8703C43.107 10.6457 43.8509 11.4955 44.5118 12.9893L45.4597 9.1973L46.5973 8.8181L47.3557 5.78454C50.8343 4.95383 53.6257 6.69169 57.214 8.6224L58.5815 11.8704C59.1277 10.7551 59.4148 9.53092 59.4215 8.28915C59.4282 7.04739 59.1543 5.82015 58.6203 4.69908C58.0862 3.578 57.3058 2.59205 56.3373 1.81485C55.3688 1.03765 54.2373 0.489281 53.0272 0.21068C52.4318 0.076891 51.8239 0.00642589 51.2137 0.000467232C50.0527 -0.0116267 48.9013 0.211177 47.8286 0.655483C46.756 1.09979 45.7843 1.75642 44.9719 2.58589C44.1595 3.41537 43.5232 4.40056 43.1014 5.48224C42.6795 6.56391 42.4807 7.71973 42.517 8.8802L42.5127 11.8703Z" fill="#2F2E41"/>
<path d="M15.5565 149.835L31.9116 155.17C32.466 155.288 33.0444 155.214 33.5508 154.958C34.0572 154.703 34.4611 154.283 34.6958 153.767C34.9376 153.233 34.9838 152.632 34.8262 152.068C34.6685 151.505 34.3171 151.015 33.8338 150.684C30.6082 148.476 28.0376 146.12 26.8592 143.451C25.7694 139.024 24.5377 139.014 23.1995 142.317C19.5039 144.503 20.1009 142.752 17.7991 140.032L14.2506 146.749C14.1007 147.032 14.0158 147.346 14.0021 147.666C13.9883 147.987 14.0461 148.306 14.1711 148.602C14.2961 148.897 14.4852 149.161 14.7249 149.374C14.9645 149.588 15.2485 149.745 15.5565 149.835Z" fill="#2F2E41"/>
<path d="M56.2473 165.079L61.4603 162.382L59.5917 146.584L55.9215 115.556L45.9841 117.097C46.1982 127.872 48.4611 138.452 52.6049 148.05L56.2473 165.079Z" fill="#EAB584"/>
<path d="M38.0741 120.714L56.3016 116.652L51.4868 88.2143L52.3466 80.4762H28.4445C29.3164 90.4943 33.4755 105.285 38.0741 120.714Z" fill="#2F2E41"/>
<path d="M28.0679 82.7271C36.8387 80.5071 45.4665 80.1929 53.8806 82.7271C55.4545 66.5085 55.8875 51.043 54.5103 36.7724C54.1823 33.3167 52.5125 30.1274 49.8594 27.889L39.8631 19.4774L32.4405 23.1887C31.4822 23.6679 30.673 24.3998 30.1003 25.3053C29.5277 26.2108 29.2133 27.2556 29.1912 28.3268C27.5707 49.9026 26.3282 70.4342 28.0679 82.7271Z" fill="#D8D8D8"/>
<path d="M19.3497 79.992L17.8553 85.2222C17.6998 85.7664 17.6617 86.3374 17.7433 86.8974C17.825 87.4574 18.0247 87.9938 18.3291 88.4709C18.6335 88.948 19.0358 89.355 19.5093 89.665C19.9828 89.975 20.5167 90.181 21.0757 90.2693C21.6898 90.3662 22.3181 90.3186 22.9106 90.1302C23.503 89.9419 24.0434 89.6179 24.4888 89.1841C24.9341 88.7503 25.2721 88.2185 25.476 87.6312C25.6798 87.0439 25.7438 86.4171 25.663 85.8007L24.9909 80.6757L28.5807 54.6921L33.3672 44.4354L23.7943 40.1617L19.8625 52.9826L19.3497 79.992Z" fill="#EAB584"/>
<path d="M57.7138 170.154L76.1305 165.666C76.7194 165.452 77.2208 165.035 77.5516 164.484C77.8824 163.932 78.0227 163.279 77.9492 162.633C77.873 161.966 77.5739 161.349 77.1045 160.889C76.6351 160.43 76.0255 160.158 75.3829 160.121C71.0922 159.872 67.3332 159.088 64.7045 157.169C61.1583 153.472 59.9945 154.195 60.6175 158.232C58.388 162.574 57.9519 160.501 54.2381 159.2L54.7278 167.902C54.7484 168.269 54.8472 168.627 55.0168 168.95C55.1865 169.273 55.4228 169.552 55.7086 169.768C55.9944 169.983 56.3226 170.13 56.6695 170.197C57.0163 170.264 57.373 170.249 57.7138 170.154Z" fill="#2F2E41"/>
<path d="M22.2557 41.3584C26.3033 41.692 30.7189 44.0369 35.2475 46.9996L38.7212 33.3621C39.0542 32.0549 38.9694 30.6763 38.4788 29.4198C37.9883 28.1633 37.1165 27.092 35.9859 26.3562C35.166 25.8226 34.2355 25.4823 33.2648 25.3609C32.2941 25.2396 31.3085 25.3404 30.3824 25.6557C29.4563 25.971 28.614 26.4927 27.9191 27.1812C27.2241 27.8698 26.6947 28.7072 26.3708 29.6303L22.2557 41.3584Z" fill="#D8D8D8"/>
</svg>
