<svg width="243" height="284" viewBox="0 0 243 284" fill="none" xmlns="http://www.w3.org/2000/svg">
<path d="M127 230L148 230" stroke="#E97125" stroke-width="2"/>
<path d="M87 190L108 190" stroke="#E97125" stroke-width="2"/>
<path d="M107 210L128 210" stroke="#E97125" stroke-width="2"/>
<path d="M67 170L88 170" stroke="#E97125" stroke-width="2"/>
<path d="M148 249L148 238.63L148 229" stroke="#E97125" stroke-width="2"/>
<path d="M108 209L108 198.63L108 189" stroke="#E97125" stroke-width="2"/>
<path d="M68 169L68 158.63L68 149" stroke="#E97125" stroke-width="2"/>
<path d="M128 229L128 218.63L128 209" stroke="#E97125" stroke-width="2"/>
<path d="M88 189L88 178.63L88 169" stroke="#E97125" stroke-width="2"/>
<path d="M0 150L69 150" stroke="#898A8D" stroke-width="2"/>
<path d="M147 250L204 250" stroke="#898A8D" stroke-width="2"/>
<path d="M69.9943 272C69.7088 270.393 68.3963 269.153 66.5384 269.153C64.3352 269.153 62.767 270.905 62.767 273.636C62.767 276.368 64.3352 278.119 66.5384 278.119C68.3963 278.119 69.7088 276.875 69.9943 275.273H69.1932C68.9503 276.47 67.9062 277.369 66.5384 277.369C64.8849 277.369 63.5384 276.061 63.5384 273.636C63.5384 271.22 64.8849 269.903 66.5384 269.903C67.9062 269.903 68.9503 270.807 69.1932 272H69.9943ZM79.021 273.636C79.021 270.905 77.4528 269.153 75.2454 269.153C73.0423 269.153 71.4741 270.909 71.4741 273.636C71.4741 276.364 73.038 278.119 75.2454 278.119C77.4528 278.119 79.021 276.368 79.021 273.636ZM78.2454 273.636C78.2496 275.984 76.967 277.369 75.2454 277.369C73.5195 277.369 72.2454 275.976 72.2454 273.636C72.2454 271.284 73.5323 269.903 75.2454 269.903C76.967 269.903 78.2454 271.288 78.2454 273.636ZM80.9482 269.273V278H81.6982V270.956H81.7663L84.7109 278H85.4354L88.38 270.956H88.4482V278H89.1982V269.273H88.2777L85.1115 276.875H85.0348L81.8686 269.273H80.9482ZM91.5185 278H92.3153V274.663H94.348C96.1932 274.663 97.1477 273.491 97.1477 271.966C97.1477 270.44 96.1932 269.273 94.3352 269.273H91.5185V278ZM92.3153 273.947V269.989H94.3139C95.6946 269.989 96.3636 270.82 96.3636 271.966C96.3636 273.108 95.6946 273.947 94.3267 273.947H92.3153ZM99.0185 278H99.8153V274.472H101.848C101.963 274.472 102.074 274.467 102.18 274.459L104.094 278H105.014L102.999 274.305C104.085 273.947 104.648 273.053 104.648 271.885C104.648 270.359 103.689 269.273 101.835 269.273H99.0185V278ZM99.8153 273.743V269.989H101.814C103.195 269.989 103.864 270.743 103.864 271.885C103.864 273.027 103.195 273.743 101.827 273.743H99.8153ZM107.386 269.273H106.589V278H107.386V269.273ZM109.706 269.273V278H110.456V270.956H110.524L113.469 278H114.193L117.138 270.956H117.206V278H117.956V269.273H117.036L113.869 276.875H113.793L110.626 269.273H109.706ZM120.276 278H125.424V277.284H121.073V273.99H125.07V273.274H121.073V269.989H125.339V269.273H120.276V278ZM134.198 269.273H133.414V276.589H133.346L128.173 269.273H127.401V278H128.198V270.692H128.266L133.423 278H134.198V269.273ZM135.99 269.989H138.756V278H139.553V269.989H142.318V269.273H135.99V269.989ZM150.904 273.636C150.904 270.905 149.336 269.153 147.128 269.153C144.925 269.153 143.357 270.909 143.357 273.636C143.357 276.364 144.921 278.119 147.128 278.119C149.336 278.119 150.904 276.368 150.904 273.636ZM150.128 273.636C150.132 275.984 148.85 277.369 147.128 277.369C145.402 277.369 144.128 275.976 144.128 273.636C144.128 271.284 145.415 269.903 147.128 269.903C148.85 269.903 150.128 271.288 150.128 273.636Z" fill="#898A8D"/>
<path d="M11.1591 189H16.3068V188.284H11.956V184.99H15.9531V184.274H11.956V180.989H16.2216V180.273H11.1591V189ZM23.0227 182.455H23.794C23.7344 181.129 22.5881 180.149 20.9645 180.149C19.3537 180.149 18.1136 181.116 18.1136 182.523C18.1136 183.643 18.9062 184.347 20.2741 184.751L21.3182 185.058C22.4006 185.374 23.142 185.778 23.142 186.669C23.142 187.717 22.1918 188.42 20.8878 188.42C19.7116 188.42 18.7912 187.854 18.706 186.818H17.8878C17.9815 188.199 19.1065 189.149 20.8878 189.149C22.7798 189.149 23.9134 188.08 23.9134 186.682C23.9134 185.233 22.652 184.653 21.544 184.342L20.6236 184.078C19.7756 183.839 18.8849 183.409 18.8849 182.489C18.8849 181.551 19.7244 180.865 20.9432 180.865C22.098 180.865 22.9247 181.483 23.0227 182.455ZM25.831 189H26.6278V185.663H28.6605C30.5057 185.663 31.4602 184.491 31.4602 182.966C31.4602 181.44 30.5057 180.273 28.6477 180.273H25.831V189ZM26.6278 184.947V180.989H28.6264C30.0071 180.989 30.6761 181.82 30.6761 182.966C30.6761 184.108 30.0071 184.947 28.6392 184.947H26.6278ZM33.331 189H38.4787V188.284H34.1278V184.99H38.125V184.274H34.1278V180.989H38.3935V180.273H33.331V189ZM40.456 189H45.4119V188.284H41.2528V180.273H40.456V189ZM47.206 189H48.0028V184.99H52.9545V189H53.7514V180.273H52.9545V184.274H48.0028V180.273H47.206V189ZM63.2202 184.636C63.2202 181.905 61.652 180.153 59.4446 180.153C57.2415 180.153 55.6733 181.909 55.6733 184.636C55.6733 187.364 57.2372 189.119 59.4446 189.119C61.652 189.119 63.2202 187.368 63.2202 184.636ZM62.4446 184.636C62.4489 186.984 61.1662 188.369 59.4446 188.369C57.7188 188.369 56.4446 186.976 56.4446 184.636C56.4446 182.284 57.7315 180.903 59.4446 180.903C61.1662 180.903 62.4446 182.288 62.4446 184.636Z" fill="#898A8D"/>
<path d="M68.1591 146H68.956V142.663H70.9886C72.8338 142.663 73.7884 141.491 73.7884 139.966C73.7884 138.44 72.8338 137.273 70.9759 137.273H68.1591V146ZM68.956 141.947V137.989H70.9545C72.3352 137.989 73.0043 138.82 73.0043 139.966C73.0043 141.108 72.3352 141.947 70.9673 141.947H68.956ZM76.456 137.273H75.6591V146H76.456V137.273ZM83.5149 139.455H84.2862C84.2266 138.129 83.0803 137.149 81.4567 137.149C79.8459 137.149 78.6058 138.116 78.6058 139.523C78.6058 140.643 79.3984 141.347 80.7663 141.751L81.8104 142.058C82.8928 142.374 83.6342 142.778 83.6342 143.669C83.6342 144.717 82.6839 145.42 81.38 145.42C80.2038 145.42 79.2834 144.854 79.1982 143.818H78.38C78.4737 145.199 79.5987 146.149 81.38 146.149C83.272 146.149 84.4055 145.08 84.4055 143.682C84.4055 142.233 83.1442 141.653 82.0362 141.342L81.1158 141.078C80.2678 140.839 79.3771 140.409 79.3771 139.489C79.3771 138.551 80.2166 137.865 81.4354 137.865C82.5902 137.865 83.4169 138.483 83.5149 139.455ZM93.478 141.636C93.478 138.905 91.9098 137.153 89.7024 137.153C87.4993 137.153 85.9311 138.909 85.9311 141.636C85.9311 144.364 87.495 146.119 89.7024 146.119C91.9098 146.119 93.478 144.368 93.478 141.636ZM92.7024 141.636C92.7067 143.984 91.424 145.369 89.7024 145.369C87.9766 145.369 86.7024 143.976 86.7024 141.636C86.7024 139.284 87.9893 137.903 89.7024 137.903C91.424 137.903 92.7024 139.288 92.7024 141.636Z" fill="#898A8D"/>
<path d="M69.1464 155.646C68.9512 155.842 68.9512 156.158 69.1464 156.354L72.3284 159.536C72.5237 159.731 72.8403 159.731 73.0355 159.536C73.2308 159.34 73.2308 159.024 73.0355 158.828L70.2071 156L73.0355 153.172C73.2308 152.976 73.2308 152.66 73.0355 152.464C72.8403 152.269 72.5237 152.269 72.3284 152.464L69.1464 155.646ZM90.8536 156.354C91.0488 156.158 91.0488 155.842 90.8536 155.646L87.6716 152.464C87.4763 152.269 87.1597 152.269 86.9645 152.464C86.7692 152.66 86.7692 152.976 86.9645 153.172L89.7929 156L86.9645 158.828C86.7692 159.024 86.7692 159.34 86.9645 159.536C87.1597 159.731 87.4763 159.731 87.6716 159.536L90.8536 156.354ZM69.5 156.5H90.5V155.5H69.5V156.5Z" fill="#898A8D"/>
<mask maskUnits="userSpaceOnUse" x="0" y="0" width="0" height="0" fill="black">
<rect fill="white" width="0" height="0"/>
</mask>
<path d="M73.8536 172.146C73.6583 171.951 73.3417 171.951 73.1464 172.146L69.9645 175.328C69.7692 175.524 69.7692 175.84 69.9645 176.036C70.1597 176.231 70.4763 176.231 70.6716 176.036L73.5 173.207L76.3284 176.036C76.5237 176.231 76.8403 176.231 77.0355 176.036C77.2308 175.84 77.2308 175.524 77.0355 175.328L73.8536 172.146ZM73.1464 189.854C73.3417 190.049 73.6583 190.049 73.8536 189.854L77.0355 186.672C77.2308 186.476 77.2308 186.16 77.0355 185.964C76.8403 185.769 76.5237 185.769 76.3284 185.964L73.5 188.793L70.6716 185.964C70.4763 185.769 70.1597 185.769 69.9645 185.964C69.7692 186.16 69.7692 186.476 69.9645 186.672L73.1464 189.854ZM73 172.5L73 189.5L74 189.5L74 172.5L73 172.5Z" fill="#898A8D" mask="url(#)"/>
<mask maskUnits="userSpaceOnUse" x="0" y="0" width="0" height="0" fill="black">
<rect fill="white" width="0" height="0"/>
</mask>
<path d="M67.1464 260.146C66.9512 260.342 66.9512 260.658 67.1464 260.854L70.3284 264.036C70.5237 264.231 70.8403 264.231 71.0355 264.036C71.2308 263.84 71.2308 263.524 71.0355 263.328L68.2071 260.5L71.0355 257.672C71.2308 257.476 71.2308 257.16 71.0355 256.964C70.8403 256.769 70.5237 256.769 70.3284 256.964L67.1464 260.146ZM148.854 260.854C149.049 260.658 149.049 260.342 148.854 260.146L145.672 256.964C145.476 256.769 145.16 256.769 144.964 256.964C144.769 257.16 144.769 257.476 144.964 257.672L147.793 260.5L144.964 263.328C144.769 263.524 144.769 263.84 144.964 264.036C145.16 264.231 145.476 264.231 145.672 264.036L148.854 260.854ZM67.5 261L148.5 261L148.5 260L67.5 260L67.5 261Z" fill="#898A8D" mask="url(#)"/>
<line x1="67.25" y1="193.25" x2="67.25" y2="256.75" stroke="#B7B7B8" stroke-width="0.5" stroke-linecap="round" stroke-dasharray="2 2"/>
<path d="M234.615 165.928C234.735 165.346 234.719 164.746 234.568 164.17C234.418 163.594 234.136 163.057 233.742 162.595C233.349 162.134 232.854 161.76 232.292 161.5C231.73 161.24 231.115 161.1 230.489 161.091L211.427 139.555L206.668 145.329L226.095 165.372C226.147 166.37 226.583 167.315 227.32 168.028C228.057 168.741 229.045 169.173 230.095 169.241C231.145 169.31 232.185 169.011 233.018 168.4C233.851 167.789 234.419 166.91 234.615 165.928H234.615Z" fill="#A0616A"/>
<path d="M144.093 139.422C144.226 139.605 144.344 139.798 144.446 139.998L165.26 142.822L168.421 139.014L175.1 142.79L168.822 152.08L143.436 144.978C142.766 145.553 141.928 145.922 141.032 146.034C140.136 146.146 139.225 145.997 138.421 145.606C137.617 145.215 136.957 144.601 136.53 143.845C136.102 143.09 135.927 142.229 136.028 141.377C136.128 140.524 136.5 139.721 137.093 139.075C137.687 138.428 138.473 137.968 139.349 137.755C140.224 137.543 141.147 137.589 141.995 137.887C142.842 138.184 143.574 138.72 144.093 139.422Z" fill="#A0616A"/>
<path d="M179.648 211.376L175.964 214.857L160.065 203.03L165.501 197.893L179.648 211.376Z" fill="#A0616A"/>
<path d="M172.266 224.815L183.842 213.876L179.389 209.632L172.285 216.344C171.698 216.899 171.231 217.558 170.912 218.285C170.594 219.011 170.429 219.789 170.427 220.576C170.425 221.362 170.587 222.142 170.902 222.869C171.218 223.596 171.681 224.258 172.266 224.815L172.266 224.815Z" fill="#2F2E41"/>
<path d="M199.227 244.76H194.029L191.556 225.734H199.228L199.227 244.76Z" fill="#A0616A"/>
<path d="M184.004 249.34L200.34 249.341L200.34 243.351L190.316 243.351C189.487 243.351 188.666 243.506 187.901 243.807C187.135 244.108 186.439 244.549 185.853 245.105C185.267 245.661 184.802 246.321 184.485 247.048C184.167 247.775 184.004 248.554 184.004 249.34Z" fill="#2F2E41"/>
<path d="M200.356 230.065L206.277 188.627C207.204 182.365 206.916 175.995 205.429 169.83C204.214 164.877 202.572 161.445 200.55 159.632C200.231 159.348 199.822 159.171 199.387 159.128L179.839 157.195C179.463 157.159 179.083 157.225 178.744 157.385C178.406 157.546 178.122 157.794 177.927 158.102L177.284 159.118C177.206 159.242 177.143 159.373 177.097 159.51L172.964 171.669C172.902 171.853 172.803 172.023 172.671 172.17C172.539 172.317 172.378 172.438 172.197 172.525C165.69 175.678 144.553 186.321 145.762 190.913C146.899 195.227 157.54 202.223 160.774 204.264C161.104 204.473 161.492 204.584 161.888 204.581C162.284 204.578 162.67 204.462 162.996 204.248L168.365 200.762C168.627 200.592 168.842 200.365 168.993 200.099C169.143 199.834 169.225 199.538 169.23 199.237C169.236 198.936 169.165 198.637 169.025 198.367C168.884 198.097 168.677 197.863 168.421 197.684L164.719 195.095C164.493 194.936 164.316 194.722 164.208 194.475C164.1 194.229 164.065 193.959 164.107 193.695C164.148 193.43 164.265 193.182 164.445 192.976C164.624 192.77 164.859 192.615 165.125 192.526L185.008 185.905C185.232 185.831 185.47 185.806 185.705 185.833C185.94 185.859 186.165 185.937 186.364 186.059C186.562 186.181 186.728 186.345 186.85 186.538C186.971 186.731 187.044 186.947 187.063 187.171L190.729 229.696C190.77 230.152 190.983 230.578 191.329 230.897C191.676 231.215 192.132 231.404 192.613 231.428L198.286 231.697C198.32 231.698 198.354 231.699 198.389 231.699C198.87 231.701 199.336 231.536 199.698 231.235C200.06 230.934 200.294 230.518 200.356 230.065Z" fill="#2F2E41"/>
<path d="M191.391 122.887C185.64 122.887 180.978 118.463 180.978 113.005C180.978 107.547 185.64 103.122 191.391 103.122C197.142 103.122 201.804 107.547 201.804 113.005C201.804 118.463 197.142 122.887 191.391 122.887Z" fill="#A0616A"/>
<path d="M201.131 157.939L208.796 131.397L208.665 131.313C208.501 131.208 191.979 120.855 172.636 129.198L172.285 129.389L176.827 156.937C176.926 157.566 177.253 158.142 177.752 158.567C178.251 158.991 178.89 159.237 179.559 159.262L198.249 159.944C198.287 159.945 198.324 159.946 198.362 159.946C198.992 159.947 199.605 159.751 200.105 159.389C200.606 159.026 200.967 158.516 201.131 157.939Z" fill="#CCCCCC"/>
<path d="M209.088 148.676L215.472 141.709C215.779 141.375 215.952 140.948 215.96 140.504C215.969 140.06 215.811 139.627 215.517 139.282L208.843 131.458L203.72 132.784L201.004 141.806L205.956 148.52C206.129 148.756 206.356 148.951 206.621 149.09C206.885 149.229 207.18 149.309 207.482 149.323C207.518 149.325 207.553 149.325 207.589 149.325C207.873 149.326 208.154 149.268 208.413 149.156C208.672 149.044 208.902 148.881 209.088 148.676Z" fill="#CCCCCC"/>
<path d="M173.786 147.225C174.088 147.211 174.382 147.131 174.647 146.992C174.911 146.853 175.139 146.658 175.311 146.422L180.264 139.708L177.882 130.211L173.165 128.99L172.285 129.389L165.751 137.184C165.456 137.529 165.299 137.962 165.307 138.406C165.316 138.85 165.489 139.277 165.796 139.611L172.18 146.578C172.366 146.782 172.596 146.946 172.855 147.058C173.113 147.17 173.394 147.228 173.679 147.227C173.714 147.227 173.75 147.227 173.786 147.225Z" fill="#CCCCCC"/>
<path d="M195.351 120.232C196.133 119.855 196.783 119.271 197.223 118.551C197.663 117.831 197.873 117.005 197.829 116.174C197.784 115.343 197.487 114.541 196.973 113.867C196.458 113.193 195.749 112.674 194.931 112.375C191.789 111.224 188.266 113.573 184.972 112.905C181.689 112.239 179.79 108.515 180.574 105.417C181.357 102.319 184.209 99.9853 187.354 98.871C189.408 98.145 191.608 97.8666 193.791 98.0565C195.973 98.2464 198.083 98.8996 199.964 99.9679C201.825 101.067 203.375 102.582 204.479 104.379C205.584 106.177 206.209 108.203 206.3 110.282C206.343 112.363 205.807 114.417 204.747 116.239C203.687 118.061 202.139 119.585 200.261 120.659C199.424 121.117 198.449 121.485 197.508 121.279C196.735 121.04 196.007 120.687 195.351 120.232Z" fill="#2F2E41"/>
<path d="M198.725 99.727C201.496 96.2392 205.236 93.3739 209.589 91.9533C213.941 90.5327 218.915 90.6467 223.003 92.6543C227.091 94.6619 230.139 98.649 230.457 103.007C230.987 110.259 224.457 116.424 223.787 123.666C223.574 125.961 223.967 128.271 224.929 130.386C225.892 132.502 227.393 134.357 229.299 135.785C231.205 137.213 233.455 138.168 235.847 138.565C238.238 138.962 240.697 138.789 243 138.06C241.359 139.341 239.457 140.287 237.413 140.838C235.369 141.388 233.227 141.532 231.122 141.259C229.02 140.959 227.014 140.22 225.251 139.094C223.487 137.968 222.01 136.483 220.926 134.748C219.457 132.325 218.853 129.51 218.619 126.723C218.251 122.316 218.749 117.883 220.089 113.649C220.821 111.339 221.815 108.962 221.35 106.59C221.085 105.356 220.445 104.224 219.507 103.333C218.57 102.442 217.377 101.832 216.078 101.579C213.978 101.206 211.831 101.814 209.825 102.514C207.82 103.214 205.798 104.024 203.662 104.071C201.526 104.117 199.2 103.189 198.374 101.319L198.725 99.727Z" fill="#2F2E41"/>
<path d="M29.7345 62.8333C29.5224 62.7701 29.3058 62.7237 29.0864 62.6946L20.3305 44.9032L23.0037 40.8957L17.483 36.0709L10.5428 44.5635L24.6774 65.1344C24.3296 65.9124 24.227 66.7778 24.3831 67.6156C24.5392 68.4533 24.9466 69.2237 25.5512 69.8243C26.1558 70.4248 26.9289 70.8271 27.7677 70.9776C28.6064 71.1281 29.4712 71.0196 30.2468 70.6667C31.0224 70.3137 31.6723 69.733 32.1098 69.0018C32.5474 68.2705 32.752 67.4234 32.6964 66.573C32.6408 65.7227 32.3276 64.9094 31.7985 64.2414C31.2694 63.5733 30.5495 63.0822 29.7345 62.8333V62.8333Z" fill="#DFA876"/>
<path d="M14.7873 38.5289C14.9066 38.6546 15.0435 38.7625 15.1936 38.8492L24.1523 44.0426C24.3676 44.1674 24.6065 44.2463 24.8538 44.2741C25.1011 44.3019 25.3516 44.278 25.5892 44.2041C25.8269 44.1301 26.0466 44.0077 26.2345 43.8444C26.4224 43.6812 26.5744 43.4808 26.6809 43.2558L31.0381 34.0505C31.2234 33.6631 31.2633 33.2219 31.1505 32.8076C31.0376 32.3932 30.7796 32.0332 30.4234 31.7933L24.87 28.0155C24.5232 27.7799 24.105 27.6726 23.6876 27.7123C23.2702 27.752 22.8798 27.9362 22.5837 28.233L14.8215 36.0224C14.4913 36.3539 14.3031 36.8009 14.2967 37.2687C14.2904 37.7366 14.4663 38.1885 14.7873 38.5289H14.7873Z" fill="#CCCCCC"/>
<path d="M2.2084 140.476L6.93847 141.763L14.1536 124.131L7.17238 122.232L2.2084 140.476Z" fill="#DFA876"/>
<path d="M10.6847 141.331L1.56259 138.849L-0.000115571 144.593L14.8655 148.637C15.0707 147.883 15.1254 147.096 15.0263 146.32C14.9273 145.545 14.6765 144.797 14.2883 144.118C13.9001 143.44 13.382 142.844 12.7637 142.366C12.1454 141.888 11.4389 141.536 10.6847 141.331Z" fill="#2F2E41"/>
<path d="M42.6443 144.085L47.5459 144.085L49.8782 125.177L42.6435 125.178L42.6443 144.085Z" fill="#DFA876"/>
<path d="M51.0477 142.685H41.594V148.637H57C57 147.855 56.846 147.081 56.5469 146.359C56.2478 145.637 55.8093 144.981 55.2566 144.428C54.7039 143.875 54.0477 143.437 53.3255 143.138C52.6034 142.839 51.8293 142.685 51.0477 142.685Z" fill="#2F2E41"/>
<path d="M37.4799 21.739C32.0562 21.739 27.6594 17.3423 27.6594 11.9186C27.6594 6.4949 32.0562 2.09814 37.4799 2.09814C42.9035 2.09814 47.3003 6.4949 47.3003 11.9186C47.3003 17.3423 42.9035 21.739 37.4799 21.739Z" fill="#DFA876"/>
<path d="M42.9446 130.604H49.6434C50.1013 130.604 50.5418 130.429 50.8756 130.115C51.2093 129.802 51.4114 129.373 51.4409 128.916C53.437 97.1844 52.2694 74.4225 47.7665 57.2837C47.7468 57.2088 47.7224 57.1351 47.6936 57.0631L47.3349 56.1662C47.2023 55.8316 46.972 55.5447 46.674 55.343C46.3759 55.1412 46.024 55.0339 45.6641 55.035H31.889C31.6294 55.0348 31.3728 55.0909 31.137 55.1994C30.9011 55.3078 30.6916 55.4661 30.5228 55.6633L28.6518 57.8464C28.6153 57.889 28.5811 57.9323 28.5482 57.978C20.1112 69.7436 12.5502 92.7456 3.79331 123.663C3.66402 124.112 3.71533 124.594 3.93629 125.006C4.15726 125.418 4.53042 125.728 4.97623 125.869L12.1752 128.172C12.5885 128.302 13.0348 128.28 13.4329 128.109C13.831 127.938 14.1544 127.629 14.3444 127.24L33.0259 88.4926C33.1565 88.2218 33.3709 88.0003 33.6372 87.8608C33.9036 87.7214 34.2078 87.6714 34.5048 87.7183C34.8017 87.7652 35.0757 87.9065 35.2861 88.1213C35.4965 88.3361 35.6322 88.6129 35.6729 88.9108L41.1619 129.049C41.2222 129.479 41.4357 129.873 41.7631 130.159C42.0906 130.445 42.5101 130.603 42.9446 130.604Z" fill="#2F2E41"/>
<path d="M29.4069 58.0061C29.4257 58.0061 29.4445 58.0056 29.4634 58.0053L46.196 57.477C46.6262 57.4649 47.0377 57.2986 47.3554 57.0084C47.6731 56.7181 47.8759 56.3233 47.9267 55.896C50.0478 38.7263 44.2306 34.1266 41.631 32.9463C41.4138 32.8482 41.2256 32.6958 41.0846 32.5036C40.9437 32.3114 40.8547 32.0861 40.8265 31.8494L40.6016 30.0498C40.5632 29.732 40.4405 29.4302 40.2461 29.1759C36.1703 23.896 30.6048 22.2053 27.6501 21.6676C27.4104 21.6245 27.1645 21.6306 26.9273 21.6855C26.6901 21.7404 26.4665 21.8429 26.2701 21.9869C26.0738 22.1309 25.9087 22.3132 25.785 22.523C25.6613 22.7327 25.5815 22.9653 25.5504 23.2068L25.2135 25.7909C25.1791 26.0374 25.0808 26.2706 24.9282 26.4672C16.4281 37.5795 25.8977 53.987 27.8823 57.163C28.0445 57.4209 28.2694 57.6335 28.536 57.7809C28.8026 57.9284 29.1022 58.0058 29.4069 58.0061Z" fill="#CCCCCC"/>
<path d="M17.6666 13.0242C19.8574 9.93941 22.4845 7.18911 25.4656 4.85933C27.9439 2.92351 30.7026 1.26967 33.7461 0.478555C36.7897 -0.312557 40.1509 -0.177894 42.9277 1.2979C45.7047 2.7737 48.5756 5.70593 48.5932 8.85061C48.5986 9.86084 48.3417 11.2276 47.3468 11.0528L47.059 11.091C44.659 10.6063 42.2591 10.1215 39.8592 9.63679C38.837 13.1841 37.8148 16.7314 36.7927 20.2788C36.5771 21.0264 36.2882 21.8625 35.5785 22.1813C34.91 22.4816 34.1373 22.1986 33.461 21.9163C33.3497 21.8698 32.3941 19.7246 32.3941 19.7246C32.3701 19.6575 32.3287 19.5981 32.2741 19.5524C32.2196 19.5067 32.1538 19.4764 32.0835 19.4647C32.0133 19.4529 31.9413 19.4601 31.8748 19.4855C31.8083 19.5109 31.7498 19.5536 31.7053 19.6092L31.1376 20.3188C31.0291 20.4544 30.8794 20.551 30.7112 20.594C30.543 20.637 30.3653 20.624 30.2051 20.5572C26.2913 18.9233 22.3775 17.2895 18.4636 15.6557C17.9228 15.4299 17.3181 15.1351 17.1614 14.5702C17.011 14.0292 17.3418 13.4821 17.6666 13.0242Z" fill="#2F2E41"/>
<path d="M37.9229 86.6878C38.1948 86.6867 38.4593 86.5992 38.6781 86.4377L40.4982 85.1154C40.6492 85.0051 40.8314 84.9457 41.0184 84.9457C41.2054 84.9457 41.3875 85.0051 41.5385 85.1154L43.3586 86.4377C43.5781 86.5972 43.8424 86.6831 44.1137 86.6831C44.3851 86.6831 44.6494 86.5972 44.8689 86.4378C45.0884 86.2783 45.2518 86.0535 45.3357 85.7954C45.4196 85.5374 45.4196 85.2595 45.3358 85.0014L44.6406 82.8618C44.5824 82.6841 44.5823 82.4925 44.64 82.3147C44.6978 82.1369 44.8106 81.982 44.9621 81.8724L46.7822 80.5499C47.0017 80.3904 47.1651 80.1655 47.2489 79.9075C47.3327 79.6494 47.3327 79.3714 47.2489 79.1134C47.165 78.8554 47.0016 78.6305 46.7821 78.471C46.5626 78.3115 46.2983 78.2256 46.0269 78.2256H43.7773C43.5903 78.226 43.408 78.1669 43.2568 78.057C43.1055 77.9472 42.993 77.7921 42.9355 77.6142L42.2404 75.4746C42.1566 75.2165 41.9932 74.9916 41.7737 74.8321C41.5542 74.6726 41.2898 74.5867 41.0184 74.5867C40.7471 74.5867 40.4827 74.6726 40.2632 74.8321C40.0437 74.9916 39.8803 75.2165 39.7964 75.4746L39.1012 77.6142C39.0438 77.7921 38.9313 77.9472 38.78 78.057C38.6288 78.1669 38.4465 78.226 38.2596 78.2256H36.0099C35.7386 78.2256 35.4742 78.3115 35.2547 78.471C35.0352 78.6305 34.8718 78.8554 34.788 79.1134C34.7041 79.3714 34.7041 79.6494 34.7879 79.9075C34.8718 80.1655 35.0351 80.3904 35.2546 80.5499L37.0747 81.8722C37.2262 81.9819 37.3389 82.1368 37.3967 82.3146C37.4545 82.4925 37.4543 82.6841 37.3962 82.8618L36.7009 85.0014C36.614 85.2592 36.6125 85.5381 36.6966 85.7968C36.7807 86.0556 36.9459 86.2803 37.1677 86.4377C37.3865 86.5991 37.651 86.6867 37.9229 86.6878Z" fill="#FFAB07"/>
<path d="M37.9229 86.6878C38.1948 86.6867 38.4593 86.5992 38.6781 86.4377L40.4982 85.1154C40.6492 85.0051 40.8314 84.9457 41.0184 84.9457C41.2054 84.9457 41.3875 85.0051 41.5385 85.1154L43.3586 86.4377C43.5781 86.5972 43.8424 86.6831 44.1137 86.6831C44.3851 86.6831 44.6494 86.5972 44.8689 86.4378C45.0884 86.2783 45.2518 86.0535 45.3357 85.7954C45.4196 85.5374 45.4196 85.2595 45.3358 85.0014L44.6406 82.8618C44.5824 82.6841 44.5823 82.4925 44.64 82.3147C44.6978 82.1369 44.8106 81.982 44.9621 81.8724L46.7822 80.5499C47.0017 80.3904 47.1651 80.1655 47.2489 79.9075C47.3327 79.6494 47.3327 79.3714 47.2489 79.1134C47.165 78.8554 47.0016 78.6305 46.7821 78.471C46.5626 78.3115 46.2983 78.2256 46.0269 78.2256H43.7773C43.5903 78.226 43.408 78.1669 43.2568 78.057C43.1055 77.9472 42.993 77.7921 42.9355 77.6142L42.2404 75.4746C42.1566 75.2165 41.9932 74.9916 41.7737 74.8321C41.5542 74.6726 41.2898 74.5867 41.0184 74.5867C40.7471 74.5867 40.4827 74.6726 40.2632 74.8321C40.0437 74.9916 39.8803 75.2165 39.7964 75.4746L39.1012 77.6142C39.0438 77.7921 38.9313 77.9472 38.78 78.057C38.6288 78.1669 38.4465 78.226 38.2596 78.2256H36.0099C35.7386 78.2256 35.4742 78.3115 35.2547 78.471C35.0352 78.6305 34.8718 78.8554 34.788 79.1134C34.7041 79.3714 34.7041 79.6494 34.7879 79.9075C34.8718 80.1655 35.0351 80.3904 35.2546 80.5499L37.0747 81.8722C37.2262 81.9819 37.3389 82.1368 37.3967 82.3146C37.4545 82.4925 37.4543 82.6841 37.3962 82.8618L36.7009 85.0014C36.614 85.2592 36.6125 85.5381 36.6966 85.7968C36.7807 86.0556 36.9459 86.2803 37.1677 86.4377C37.3865 86.5991 37.651 86.6867 37.9229 86.6878Z" fill="url(#paint0_linear)"/>
<path d="M30.9673 82.4103C30.4532 82.0497 30.0244 81.5808 29.7112 81.0366C29.3979 80.4923 29.2077 79.8861 29.1541 79.2604C29.1005 78.6347 29.1847 78.0049 29.4008 77.4153C29.617 76.8258 29.9597 76.2907 30.405 75.8479L27.2969 38.3146L36.5508 39.5876L36.7269 76.0547C37.4212 76.852 37.7988 77.8763 37.7884 78.9335C37.7779 79.9907 37.38 81.0073 36.67 81.7907C35.9601 82.5741 34.9875 83.0699 33.9364 83.1841C32.8854 83.2982 31.829 83.0229 30.9673 82.4103Z" fill="#DFA876"/>
<path d="M26.6924 43.7194C26.8658 43.7194 27.0382 43.6944 27.2044 43.6452L37.1388 40.7233C37.3776 40.6531 37.5992 40.5341 37.7897 40.3739C37.9801 40.2136 38.1353 40.0156 38.2452 39.7923C38.3552 39.569 38.4177 39.3254 38.4287 39.0767C38.4396 38.8281 38.3989 38.5798 38.309 38.3477L34.6326 28.85C34.4793 28.4489 34.1868 28.1162 33.8086 27.9128C33.4304 27.7093 32.9916 27.6487 32.5724 27.7419L26.0091 29.1686C25.5995 29.2579 25.2338 29.4873 24.9752 29.8173C24.7166 30.1474 24.5814 30.5574 24.5928 30.9765L24.8982 41.9689C24.9113 42.4366 25.1059 42.8808 25.4408 43.2076C25.7757 43.5343 26.2246 43.7178 26.6924 43.7194H26.6924Z" fill="#CCCCCC"/>
<defs>
<linearGradient id="paint0_linear" x1="41.0184" y1="74.5867" x2="41.0184" y2="86.6878" gradientUnits="userSpaceOnUse">
<stop stop-color="#CCBBBB"/>
<stop offset="0.0001" stop-color="#DAAFAF"/>
<stop offset="0.0002" stop-color="#D28686" stop-opacity="0.948111"/>
<stop offset="0.9999" stop-color="#E9CBCB" stop-opacity="0.603868"/>
<stop offset="1" stop-color="white" stop-opacity="0"/>
</linearGradient>
</defs>
</svg>
